Topmarks-Bold-2.ufo
<glyph name="exclam" format="1">
  <advance width="493"/>
  <unicode hex="0021"/>
  <outline>
    <contour>
      <point x="79" y="75"/>
      <point x="149" y="0"/>
      <point x="248" y="0" type="curve" smooth="yes"/>
      <point x="346" y="0"/>
      <point x="418" y="74"/>
      <point x="418" y="175" type="curve" smooth="yes"/>
      <point x="418" y="277"/>
      <point x="347" y="351"/>
      <point x="249" y="351" type="curve" smooth="yes"/>
      <point x="151" y="351"/>
      <point x="79" y="278"/>
      <point x="79" y="178" type="curve" smooth="yes"/>
    </contour>
    <contour>
      <point x="181" y="518" type="line"/>
      <point x="303" y="518" type="line"/>
      <point x="391" y="1704" type="line"/>
      <point x="96" y="1704" type="line"/>
    </contour>
  </outline>
</glyph>
<glyph name="quotedbl" format="1">
  <advance width="686"/>
  <unicode hex="0022"/>
  <outline>
    <contour>
      <point x="129" y="1742" type="line"/>
      <point x="273" y="1742" type="line"/>
      <point x="273" y="2284" type="line"/>
      <point x="89" y="2284" type="line"/>
    </contour>
    <contour>
      <point x="449" y="1742" type="line"/>
      <point x="592" y="1742" type="line"/>
      <point x="592" y="2284" type="line"/>
      <point x="410" y="2284" type="line"/>
    </contour>
  </outline>
</glyph>
<glyph name="numbersign" format="1">
  <advance width="1349"/>
  <unicode hex="0023"/>
  <outline>
    <contour>
      <point x="229" y="106" type="line"/>
      <point x="391" y="106" type="line"/>
      <point x="482" y="605" type="line"/>
      <point x="769" y="605" type="line"/>
      <point x="682" y="106" type="line"/>
      <point x="842" y="106" type="line"/>
      <point x="933" y="605" type="line"/>
      <point x="1220" y="605" type="line"/>
      <point x="1236" y="752" type="line"/>
      <point x="957" y="752" type="line"/>
      <point x="1014" y="1076" type="line"/>
      <point x="1290" y="1076" type="line"/>
      <point x="1305" y="1221" type="line"/>
      <point x="1040" y="1221" type="line"/>
      <point x="1126" y="1703" type="line"/>
      <point x="964" y="1703" type="line"/>
      <point x="880" y="1221" type="line"/>
      <point x="592" y="1221" type="line"/>
      <point x="677" y="1703" type="line"/>
      <point x="515" y="1703" type="line"/>
      <point x="428" y="1221" type="line"/>
      <point x="130" y="1221" type="line"/>
      <point x="116" y="1076" type="line"/>
      <point x="405" y="1076" type="line"/>
      <point x="386" y="967"/>
      <point x="367" y="863"/>
      <point x="349" y="752" type="curve"/>
      <point x="57" y="752" type="line"/>
      <point x="44" y="605" type="line"/>
      <point x="322" y="605" type="line"/>
    </contour>
    <contour>
      <point x="506" y="752" type="line"/>
      <point x="566" y="1076" type="line"/>
      <point x="855" y="1076" type="line"/>
      <point x="798" y="752" type="line"/>
    </contour>
  </outline>
</glyph>
<glyph name="dollar" format="1">
  <advance width="1129"/>
  <unicode hex="0024"/>
  <outline>
    <contour>
      <point x="485" y="-303" type="line"/>
      <point x="622" y="-303" type="line"/>
      <point x="618" y="-114" type="line"/>
      <point x="681" y="-107"/>
      <point x="741" y="-95"/>
      <point x="798" y="-73" type="curve" smooth="yes"/>
      <point x="951" y="-14"/>
      <point x="1086" y="106"/>
      <point x="1086" y="322" type="curve" smooth="yes"/>
      <point x="1086" y="459"/>
      <point x="1040" y="541"/>
      <point x="967" y="608" type="curve" smooth="yes"/>
      <point x="874" y="694"/>
      <point x="753" y="747"/>
      <point x="618" y="803" type="curve"/>
      <point x="620" y="1424" type="line"/>
      <point x="755" y="1420"/>
      <point x="863" y="1380"/>
      <point x="941" y="1306" type="curve"/>
      <point x="995" y="1456" type="line"/>
      <point x="907" y="1536"/>
      <point x="774" y="1585"/>
      <point x="619" y="1588" type="curve"/>
      <point x="615" y="1748" type="line"/>
      <point x="479" y="1748" type="line"/>
      <point x="483" y="1587" type="line"/>
      <point x="358" y="1577"/>
      <point x="252" y="1516"/>
      <point x="178" y="1443" type="curve" smooth="yes"/>
      <point x="107" y="1372"/>
      <point x="45" y="1266"/>
      <point x="45" y="1128" type="curve" smooth="yes"/>
      <point x="45" y="1063"/>
      <point x="57" y="1007"/>
      <point x="80" y="961" type="curve" smooth="yes"/>
      <point x="159" y="806"/>
      <point x="324" y="736"/>
      <point x="483" y="660" type="curve"/>
      <point x="479" y="48" type="line"/>
      <point x="357" y="54"/>
      <point x="253" y="103"/>
      <point x="171" y="161" type="curve"/>
      <point x="117" y="3" type="line"/>
      <point x="215" y="-72"/>
      <point x="328" y="-117"/>
      <point x="481" y="-120" type="curve"/>
    </contour>
    <contour>
      <point x="823" y="125"/>
      <point x="730" y="69"/>
      <point x="615" y="52" type="curve"/>
      <point x="620" y="610" type="line"/>
      <point x="739" y="556"/>
      <point x="889" y="494"/>
      <point x="889" y="319" type="curve" smooth="yes"/>
      <point x="889" y="281"/>
      <point x="880" y="247"/>
      <point x="866" y="216" type="curve" smooth="yes"/>
    </contour>
    <contour>
      <point x="481" y="859" type="line"/>
      <point x="362" y="906"/>
      <point x="254" y="971"/>
      <point x="254" y="1143" type="curve" smooth="yes"/>
      <point x="254" y="1300"/>
      <point x="351" y="1399"/>
      <point x="483" y="1417" type="curve"/>
    </contour>
  </outline>
</glyph>
<glyph name="percent" format="1">
  <advance width="1904"/>
  <unicode hex="0025"/>
  <outline>
    <contour>
      <point x="123" y="904"/>
      <point x="242" y="789"/>
      <point x="436" y="789" type="curve" smooth="yes"/>
      <point x="496" y="789"/>
      <point x="551" y="802"/>
      <point x="600" y="825" type="curve" smooth="yes"/>
      <point x="735" y="891"/>
      <point x="830" y="1032"/>
      <point x="830" y="1238" type="curve" smooth="yes"/>
      <point x="830" y="1503"/>
      <point x="693" y="1683"/>
      <point x="442" y="1683" type="curve" smooth="yes"/>
      <point x="382" y="1683"/>
      <point x="326" y="1672"/>
      <point x="277" y="1649" type="curve" smooth="yes"/>
      <point x="141" y="1584"/>
      <point x="47" y="1440"/>
      <point x="47" y="1233" type="curve" smooth="yes"/>
      <point x="47" y="1171"/>
      <point x="56" y="1113"/>
      <point x="74" y="1059" type="curve" smooth="yes"/>
    </contour>
    <contour>
      <point x="1151" y="66"/>
      <point x="1268" y="-47"/>
      <point x="1462" y="-47" type="curve" smooth="yes"/>
      <point x="1522" y="-47"/>
      <point x="1577" y="-36"/>
      <point x="1626" y="-12" type="curve" smooth="yes"/>
      <point x="1761" y="53"/>
      <point x="1857" y="196"/>
      <point x="1857" y="402" type="curve" smooth="yes"/>
      <point x="1857" y="667"/>
      <point x="1720" y="847"/>
      <point x="1469" y="847" type="curve" smooth="yes"/>
      <point x="1409" y="847"/>
      <point x="1353" y="836"/>
      <point x="1304" y="812" type="curve" smooth="yes"/>
      <point x="1168" y="747"/>
      <point x="1073" y="603"/>
      <point x="1073" y="396" type="curve" smooth="yes"/>
      <point x="1073" y="333"/>
      <point x="1082" y="275"/>
      <point x="1100" y="222" type="curve" smooth="yes"/>
    </contour>
    <contour>
      <point x="672" y="1068"/>
      <point x="601" y="922"/>
      <point x="440" y="922" type="curve" smooth="yes"/>
      <point x="276" y="922"/>
      <point x="206" y="1061"/>
      <point x="206" y="1235" type="curve" smooth="yes"/>
      <point x="206" y="1407"/>
      <point x="277" y="1551"/>
      <point x="441" y="1551" type="curve" smooth="yes"/>
      <point x="479" y="1551"/>
      <point x="516" y="1543"/>
      <point x="545" y="1527" type="curve" smooth="yes"/>
      <point x="628" y="1479"/>
      <point x="672" y="1377"/>
      <point x="672" y="1239" type="curve" smooth="yes"/>
    </contour>
    <contour>
      <point x="1697" y="232"/>
      <point x="1628" y="85"/>
      <point x="1465" y="85" type="curve" smooth="yes"/>
      <point x="1426" y="85"/>
      <point x="1389" y="93"/>
      <point x="1361" y="110" type="curve"/>
      <point x="1276" y="158"/>
      <point x="1233" y="259"/>
      <point x="1233" y="396" type="curve" smooth="yes"/>
      <point x="1233" y="568"/>
      <point x="1304" y="715"/>
      <point x="1468" y="715" type="curve" smooth="yes"/>
      <point x="1629" y="715"/>
      <point x="1697" y="576"/>
      <point x="1697" y="403" type="curve" smooth="yes"/>
    </contour>
    <contour>
      <point x="347" y="-22" type="line"/>
      <point x="517" y="-22" type="line"/>
      <point x="1517" y="1670" type="line"/>
      <point x="1347" y="1670" type="line"/>
    </contour>
  </outline>
</glyph>
<glyph name="ampersand" format="1">
  <advance width="1743"/>
  <unicode hex="0026"/>
  <outline>
    <contour>
      <point x="189" y="57"/>
      <point x="390" y="-47"/>
      <point x="656" y="-47" type="curve" smooth="yes"/>
      <point x="913" y="-47"/>
      <point x="1082" y="66"/>
      <point x="1213" y="203" type="curve"/>
      <point x="1312" y="102"/>
      <point x="1402" y="-4"/>
      <point x="1566" y="-30" type="curve"/>
      <point x="1713" y="85" type="line"/>
      <point x="1667" y="96"/>
      <point x="1626" y="107"/>
      <point x="1591" y="118" type="curve"/>
      <point x="1471" y="160"/>
      <point x="1399" y="229"/>
      <point x="1317" y="318" type="curve"/>
      <point x="1440" y="485"/>
      <point x="1531" y="718"/>
      <point x="1541" y="998" type="curve"/>
      <point x="1356" y="1022" type="line"/>
      <point x="1356" y="973"/>
      <point x="1354" y="924"/>
      <point x="1345" y="872" type="curve" smooth="yes"/>
      <point x="1320" y="710"/>
      <point x="1263" y="564"/>
      <point x="1189" y="452" type="curve"/>
      <point x="731" y="949" type="line"/>
      <point x="817" y="998"/>
      <point x="903" y="1059"/>
      <point x="966" y="1132" type="curve"/>
      <point x="1020" y="1192"/>
      <point x="1070" y="1271"/>
      <point x="1070" y="1379" type="curve" smooth="yes"/>
      <point x="1070" y="1436"/>
      <point x="1058" y="1484"/>
      <point x="1034" y="1527" type="curve" smooth="yes"/>
      <point x="967" y="1644"/>
      <point x="832" y="1714"/>
      <point x="656" y="1714" type="curve" smooth="yes"/>
      <point x="436" y="1714"/>
      <point x="256" y="1606"/>
      <point x="256" y="1373" type="curve" smooth="yes"/>
      <point x="256" y="1332"/>
      <point x="261" y="1293"/>
      <point x="273" y="1259" type="curve" smooth="yes"/>
      <point x="312" y="1144"/>
      <point x="395" y="1066"/>
      <point x="471" y="985" type="curve"/>
      <point x="367" y="926"/>
      <point x="260" y="858"/>
      <point x="182" y="773" type="curve" smooth="yes"/>
      <point x="110" y="696"/>
      <point x="53" y="599"/>
      <point x="53" y="456" type="curve" smooth="yes"/>
      <point x="53" y="377"/>
      <point x="66" y="305"/>
      <point x="97" y="243" type="curve" smooth="yes"/>
    </contour>
    <contour>
      <point x="987" y="215"/>
      <point x="863" y="120"/>
      <point x="652" y="120" type="curve" smooth="yes"/>
      <point x="593" y="120"/>
      <point x="540" y="129"/>
      <point x="491" y="146" type="curve" smooth="yes"/>
      <point x="365" y="191"/>
      <point x="251" y="288"/>
      <point x="251" y="461" type="curve" smooth="yes"/>
      <point x="251" y="512"/>
      <point x="260" y="557"/>
      <point x="278" y="597" type="curve" smooth="yes"/>
      <point x="338" y="726"/>
      <point x="460" y="799"/>
      <point x="581" y="865" type="curve"/>
      <point x="835" y="599" type="line" smooth="yes"/>
      <point x="911" y="518"/>
      <point x="994" y="425"/>
      <point x="1068" y="349" type="curve" smooth="yes"/>
      <point x="1082" y="334"/>
      <point x="1092" y="326"/>
      <point x="1094" y="326" type="curve"/>
    </contour>
    <contour>
      <point x="808" y="1179"/>
      <point x="710" y="1114"/>
      <point x="616" y="1062" type="curve"/>
      <point x="591" y="1087"/>
      <point x="568" y="1110"/>
      <point x="547" y="1133" type="curve" smooth="yes"/>
      <point x="497" y="1191"/>
      <point x="447" y="1260"/>
      <point x="447" y="1367" type="curve" smooth="yes"/>
      <point x="447" y="1496"/>
      <point x="542" y="1557"/>
      <point x="664" y="1557" type="curve" smooth="yes"/>
      <point x="783" y="1557"/>
      <point x="882" y="1495"/>
      <point x="882" y="1367" type="curve" smooth="yes"/>
      <point x="882" y="1334"/>
      <point x="873" y="1304"/>
      <point x="858" y="1275" type="curve" smooth="yes"/>
    </contour>
  </outline>
</glyph>
<glyph name="quotesingle" format="1">
  <advance width="368"/>
  <unicode hex="0027"/>
  <outline>
    <contour>
      <point x="129" y="1742" type="line"/>
      <point x="272" y="1742" type="line"/>
      <point x="272" y="2284" type="line"/>
      <point x="89" y="2284" type="line"/>
    </contour>
  </outline>
</glyph>
<glyph name="parenleft" format="1">
  <advance width="629"/>
  <unicode hex="0028"/>
  <outline>
    <contour>
      <point x="51" y="365"/>
      <point x="145" y="56"/>
      <point x="335" y="-316" type="curve"/>
      <point x="582" y="-316" type="line"/>
      <point x="419" y="56"/>
      <point x="341" y="363"/>
      <point x="341" y="670" type="curve" smooth="yes"/>
      <point x="341" y="987"/>
      <point x="426" y="1303"/>
      <point x="594" y="1692" type="curve"/>
      <point x="346" y="1692" type="line"/>
      <point x="150" y="1305"/>
      <point x="51" y="989"/>
      <point x="51" y="673" type="curve" smooth="yes"/>
    </contour>
  </outline>
</glyph>
<glyph name="parenright" format="1">
  <advance width="630"/>
  <unicode hex="0029"/>
  <outline>
    <contour>
      <point x="290" y="363"/>
      <point x="211" y="56"/>
      <point x="47" y="-316" type="curve"/>
      <point x="294" y="-316" type="line"/>
      <point x="485" y="56"/>
      <point x="579" y="365"/>
      <point x="579" y="673" type="curve" smooth="yes"/>
      <point x="579" y="989"/>
      <point x="479" y="1305"/>
      <point x="284" y="1692" type="curve"/>
      <point x="36" y="1692" type="line"/>
      <point x="203" y="1303"/>
      <point x="290" y="987"/>
      <point x="290" y="670" type="curve" smooth="yes"/>
    </contour>
  </outline>
</glyph>
<glyph name="asterisk" format="1">
  <advance width="930"/>
  <unicode hex="002A"/>
  <outline>
    <contour>
      <point x="650" y="1298" type="line"/>
      <point x="789" y="1384" type="line"/>
      <point x="567" y="1679" type="line"/>
      <point x="858" y="1782" type="line"/>
      <point x="787" y="1928" type="line"/>
      <point x="528" y="1786" type="line"/>
      <point x="528" y="2136" type="line"/>
      <point x="370" y="2136" type="line"/>
      <point x="384" y="2019"/>
      <point x="402" y="1898"/>
      <point x="416" y="1780" type="curve"/>
      <point x="103" y="1925" type="line"/>
      <point x="79" y="1766" type="line"/>
      <point x="381" y="1675" type="line"/>
      <point x="170" y="1395" type="line"/>
      <point x="307" y="1307" type="line"/>
      <point x="476" y="1610" type="line"/>
    </contour>
  </outline>
</glyph>
<glyph name="plus" format="1">
  <advance width="2414"/>
  <unicode hex="002B"/>
  <outline>
    <contour>
      <point x="823" y="109" type="line"/>
      <point x="988" y="109" type="line"/>
      <point x="988" y="605" type="line"/>
      <point x="1487" y="605" type="line"/>
      <point x="1487" y="769" type="line"/>
      <point x="990" y="769" type="line"/>
      <point x="990" y="1266" type="line"/>
      <point x="826" y="1266" type="line"/>
      <point x="826" y="769" type="line"/>
      <point x="328" y="769" type="line"/>
      <point x="328" y="605" type="line"/>
      <point x="823" y="605" type="line"/>
    </contour>
  </outline>
</glyph>
<glyph name="comma" format="1">
  <advance width="893"/>
  <unicode hex="002C"/>
  <outline>
    <contour>
      <point x="129" y="-451" type="line"/>
      <point x="274" y="-451" type="line"/>
      <point x="454" y="93" type="line"/>
      <point x="247" y="93" type="line"/>
    </contour>
  </outline>
</glyph>
<glyph name="period" format="1">
  <advance width="893"/>
  <unicode hex="002E"/>
  <outline>
    <contour>
      <point x="142" y="68"/>
      <point x="207" y="0"/>
      <point x="297" y="0" type="curve" smooth="yes"/>
      <point x="387" y="0"/>
      <point x="453" y="66"/>
      <point x="453" y="160" type="curve" smooth="yes"/>
      <point x="453" y="255"/>
      <point x="387" y="322"/>
      <point x="297" y="322" type="curve" smooth="yes"/>
      <point x="207" y="322"/>
      <point x="142" y="255"/>
      <point x="142" y="163" type="curve" smooth="yes"/>
    </contour>
  </outline>
</glyph>
<glyph name="slash" format="1">
  <advance width="834"/>
  <unicode hex="002F"/>
  <outline>
    <contour>
      <point x="40" y="-378" type="line"/>
      <point x="194" y="-378" type="line"/>
      <point x="793" y="1280" type="line"/>
      <point x="636" y="1280" type="line"/>
    </contour>
  </outline>
</glyph>
<glyph name="zero" format="1">
  <advance width="1255"/>
  <unicode hex="0030"/>
  <outline>
    <contour>
      <point x="905" y="429"/>
      <point x="794" y="224"/>
      <point x="626" y="224" type="curve" smooth="yes"/>
      <point x="456" y="224"/>
      <point x="345" y="429"/>
      <point x="345" y="735" type="curve" smooth="yes"/>
      <point x="345" y="1047"/>
      <point x="456" y="1255"/>
      <point x="626" y="1255" type="curve" smooth="yes"/>
      <point x="794" y="1255"/>
      <point x="905" y="1047"/>
      <point x="905" y="735" type="curve" smooth="yes"/>
    </contour>
    <contour>
      <point x="88" y="297"/>
      <point x="305" y="6"/>
      <point x="626" y="6" type="curve" smooth="yes"/>
      <point x="950" y="6"/>
      <point x="1168" y="297"/>
      <point x="1168" y="735" type="curve" smooth="yes"/>
      <point x="1168" y="1179"/>
      <point x="950" y="1474"/>
      <point x="626" y="1474" type="curve" smooth="yes"/>
      <point x="305" y="1474"/>
      <point x="88" y="1179"/>
      <point x="88" y="735" type="curve" smooth="yes"/>
    </contour>
  </outline>
</glyph>
<glyph name="one" format="1">
  <advance width="697"/>
  <unicode hex="0031"/>
  <outline>
    <contour>
      <point x="361" y="0" type="line"/>
      <point x="612" y="0" type="line"/>
      <point x="612" y="1431" type="line"/>
      <point x="366" y="1429" type="line"/>
      <point x="303" y="1378"/>
      <point x="170" y="1295"/>
      <point x="61" y="1243" type="curve"/>
      <point x="118" y="1072" type="line"/>
      <point x="218" y="1116"/>
      <point x="299" y="1163"/>
      <point x="361" y="1214" type="curve"/>
    </contour>
  </outline>
</glyph>
<glyph name="two" format="1">
  <advance width="1070"/>
  <unicode hex="0032"/>
  <outline>
    <contour>
      <point x="88" y="-6" type="line"/>
      <point x="964" y="-6" type="line"/>
      <point x="964" y="209" type="line"/>
      <point x="421" y="209" type="line"/>
      <point x="483" y="270"/>
      <point x="631" y="387"/>
      <point x="762" y="534" type="curve"/>
      <point x="892" y="682"/>
      <point x="1008" y="861"/>
      <point x="1008" y="1045" type="curve" smooth="yes"/>
      <point x="1008" y="1343"/>
      <point x="776" y="1474"/>
      <point x="537" y="1474" type="curve" smooth="yes"/>
      <point x="334" y="1474"/>
      <point x="129" y="1381"/>
      <point x="55" y="1203" type="curve"/>
      <point x="211" y="1066" type="line"/>
      <point x="281" y="1192"/>
      <point x="409" y="1254"/>
      <point x="523" y="1254" type="curve" smooth="yes"/>
      <point x="642" y="1254"/>
      <point x="742" y="1188"/>
      <point x="742" y="1042" type="curve" smooth="yes"/>
      <point x="742" y="891"/>
      <point x="630" y="727"/>
      <point x="492" y="577" type="curve" smooth="yes"/>
      <point x="354" y="427"/>
      <point x="190" y="291"/>
      <point x="87" y="192" type="curve"/>
    </contour>
  </outline>
</glyph>
<glyph name="three" format="1">
  <advance width="994"/>
  <unicode hex="0033"/>
  <outline>
    <contour>
      <point x="150" y="44"/>
      <point x="318" y="-25"/>
      <point x="486" y="-25" type="curve" smooth="yes"/>
      <point x="720" y="-25"/>
      <point x="947" y="111"/>
      <point x="947" y="386" type="curve" smooth="yes"/>
      <point x="947" y="637"/>
      <point x="789" y="732"/>
      <point x="715" y="758" type="curve"/>
      <point x="785" y="794"/>
      <point x="910" y="881"/>
      <point x="910" y="1077" type="curve" smooth="yes"/>
      <point x="910" y="1345"/>
      <point x="706" y="1474"/>
      <point x="483" y="1474" type="curve" smooth="yes"/>
      <point x="321" y="1474"/>
      <point x="149" y="1406"/>
      <point x="41" y="1272" type="curve"/>
      <point x="171" y="1119" type="line"/>
      <point x="242" y="1210"/>
      <point x="354" y="1256"/>
      <point x="458" y="1256" type="curve" smooth="yes"/>
      <point x="579" y="1256"/>
      <point x="693" y="1194"/>
      <point x="693" y="1047" type="curve" smooth="yes"/>
      <point x="693" y="859"/>
      <point x="507" y="843"/>
      <point x="383" y="843" type="curve" smooth="yes"/>
      <point x="323" y="843" type="line"/>
      <point x="325" y="635" type="line"/>
      <point x="398" y="637" type="line"/>
      <point x="582" y="637"/>
      <point x="734" y="608"/>
      <point x="734" y="389" type="curve" smooth="yes"/>
      <point x="734" y="280"/>
      <point x="634" y="191"/>
      <point x="495" y="191" type="curve" smooth="yes"/>
      <point x="392" y="191"/>
      <point x="268" y="239"/>
      <point x="144" y="359" type="curve"/>
      <point x="57" y="179" type="line"/>
    </contour>
  </outline>
</glyph>
<glyph name="four" format="1">
  <advance width="1227"/>
  <unicode hex="0034"/>
  <outline>
    <contour>
      <point x="719" y="0" type="line"/>
      <point x="963" y="0" type="line"/>
      <point x="963" y="322" type="line"/>
      <point x="1138" y="322" type="line"/>
      <point x="1138" y="520" type="line"/>
      <point x="963" y="520" type="line"/>
      <point x="963" y="1413" type="line"/>
      <point x="696" y="1413" type="line"/>
      <point x="92" y="513" type="line"/>
      <point x="92" y="322" type="line"/>
      <point x="719" y="322" type="line"/>
    </contour>
    <contour>
      <point x="337" y="520" type="line"/>
      <point x="620" y="951" type="line"/>
      <point x="719" y="1126" type="line"/>
      <point x="719" y="520" type="line"/>
    </contour>
  </outline>
</glyph>
<glyph name="five" format="1">
  <advance width="986"/>
  <unicode hex="0035"/>
  <outline>
    <contour>
      <point x="148" y="26"/>
      <point x="301" y="-34"/>
      <point x="450" y="-32" type="curve" smooth="yes"/>
      <point x="699" y="-29"/>
      <point x="939" y="144"/>
      <point x="939" y="433" type="curve" smooth="yes"/>
      <point x="939" y="773"/>
      <point x="735" y="928"/>
      <point x="543" y="929" type="curve" smooth="yes"/>
      <point x="452" y="930"/>
      <point x="362" y="896"/>
      <point x="299" y="831" type="curve"/>
      <point x="314" y="1205" type="line"/>
      <point x="836" y="1205" type="line"/>
      <point x="836" y="1404" type="line"/>
      <point x="95" y="1404" type="line"/>
      <point x="95" y="624" type="line"/>
      <point x="260" y="624" type="line"/>
      <point x="330" y="698"/>
      <point x="412" y="734"/>
      <point x="486" y="733" type="curve" smooth="yes"/>
      <point x="608" y="731"/>
      <point x="710" y="631"/>
      <point x="710" y="436" type="curve" smooth="yes"/>
      <point x="710" y="305"/>
      <point x="598" y="186"/>
      <point x="444" y="187" type="curve" smooth="yes"/>
      <point x="349" y="188"/>
      <point x="238" y="235"/>
      <point x="127" y="353" type="curve"/>
      <point x="42" y="158" type="line"/>
    </contour>
  </outline>
</glyph>
<glyph name="six" format="1">
  <advance width="1133"/>
  <unicode hex="0036"/>
  <outline>
    <contour>
      <point x="86" y="130"/>
      <point x="330" y="-35"/>
      <point x="571" y="-35" type="curve" smooth="yes"/>
      <point x="811" y="-35"/>
      <point x="1048" y="127"/>
      <point x="1048" y="455" type="curve" smooth="yes"/>
      <point x="1048" y="722"/>
      <point x="855" y="933"/>
      <point x="592" y="933" type="curve" smooth="yes"/>
      <point x="538" y="933"/>
      <point x="439" y="909"/>
      <point x="399" y="864" type="curve"/>
      <point x="432" y="966"/>
      <point x="594" y="1232"/>
      <point x="804" y="1458" type="curve"/>
      <point x="609" y="1571" type="line"/>
      <point x="157" y="1087"/>
      <point x="86" y="778"/>
      <point x="86" y="459" type="curve" smooth="yes"/>
    </contour>
    <contour>
      <point x="826" y="259"/>
      <point x="693" y="168"/>
      <point x="561" y="168" type="curve" smooth="yes"/>
      <point x="428" y="168"/>
      <point x="294" y="260"/>
      <point x="294" y="442" type="curve" smooth="yes"/>
      <point x="294" y="640"/>
      <point x="426" y="736"/>
      <point x="557" y="736" type="curve" smooth="yes"/>
      <point x="691" y="736"/>
      <point x="826" y="636"/>
      <point x="826" y="440" type="curve" smooth="yes"/>
    </contour>
  </outline>
</glyph>
<glyph name="seven" format="1">
  <advance width="1094"/>
  <unicode hex="0037"/>
  <outline>
    <contour>
      <point x="251" y="0" type="line"/>
      <point x="507" y="0" type="line"/>
      <point x="1002" y="1232" type="line"/>
      <point x="1002" y="1413" type="line"/>
      <point x="94" y="1413" type="line"/>
      <point x="94" y="1214" type="line"/>
      <point x="753" y="1214" type="line"/>
    </contour>
  </outline>
</glyph>
<glyph name="eight" format="1">
  <advance width="1090"/>
  <unicode hex="0038"/>
  <outline>
    <contour>
      <point x="195" y="89"/>
      <point x="346" y="6"/>
      <point x="546" y="6" type="curve" smooth="yes"/>
      <point x="675" y="6"/>
      <point x="789" y="46"/>
      <point x="867" y="106" type="curve" smooth="yes"/>
      <point x="945" y="165"/>
      <point x="1007" y="256"/>
      <point x="1007" y="394" type="curve" smooth="yes"/>
      <point x="1007" y="605"/>
      <point x="880" y="720"/>
      <point x="711" y="772" type="curve"/>
      <point x="859" y="820"/>
      <point x="976" y="921"/>
      <point x="976" y="1114" type="curve" smooth="yes"/>
      <point x="976" y="1171"/>
      <point x="965" y="1221"/>
      <point x="942" y="1266" type="curve" smooth="yes"/>
      <point x="877" y="1398"/>
      <point x="734" y="1474"/>
      <point x="546" y="1474" type="curve" smooth="yes"/>
      <point x="486" y="1474"/>
      <point x="431" y="1465"/>
      <point x="377" y="1450" type="curve"/>
      <point x="238" y="1406"/>
      <point x="116" y="1302"/>
      <point x="116" y="1114" type="curve" smooth="yes"/>
      <point x="116" y="921"/>
      <point x="230" y="820"/>
      <point x="378" y="772" type="curve"/>
      <point x="210" y="720"/>
      <point x="82" y="605"/>
      <point x="82" y="394" type="curve" smooth="yes"/>
      <point x="82" y="331"/>
      <point x="97" y="275"/>
      <point x="122" y="227" type="curve" smooth="yes"/>
    </contour>
    <contour>
      <point x="777" y="200"/>
      <point x="678" y="147"/>
      <point x="546" y="147" type="curve" smooth="yes"/>
      <point x="377" y="147"/>
      <point x="248" y="228"/>
      <point x="248" y="406" type="curve" smooth="yes"/>
      <point x="248" y="447"/>
      <point x="256" y="483"/>
      <point x="271" y="515" type="curve" smooth="yes"/>
      <point x="319" y="617"/>
      <point x="424" y="672"/>
      <point x="546" y="698" type="curve"/>
      <point x="693" y="667"/>
      <point x="842" y="592"/>
      <point x="842" y="406" type="curve" smooth="yes"/>
      <point x="842" y="363"/>
      <point x="835" y="328"/>
      <point x="820" y="295" type="curve" smooth="yes"/>
    </contour>
    <contour>
      <point x="813" y="940"/>
      <point x="693" y="873"/>
      <point x="546" y="844" type="curve"/>
      <point x="398" y="873"/>
      <point x="277" y="940"/>
      <point x="277" y="1109" type="curve" smooth="yes"/>
      <point x="277" y="1146"/>
      <point x="284" y="1179"/>
      <point x="298" y="1207" type="curve" smooth="yes"/>
      <point x="339" y="1290"/>
      <point x="428" y="1339"/>
      <point x="546" y="1339" type="curve" smooth="yes"/>
      <point x="692" y="1339"/>
      <point x="813" y="1265"/>
      <point x="813" y="1109" type="curve" smooth="yes"/>
    </contour>
  </outline>
</glyph>
<glyph name="nine" format="1">
  <advance width="1133"/>
  <unicode hex="0039"/>
  <outline>
    <contour>
      <point x="527" y="-132" type="line"/>
      <point x="881" y="498" type="line" smooth="yes"/>
      <point x="959" y="636"/>
      <point x="1048" y="854"/>
      <point x="1048" y="979" type="curve" smooth="yes"/>
      <point x="1048" y="1308"/>
      <point x="806" y="1474"/>
      <point x="565" y="1474" type="curve" smooth="yes"/>
      <point x="325" y="1474"/>
      <point x="86" y="1313"/>
      <point x="86" y="984" type="curve" smooth="yes"/>
      <point x="86" y="718"/>
      <point x="280" y="506"/>
      <point x="544" y="506" type="curve" smooth="yes"/>
      <point x="599" y="506"/>
      <point x="622" y="510"/>
      <point x="634" y="516" type="curve"/>
      <point x="332" y="-19" type="line"/>
    </contour>
    <contour>
      <point x="842" y="799"/>
      <point x="708" y="701"/>
      <point x="578" y="701" type="curve" smooth="yes"/>
      <point x="444" y="701"/>
      <point x="310" y="802"/>
      <point x="310" y="998" type="curve" smooth="yes"/>
      <point x="310" y="1180"/>
      <point x="442" y="1271"/>
      <point x="574" y="1271" type="curve" smooth="yes"/>
      <point x="707" y="1271"/>
      <point x="842" y="1178"/>
      <point x="842" y="996" type="curve" smooth="yes"/>
    </contour>
  </outline>
</glyph>
<glyph name="colon" format="1">
  <advance width="437"/>
  <unicode hex="003A"/>
  <outline>
    <contour>
      <point x="99" y="-20" type="line"/>
      <point x="339" y="-20" type="line"/>
      <point x="339" y="227" type="line"/>
      <point x="99" y="227" type="line"/>
    </contour>
    <contour>
      <point x="99" y="980" type="line"/>
      <point x="339" y="980" type="line"/>
      <point x="339" y="1227" type="line"/>
      <point x="99" y="1227" type="line"/>
    </contour>
  </outline>
</glyph>
<glyph name="semicolon" format="1">
  <advance width="414"/>
  <unicode hex="003B"/>
  <outline>
    <contour>
      <point x="43" y="-451" type="line"/>
      <point x="188" y="-451" type="line"/>
      <point x="368" y="93" type="line"/>
      <point x="161" y="93" type="line"/>
    </contour>
    <contour>
      <point x="109" y="837" type="line"/>
      <point x="349" y="837" type="line"/>
      <point x="349" y="1084" type="line"/>
      <point x="161" y="1084" type="line"/>
    </contour>
  </outline>
</glyph>
<glyph name="less" format="1">
  <advance width="1038"/>
  <unicode hex="003C"/>
  <outline>
    <contour>
      <point x="986" y="84" type="line"/>
      <point x="986" y="236" type="line"/>
      <point x="251" y="586" type="line"/>
      <point x="990" y="947" type="line"/>
      <point x="990" y="1098" type="line"/>
      <point x="46" y="629" type="line"/>
      <point x="46" y="542" type="line"/>
    </contour>
  </outline>
</glyph>
<glyph name="equal" format="1">
  <advance width="1178"/>
  <unicode hex="003D"/>
  <outline>
    <contour>
      <point x="100" y="499" type="line"/>
      <point x="1081" y="499" type="line"/>
      <point x="1081" y="635" type="line"/>
      <point x="100" y="635" type="line"/>
    </contour>
    <contour>
      <point x="99" y="902" type="line"/>
      <point x="1081" y="902" type="line"/>
      <point x="1081" y="1041" type="line"/>
      <point x="99" y="1041" type="line"/>
    </contour>
  </outline>
</glyph>
<glyph name="greater" format="1">
  <advance width="1041"/>
  <unicode hex="003E"/>
  <outline>
    <contour>
      <point x="51" y="102" type="line"/>
      <point x="998" y="547" type="line"/>
      <point x="998" y="636" type="line"/>
      <point x="57" y="1118" type="line"/>
      <point x="57" y="966" type="line"/>
      <point x="790" y="597" type="line"/>
      <point x="51" y="255" type="line"/>
    </contour>
  </outline>
</glyph>
<glyph name="question" format="1">
  <advance width="1710"/>
  <unicode hex="003F"/>
  <outline>
    <contour>
      <point x="465" y="393"/>
      <point x="464" y="380"/>
      <point x="465" y="366" type="curve"/>
      <point x="572" y="366" type="line"/>
      <point x="572" y="738"/>
      <point x="983" y="771"/>
      <point x="983" y="1127" type="curve" smooth="yes"/>
      <point x="983" y="1367"/>
      <point x="810" y="1471"/>
      <point x="603" y="1471" type="curve" smooth="yes"/>
      <point x="506" y="1471"/>
      <point x="400" y="1449"/>
      <point x="303" y="1406" type="curve"/>
      <point x="332" y="1241" type="line"/>
      <point x="402" y="1283"/>
      <point x="487" y="1310"/>
      <point x="565" y="1310" type="curve" smooth="yes"/>
      <point x="680" y="1310"/>
      <point x="777" y="1251"/>
      <point x="777" y="1100" type="curve" smooth="yes"/>
      <point x="777" y="891"/>
      <point x="465" y="846"/>
      <point x="465" y="408" type="curve" smooth="yes"/>
    </contour>
    <contour>
      <point x="370" y="63"/>
      <point x="431" y="0"/>
      <point x="514" y="0" type="curve" smooth="yes"/>
      <point x="597" y="0"/>
      <point x="658" y="63"/>
      <point x="658" y="148" type="curve" smooth="yes"/>
      <point x="658" y="235"/>
      <point x="597" y="298"/>
      <point x="515" y="298" type="curve" smooth="yes"/>
      <point x="432" y="298"/>
      <point x="370" y="235"/>
      <point x="370" y="150" type="curve" smooth="yes"/>
    </contour>
  </outline>
</glyph>
<glyph name="at" format="1">
  <advance width="3138"/>
  <unicode hex="0040"/>
  <outline>
    <contour>
      <point x="132" y="86"/>
      <point x="527" y="-192"/>
      <point x="962" y="-192" type="curve" smooth="yes"/>
      <point x="1138" y="-192"/>
      <point x="1322" y="-146"/>
      <point x="1487" y="-51" type="curve"/>
      <point x="1401" y="88" type="line"/>
      <point x="1273" y="17"/>
      <point x="1131" y="-19"/>
      <point x="992" y="-19" type="curve" smooth="yes"/>
      <point x="662" y="-19"/>
      <point x="355" y="183"/>
      <point x="355" y="598" type="curve" smooth="yes"/>
      <point x="355" y="1012"/>
      <point x="671" y="1214"/>
      <point x="974" y="1214" type="curve" smooth="yes"/>
      <point x="1250" y="1214"/>
      <point x="1516" y="1044"/>
      <point x="1516" y="709" type="curve" smooth="yes"/>
      <point x="1516" y="416"/>
      <point x="1402" y="303"/>
      <point x="1319" y="303" type="curve" smooth="yes"/>
      <point x="1271" y="303"/>
      <point x="1234" y="340"/>
      <point x="1234" y="400" type="curve" smooth="yes"/>
      <point x="1234" y="417"/>
      <point x="1284" y="664"/>
      <point x="1360" y="1018" type="curve"/>
      <point x="1188" y="1018" type="line"/>
      <point x="1151" y="933" type="line"/>
      <point x="1087" y="1015"/>
      <point x="1009" y="1049"/>
      <point x="927" y="1049" type="curve" smooth="yes"/>
      <point x="720" y="1049"/>
      <point x="499" y="822"/>
      <point x="499" y="544" type="curve" smooth="yes"/>
      <point x="499" y="308"/>
      <point x="641" y="171"/>
      <point x="795" y="171" type="curve" smooth="yes"/>
      <point x="894" y="171"/>
      <point x="996" y="227"/>
      <point x="1070" y="348" type="curve"/>
      <point x="1071" y="224"/>
      <point x="1176" y="170"/>
      <point x="1282" y="170" type="curve" smooth="yes"/>
      <point x="1536" y="170"/>
      <point x="1705" y="383"/>
      <point x="1705" y="704" type="curve" smooth="yes"/>
      <point x="1705" y="1162"/>
      <point x="1348" y="1386"/>
      <point x="976" y="1386" type="curve" smooth="yes"/>
      <point x="564" y="1386"/>
      <point x="132" y="1156"/>
      <point x="132" y="593" type="curve" smooth="yes"/>
    </contour>
    <contour>
      <point x="1089" y="473"/>
      <point x="958" y="337"/>
      <point x="853" y="337" type="curve" smooth="yes"/>
      <point x="782" y="337"/>
      <point x="722" y="398"/>
      <point x="722" y="523" type="curve" smooth="yes"/>
      <point x="722" y="755"/>
      <point x="868" y="895"/>
      <point x="976" y="895" type="curve" smooth="yes"/>
      <point x="1038" y="895"/>
      <point x="1089" y="847"/>
      <point x="1089" y="740" type="curve" smooth="yes"/>
    </contour>
  </outline>
</glyph>
<glyph name="A" format="1">
  <advance width="1373"/>
  <unicode hex="0041"/>
  <outline>
    <contour>
      <point x="41" y="0" type="line"/>
      <point x="299" y="0" type="line"/>
      <point x="416" y="335" type="line"/>
      <point x="952" y="335" type="line"/>
      <point x="1065" y="0" type="line"/>
      <point x="1333" y="0" type="line"/>
      <point x="805" y="1448" type="line"/>
      <point x="576" y="1448" type="line"/>
    </contour>
    <contour>
      <point x="486" y="533" type="line"/>
      <point x="563" y="750" type="line"/>
      <point x="684" y="1121" type="line"/>
      <point x="810" y="750" type="line"/>
      <point x="883" y="533" type="line"/>
    </contour>
    <contour>
      <point x="687" y="0" type="line" smooth="yes"/>
    </contour>
    <contour>
      <point x="1253" y="10" type="line" smooth="yes"/>
    </contour>
    <contour>
      <point x="687" y="0" type="move" name="top"/>
    </contour>
    <contour>
      <point x="1236" y="10" type="move" name="ogonek"/>
    </contour>
  </outline>
</glyph>
<glyph name="B" format="1">
  <advance width="1299"/>
  <unicode hex="0042"/>
  <outline>
    <contour>
      <point x="145" y="0" type="line"/>
      <point x="668" y="0" type="line" smooth="yes"/>
      <point x="1057" y="0"/>
      <point x="1224" y="127"/>
      <point x="1224" y="420" type="curve" smooth="yes"/>
      <point x="1224" y="633"/>
      <point x="1139" y="740"/>
      <point x="939" y="775" type="curve"/>
      <point x="1098" y="823"/>
      <point x="1164" y="920"/>
      <point x="1164" y="1100" type="curve" smooth="yes"/>
      <point x="1164" y="1345"/>
      <point x="997" y="1448"/>
      <point x="606" y="1448" type="curve" smooth="yes"/>
      <point x="145" y="1448" type="line"/>
    </contour>
    <contour>
      <point x="388" y="201" type="line"/>
      <point x="388" y="657" type="line"/>
      <point x="647" y="657" type="line" smooth="yes"/>
      <point x="889" y="657"/>
      <point x="993" y="590"/>
      <point x="993" y="433" type="curve" smooth="yes"/>
      <point x="993" y="268"/>
      <point x="894" y="201"/>
      <point x="662" y="201" type="curve" smooth="yes"/>
    </contour>
    <contour>
      <point x="388" y="841" type="line"/>
      <point x="388" y="1248" type="line"/>
      <point x="606" y="1248" type="line" smooth="yes"/>
      <point x="835" y="1248"/>
      <point x="933" y="1195"/>
      <point x="933" y="1062" type="curve" smooth="yes"/>
      <point x="933" y="907"/>
      <point x="839" y="841"/>
      <point x="619" y="841" type="curve" smooth="yes"/>
    </contour>
  </outline>
</glyph>
<glyph name="C" format="1">
  <advance width="1310"/>
  <unicode hex="0043"/>
  <outline>
    <contour>
      <point x="90" y="274"/>
      <point x="379" y="-26"/>
      <point x="814" y="-26" type="curve" smooth="yes"/>
      <point x="979" y="-26"/>
      <point x="1160" y="33"/>
      <point x="1263" y="122" type="curve"/>
      <point x="1190" y="340" type="line"/>
      <point x="1097" y="261"/>
      <point x="949" y="209"/>
      <point x="823" y="209" type="curve" smooth="yes"/>
      <point x="537" y="209"/>
      <point x="346" y="414"/>
      <point x="346" y="719" type="curve" smooth="yes"/>
      <point x="346" y="1032"/>
      <point x="538" y="1240"/>
      <point x="824" y="1240" type="curve" smooth="yes"/>
      <point x="943" y="1240"/>
      <point x="1079" y="1189"/>
      <point x="1166" y="1114" type="curve"/>
      <point x="1250" y="1324" type="line"/>
      <point x="1144" y="1414"/>
      <point x="970" y="1474"/>
      <point x="815" y="1474" type="curve" smooth="yes"/>
      <point x="379" y="1474"/>
      <point x="90" y="1172"/>
      <point x="90" y="720" type="curve" smooth="yes"/>
    </contour>
    <contour>
      <point x="674" y="0" type="line" smooth="yes"/>
    </contour>
    <contour>
      <point x="674" y="0" type="line" smooth="yes"/>
    </contour>
    <contour>
      <point x="655" y="0" type="move" name="top"/>
    </contour>
    <contour>
      <point x="655" y="0" type="move" name="bottom"/>
    </contour>
  </outline>
</glyph>
<glyph name="D" format="1">
  <advance width="1459"/>
  <unicode hex="0044"/>
  <outline>
    <contour>
      <point x="395" y="211" type="line"/>
      <point x="395" y="1238" type="line"/>
      <point x="547" y="1238" type="line" smooth="yes"/>
      <point x="947" y="1238"/>
      <point x="1117" y="1088"/>
      <point x="1117" y="735" type="curve" smooth="yes"/>
      <point x="1117" y="368"/>
      <point x="957" y="211"/>
      <point x="585" y="211" type="curve" smooth="yes"/>
    </contour>
    <contour>
      <point x="145" y="0" type="line"/>
      <point x="570" y="0" type="line" smooth="yes"/>
      <point x="1130" y="0"/>
      <point x="1370" y="221"/>
      <point x="1370" y="738" type="curve" smooth="yes"/>
      <point x="1370" y="1236"/>
      <point x="1114" y="1448"/>
      <point x="515" y="1448" type="curve" smooth="yes"/>
      <point x="145" y="1448" type="line"/>
    </contour>
    <contour>
      <point x="752" y="0" type="line" smooth="yes"/>
    </contour>
    <contour>
      <point x="752" y="0" type="line" smooth="yes"/>
    </contour>
    <contour>
      <point x="730" y="0" type="move" name="top"/>
    </contour>
    <contour>
      <point x="730" y="0" type="move" name="center"/>
    </contour>
  </outline>
</glyph>
<glyph name="E" format="1">
  <advance width="1118"/>
  <unicode hex="0045"/>
  <outline>
    <contour>
      <point x="145" y="0" type="line"/>
      <point x="1046" y="0" type="line"/>
      <point x="1046" y="211" type="line"/>
      <point x="388" y="211" type="line"/>
      <point x="388" y="642" type="line"/>
      <point x="962" y="642" type="line"/>
      <point x="962" y="838" type="line"/>
      <point x="388" y="838" type="line"/>
      <point x="388" y="1238" type="line"/>
      <point x="999" y="1238" type="line"/>
      <point x="999" y="1448" type="line"/>
      <point x="145" y="1448" type="line"/>
    </contour>
    <contour>
      <point x="590" y="0" type="line" smooth="yes"/>
    </contour>
    <contour>
      <point x="590" y="0" type="line" smooth="yes"/>
    </contour>
    <contour>
      <point x="1022" y="10" type="line" smooth="yes"/>
    </contour>
    <contour>
      <point x="559" y="0" type="move" name="top"/>
    </contour>
    <contour>
      <point x="559" y="0" type="move" name="bottom"/>
    </contour>
    <contour>
      <point x="1006" y="10" type="move" name="ogonek"/>
    </contour>
  </outline>
</glyph>
<glyph name="F" format="1">
  <advance width="1059"/>
  <unicode hex="0046"/>
  <outline>
    <contour>
      <point x="145" y="0" type="line"/>
      <point x="388" y="0" type="line"/>
      <point x="388" y="664" type="line"/>
      <point x="950" y="664" type="line"/>
      <point x="950" y="861" type="line"/>
      <point x="388" y="861" type="line"/>
      <point x="388" y="1238" type="line"/>
      <point x="980" y="1238" type="line"/>
      <point x="980" y="1448" type="line"/>
      <point x="145" y="1448" type="line"/>
    </contour>
  </outline>
</glyph>
<glyph name="G" format="1">
  <advance width="1450"/>
  <unicode hex="0047"/>
  <outline>
    <contour>
      <point x="90" y="256"/>
      <point x="387" y="-26"/>
      <point x="833" y="-26" type="curve" smooth="yes"/>
      <point x="1009" y="-26"/>
      <point x="1207" y="12"/>
      <point x="1331" y="74" type="curve"/>
      <point x="1331" y="773" type="line"/>
      <point x="804" y="773" type="line"/>
      <point x="804" y="595" type="line"/>
      <point x="1117" y="595" type="line"/>
      <point x="1117" y="238" type="line"/>
      <point x="1051" y="209"/>
      <point x="944" y="191"/>
      <point x="845" y="191" type="curve" smooth="yes"/>
      <point x="547" y="191"/>
      <point x="347" y="391"/>
      <point x="347" y="701" type="curve" smooth="yes"/>
      <point x="347" y="1033"/>
      <point x="558" y="1256"/>
      <point x="875" y="1256" type="curve" smooth="yes"/>
      <point x="987" y="1256"/>
      <point x="1132" y="1214"/>
      <point x="1241" y="1153" type="curve"/>
      <point x="1318" y="1338" type="line"/>
      <point x="1193" y="1420"/>
      <point x="1005" y="1474"/>
      <point x="849" y="1474" type="curve" smooth="yes"/>
      <point x="394" y="1474"/>
      <point x="90" y="1159"/>
      <point x="90" y="687" type="curve" smooth="yes"/>
    </contour>
    <contour>
      <point x="714" y="0" type="line" smooth="yes"/>
    </contour>
    <contour>
      <point x="714" y="0" type="line" smooth="yes"/>
    </contour>
    <contour>
      <point x="725" y="0" type="move" name="top"/>
    </contour>
    <contour>
      <point x="725" y="0" type="move" name="bottom"/>
    </contour>
  </outline>
</glyph>
<glyph name="H" format="1">
  <advance width="1464"/>
  <unicode hex="0048"/>
  <outline>
    <contour>
      <point x="145" y="0" type="line"/>
      <point x="388" y="0" type="line"/>
      <point x="388" y="635" type="line"/>
      <point x="1086" y="635" type="line"/>
      <point x="1086" y="0" type="line"/>
      <point x="1320" y="0" type="line"/>
      <point x="1320" y="1448" type="line"/>
      <point x="1086" y="1448" type="line"/>
      <point x="1086" y="850" type="line"/>
      <point x="388" y="850" type="line"/>
      <point x="388" y="1448" type="line"/>
      <point x="145" y="1448" type="line"/>
    </contour>
    <contour>
      <point x="733" y="0" type="line" smooth="yes"/>
    </contour>
    <contour>
      <point x="733" y="0" type="line" smooth="yes"/>
    </contour>
    <contour>
      <point x="732" y="0" type="move" name="top"/>
    </contour>
    <contour>
      <point x="732" y="0" type="move" name="center"/>
    </contour>
  </outline>
</glyph>
<glyph name="I" format="1">
  <advance width="533"/>
  <unicode hex="0049"/>
  <outline>
    <contour>
      <point x="145" y="0" type="line"/>
      <point x="388" y="0" type="line"/>
      <point x="388" y="1448" type="line"/>
      <point x="145" y="1448" type="line"/>
    </contour>
    <contour>
      <point x="268" y="0" type="line" smooth="yes"/>
    </contour>
    <contour>
      <point x="443" y="10" type="line" smooth="yes"/>
    </contour>
    <contour>
      <point x="267" y="0" type="move" name="top"/>
    </contour>
    <contour>
      <point x="480" y="10" type="move" name="ogonek"/>
    </contour>
  </outline>
</glyph>
<glyph name="J" format="1">
  <advance width="1049"/>
  <unicode hex="004A"/>
  <outline>
    <contour>
      <point x="34" y="-114" type="line"/>
      <point x="133" y="-178"/>
      <point x="241" y="-212"/>
      <point x="344" y="-212" type="curve" smooth="yes"/>
      <point x="566" y="-212"/>
      <point x="759" y="-55"/>
      <point x="759" y="293" type="curve" smooth="yes"/>
      <point x="759" y="1238" type="line"/>
      <point x="1012" y="1238" type="line"/>
      <point x="1012" y="1448" type="line"/>
      <point x="157" y="1448" type="line"/>
      <point x="157" y="1238" type="line"/>
      <point x="514" y="1238" type="line"/>
      <point x="514" y="292" type="line" smooth="yes"/>
      <point x="514" y="109"/>
      <point x="443" y="22"/>
      <point x="322" y="22" type="curve" smooth="yes"/>
      <point x="261" y="22"/>
      <point x="186" y="45"/>
      <point x="102" y="90" type="curve"/>
    </contour>
    <contour>
      <point x="528" y="0" type="line" smooth="yes"/>
    </contour>
    <contour>
      <point x="525" y="0" type="move" name="top"/>
    </contour>
  </outline>
</glyph>
<glyph name="K" format="1">
  <advance width="1210"/>
  <unicode hex="004B"/>
  <outline>
    <contour>
      <point x="145" y="0" type="line"/>
      <point x="388" y="0" type="line"/>
      <point x="388" y="681" type="line"/>
      <point x="920" y="0" type="line"/>
      <point x="1232" y="0" type="line"/>
      <point x="626" y="773" type="line"/>
      <point x="1200" y="1448" type="line"/>
      <point x="906" y="1448" type="line"/>
      <point x="388" y="822" type="line"/>
      <point x="388" y="1448" type="line"/>
      <point x="145" y="1448" type="line"/>
    </contour>
    <contour>
      <point x="669" y="0" type="line" smooth="yes"/>
    </contour>
    <contour>
      <point x="669" y="0" type="line" smooth="yes"/>
    </contour>
    <contour>
      <point x="605" y="0" type="move" name="top"/>
    </contour>
    <contour>
      <point x="605" y="0" type="move" name="bottom"/>
    </contour>
  </outline>
</glyph>
<glyph name="L" format="1">
  <advance width="1010"/>
  <unicode hex="004C"/>
  <outline>
    <contour>
      <point x="145" y="0" type="line"/>
      <point x="996" y="0" type="line"/>
      <point x="996" y="211" type="line"/>
      <point x="388" y="211" type="line"/>
      <point x="388" y="1448" type="line"/>
      <point x="145" y="1448" type="line"/>
    </contour>
    <contour>
      <point x="566" y="0" type="line" smooth="yes"/>
    </contour>
    <contour>
      <point x="566" y="0" type="line" smooth="yes"/>
    </contour>
    <contour>
      <point x="505" y="0" type="move" name="top"/>
    </contour>
    <contour>
      <point x="505" y="0" type="move" name="bottom"/>
    </contour>
  </outline>
</glyph>
<glyph name="M" format="1">
  <advance width="1815"/>
  <unicode hex="004D"/>
  <outline>
    <contour>
      <point x="145" y="0" type="line"/>
      <point x="389" y="0" type="line"/>
      <point x="389" y="1094" type="line"/>
      <point x="489" y="875" type="line"/>
      <point x="853" y="229" type="line"/>
      <point x="970" y="229" type="line"/>
      <point x="1336" y="863" type="line"/>
      <point x="1437" y="1077" type="line"/>
      <point x="1437" y="0" type="line"/>
      <point x="1672" y="0" type="line"/>
      <point x="1672" y="1448" type="line"/>
      <point x="1394" y="1448" type="line"/>
      <point x="993" y="735" type="line"/>
      <point x="913" y="569" type="line"/>
      <point x="833" y="733" type="line"/>
      <point x="435" y="1448" type="line"/>
      <point x="145" y="1448" type="line"/>
    </contour>
  </outline>
</glyph>
<glyph name="N" format="1">
  <advance width="1527"/>
  <unicode hex="004E"/>
  <outline>
    <contour>
      <point x="145" y="0" type="line"/>
      <point x="363" y="0" type="line"/>
      <point x="363" y="1111" type="line"/>
      <point x="476" y="949" type="line"/>
      <point x="1131" y="0" type="line"/>
      <point x="1383" y="0" type="line"/>
      <point x="1383" y="1448" type="line"/>
      <point x="1165" y="1448" type="line"/>
      <point x="1165" y="313" type="line"/>
      <point x="1047" y="500" type="line"/>
      <point x="394" y="1448" type="line"/>
      <point x="145" y="1448" type="line"/>
    </contour>
    <contour>
      <point x="764" y="0" type="line" smooth="yes"/>
    </contour>
    <contour>
      <point x="764" y="0" type="line" smooth="yes"/>
    </contour>
    <contour>
      <point x="764" y="0" type="move" name="top"/>
    </contour>
    <contour>
      <point x="764" y="0" type="move" name="bottom"/>
    </contour>
  </outline>
</glyph>
<glyph name="O" format="1">
  <advance width="1556"/>
  <unicode hex="004F"/>
  <outline>
    <contour>
      <point x="1210" y="408"/>
      <point x="1037" y="192"/>
      <point x="778" y="192" type="curve" smooth="yes"/>
      <point x="519" y="192"/>
      <point x="347" y="408"/>
      <point x="347" y="724" type="curve" smooth="yes"/>
      <point x="347" y="1046"/>
      <point x="519" y="1256"/>
      <point x="778" y="1256" type="curve" smooth="yes"/>
      <point x="1037" y="1256"/>
      <point x="1210" y="1046"/>
      <point x="1210" y="724" type="curve" smooth="yes"/>
    </contour>
    <contour>
      <point x="90" y="276"/>
      <point x="365" y="-26"/>
      <point x="778" y="-26" type="curve" smooth="yes"/>
      <point x="1191" y="-26"/>
      <point x="1467" y="276"/>
      <point x="1467" y="726" type="curve" smooth="yes"/>
      <point x="1467" y="1178"/>
      <point x="1191" y="1474"/>
      <point x="778" y="1474" type="curve" smooth="yes"/>
      <point x="365" y="1474"/>
      <point x="90" y="1178"/>
      <point x="90" y="726" type="curve" smooth="yes"/>
    </contour>
    <contour>
      <point x="779" y="0" type="line" smooth="yes"/>
    </contour>
    <contour>
      <point x="778" y="0" type="move" name="top"/>
    </contour>
  </outline>
</glyph>
<glyph name="P" format="1">
  <advance width="1230"/>
  <unicode hex="0050"/>
  <outline>
    <contour>
      <point x="145" y="0" type="line"/>
      <point x="395" y="0" type="line"/>
      <point x="395" y="534" type="line"/>
      <point x="1001" y="534"/>
      <point x="1175" y="675"/>
      <point x="1175" y="1003" type="curve" smooth="yes"/>
      <point x="1175" y="1316"/>
      <point x="995" y="1448"/>
      <point x="573" y="1448" type="curve" smooth="yes"/>
      <point x="145" y="1448" type="line"/>
    </contour>
    <contour>
      <point x="923" y="815"/>
      <point x="830" y="737"/>
      <point x="395" y="737" type="curve"/>
      <point x="395" y="1251" type="line"/>
      <point x="596" y="1251" type="line" smooth="yes"/>
      <point x="824" y="1251"/>
      <point x="923" y="1178"/>
      <point x="923" y="1001" type="curve" smooth="yes"/>
    </contour>
  </outline>
</glyph>
<glyph name="Q" format="1">
  <advance width="1556"/>
  <unicode hex="0051"/>
  <outline>
    <contour>
      <point x="978" y="-180"/>
      <point x="1080" y="-309"/>
      <point x="1188" y="-425" type="curve"/>
      <point x="1358" y="-268" type="line"/>
      <point x="1267" y="-177"/>
      <point x="1184" y="-74"/>
      <point x="1125" y="55" type="curve"/>
      <point x="906" y="-18" type="line"/>
    </contour>
    <component base="O"/>
  </outline>
</glyph>
<glyph name="R" format="1">
  <advance width="1257"/>
  <unicode hex="0052"/>
  <outline>
    <contour>
      <point x="145" y="0" type="line"/>
      <point x="388" y="0" type="line"/>
      <point x="388" y="638" type="line"/>
      <point x="575" y="638" type="line" smooth="yes"/>
      <point x="691" y="638"/>
      <point x="761" y="571"/>
      <point x="809" y="417" type="curve"/>
      <point x="943" y="0" type="line"/>
      <point x="1203" y="0" type="line"/>
      <point x="1069" y="408" type="line" smooth="yes"/>
      <point x="1012" y="582"/>
      <point x="941" y="672"/>
      <point x="830" y="711" type="curve"/>
      <point x="1047" y="771"/>
      <point x="1140" y="878"/>
      <point x="1140" y="1069" type="curve" smooth="yes"/>
      <point x="1140" y="1335"/>
      <point x="974" y="1448"/>
      <point x="588" y="1448" type="curve" smooth="yes"/>
      <point x="145" y="1448" type="line"/>
    </contour>
    <contour>
      <point x="388" y="814" type="line"/>
      <point x="388" y="1251" type="line"/>
      <point x="610" y="1251" type="line" smooth="yes"/>
      <point x="815" y="1251"/>
      <point x="904" y="1214"/>
      <point x="904" y="1054" type="curve" smooth="yes"/>
      <point x="904" y="887"/>
      <point x="812" y="814"/>
      <point x="600" y="814" type="curve" smooth="yes"/>
    </contour>
    <contour>
      <point x="659" y="0" type="line" smooth="yes"/>
    </contour>
    <contour>
      <point x="659" y="0" type="line" smooth="yes"/>
    </contour>
    <contour>
      <point x="629" y="0" type="move" name="top"/>
    </contour>
    <contour>
      <point x="629" y="0" type="move" name="bottom"/>
    </contour>
  </outline>
</glyph>
<glyph name="S" format="1">
  <advance width="1093"/>
  <unicode hex="0053"/>
  <outline>
    <contour>
      <point x="204" y="33"/>
      <point x="404" y="-26"/>
      <point x="578" y="-26" type="curve" smooth="yes"/>
      <point x="895" y="-26"/>
      <point x="1036" y="164"/>
      <point x="1036" y="391" type="curve" smooth="yes"/>
      <point x="1036" y="594"/>
      <point x="978" y="731"/>
      <point x="600" y="839" type="curve" smooth="yes"/>
      <point x="338" y="914"/>
      <point x="290" y="981"/>
      <point x="290" y="1070" type="curve" smooth="yes"/>
      <point x="290" y="1184"/>
      <point x="364" y="1270"/>
      <point x="564" y="1270" type="curve" smooth="yes"/>
      <point x="677" y="1270"/>
      <point x="809" y="1238"/>
      <point x="928" y="1171" type="curve"/>
      <point x="989" y="1350" type="line"/>
      <point x="865" y="1431"/>
      <point x="704" y="1474"/>
      <point x="551" y="1474" type="curve" smooth="yes"/>
      <point x="195" y="1474"/>
      <point x="66" y="1270"/>
      <point x="66" y="1053" type="curve" smooth="yes"/>
      <point x="66" y="880"/>
      <point x="140" y="753"/>
      <point x="456" y="657" type="curve"/>
      <point x="793" y="552"/>
      <point x="819" y="496"/>
      <point x="819" y="395" type="curve" smooth="yes"/>
      <point x="819" y="259"/>
      <point x="716" y="186"/>
      <point x="561" y="186" type="curve" smooth="yes"/>
      <point x="437" y="186"/>
      <point x="276" y="233"/>
      <point x="110" y="331" type="curve"/>
      <point x="74" y="121" type="line"/>
    </contour>
    <contour>
      <point x="551" y="0" type="line" smooth="yes"/>
    </contour>
    <contour>
      <point x="551" y="0" type="line" smooth="yes"/>
    </contour>
    <contour>
      <point x="547" y="0" type="move" name="top"/>
    </contour>
    <contour>
      <point x="547" y="0" type="move" name="bottom"/>
    </contour>
  </outline>
</glyph>
<glyph name="T" format="1">
  <advance width="1134"/>
  <unicode hex="0054"/>
  <outline>
    <contour>
      <point x="446" y="0" type="line"/>
      <point x="689" y="0" type="line"/>
      <point x="689" y="1251" type="line"/>
      <point x="1091" y="1251" type="line"/>
      <point x="1091" y="1448" type="line"/>
      <point x="45" y="1448" type="line"/>
      <point x="45" y="1251" type="line"/>
      <point x="446" y="1251" type="line"/>
    </contour>
    <contour>
      <point x="568" y="0" type="line" smooth="yes"/>
    </contour>
    <contour>
      <point x="568" y="0" type="line" smooth="yes"/>
    </contour>
    <contour>
      <point x="568" y="0" type="line" smooth="yes"/>
    </contour>
    <contour>
      <point x="567" y="0" type="move" name="top"/>
    </contour>
    <contour>
      <point x="567" y="0" type="move" name="bottom"/>
    </contour>
    <contour>
      <point x="567" y="0" type="move" name="center"/>
    </contour>
  </outline>
</glyph>
<glyph name="U" format="1">
  <advance width="1423"/>
  <unicode hex="0055"/>
  <outline>
    <contour>
      <point x="122" y="200"/>
      <point x="361" y="-26"/>
      <point x="723" y="-26" type="curve" smooth="yes"/>
      <point x="1071" y="-26"/>
      <point x="1302" y="205"/>
      <point x="1302" y="550" type="curve" smooth="yes"/>
      <point x="1302" y="1448" type="line"/>
      <point x="1059" y="1448" type="line"/>
      <point x="1059" y="537" type="line" smooth="yes"/>
      <point x="1059" y="327"/>
      <point x="925" y="188"/>
      <point x="722" y="188" type="curve" smooth="yes"/>
      <point x="507" y="188"/>
      <point x="365" y="330"/>
      <point x="365" y="544" type="curve" smooth="yes"/>
      <point x="365" y="1448" type="line"/>
      <point x="122" y="1448" type="line"/>
      <point x="122" y="539" type="line" smooth="yes"/>
    </contour>
    <contour>
      <point x="712" y="0" type="line" smooth="yes"/>
    </contour>
    <contour>
      <point x="1262" y="10" type="line" smooth="yes"/>
    </contour>
    <contour>
      <point x="712" y="0" type="move" name="top"/>
    </contour>
    <contour>
      <point x="1281" y="10" type="move" name="ogonek"/>
    </contour>
  </outline>
</glyph>
<glyph name="V" format="1">
  <advance width="1365"/>
  <unicode hex="0056"/>
  <outline>
    <contour>
      <point x="555" y="0" type="line"/>
      <point x="816" y="0" type="line"/>
      <point x="1336" y="1448" type="line"/>
      <point x="1069" y="1448" type="line"/>
      <point x="788" y="629" type="line"/>
      <point x="687" y="323" type="line"/>
      <point x="578" y="630" type="line"/>
      <point x="289" y="1448" type="line"/>
      <point x="30" y="1448" type="line"/>
    </contour>
  </outline>
</glyph>
<glyph name="W" format="1">
  <advance width="2081"/>
  <unicode hex="0057"/>
  <outline>
    <contour>
      <point x="1410" y="0" type="line"/>
      <point x="1618" y="0" type="line"/>
      <point x="2042" y="1448" type="line"/>
      <point x="1808" y="1448" type="line"/>
      <point x="1580" y="614" type="line"/>
      <point x="1512" y="386" type="line"/>
      <point x="1436" y="610" type="line"/>
      <point x="1132" y="1448" type="line"/>
      <point x="963" y="1448" type="line"/>
      <point x="658" y="614" type="line"/>
      <point x="576" y="385" type="line"/>
      <point x="514" y="614" type="line"/>
      <point x="279" y="1448" type="line"/>
      <point x="39" y="1448" type="line"/>
      <point x="465" y="0" type="line"/>
      <point x="672" y="0" type="line"/>
      <point x="1043" y="1051" type="line"/>
    </contour>
    <contour>
      <point x="1042" y="0" type="line" smooth="yes"/>
    </contour>
    <contour>
      <point x="1041" y="0" type="move" name="top"/>
    </contour>
  </outline>
</glyph>
<glyph name="X" format="1">
  <advance width="1319"/>
  <unicode hex="0058"/>
  <outline>
    <contour>
      <point x="-2" y="0" type="line"/>
      <point x="256" y="0" type="line"/>
      <point x="661" y="561" type="line"/>
      <point x="1051" y="0" type="line"/>
      <point x="1305" y="0" type="line"/>
      <point x="813" y="717" type="line"/>
      <point x="1322" y="1448" type="line"/>
      <point x="1065" y="1448" type="line"/>
      <point x="685" y="905" type="line"/>
      <point x="312" y="1448" type="line"/>
      <point x="44" y="1448" type="line"/>
      <point x="531" y="748" type="line"/>
    </contour>
  </outline>
</glyph>
<glyph name="Y" format="1">
  <advance width="1196"/>
  <unicode hex="0059"/>
  <outline>
    <contour>
      <point x="463" y="0" type="line"/>
      <point x="716" y="0" type="line"/>
      <point x="716" y="582" type="line"/>
      <point x="1197" y="1448" type="line"/>
      <point x="953" y="1448" type="line"/>
      <point x="592" y="788" type="line"/>
      <point x="254" y="1448" type="line"/>
      <point x="0" y="1448" type="line"/>
      <point x="463" y="580" type="line"/>
    </contour>
    <contour>
      <point x="599" y="0" type="line" smooth="yes"/>
    </contour>
    <contour>
      <point x="598" y="0" type="move" name="top"/>
    </contour>
  </outline>
</glyph>
<glyph name="Z" format="1">
  <advance width="1200"/>
  <unicode hex="005A"/>
  <outline>
    <contour>
      <point x="86" y="0" type="line"/>
      <point x="1104" y="0" type="line"/>
      <point x="1104" y="211" type="line"/>
      <point x="368" y="211" type="line"/>
      <point x="1112" y="1268" type="line"/>
      <point x="1112" y="1448" type="line"/>
      <point x="116" y="1448" type="line"/>
      <point x="116" y="1238" type="line"/>
      <point x="833" y="1238" type="line"/>
      <point x="86" y="198" type="line"/>
    </contour>
    <contour>
      <point x="601" y="0" type="line" smooth="yes"/>
    </contour>
    <contour>
      <point x="600" y="0" type="move" name="top"/>
    </contour>
  </outline>
</glyph>
<glyph name="bracketleft" format="1">
  <advance width="1038"/>
  <unicode hex="005B"/>
  <outline>
    <contour>
      <point x="156" y="-456" type="line"/>
      <point x="580" y="-456" type="line"/>
      <point x="580" y="-327" type="line"/>
      <point x="400" y="-327" type="line"/>
      <point x="400" y="1116" type="line"/>
      <point x="580" y="1116" type="line"/>
      <point x="580" y="1246" type="line"/>
      <point x="156" y="1246" type="line"/>
    </contour>
  </outline>
</glyph>
<glyph name="backslash" format="1">
  <advance width="1169"/>
  <unicode hex="005C"/>
  <outline>
    <contour>
      <point x="462" y="-210" type="line"/>
      <point x="683" y="-210" type="line"/>
      <point x="107" y="1353" type="line"/>
      <point x="-116" y="1353" type="line"/>
    </contour>
  </outline>
</glyph>
<glyph name="bracketright" format="1">
  <advance width="1038"/>
  <unicode hex="005D"/>
  <outline>
    <contour>
      <point x="156" y="-456" type="line"/>
      <point x="580" y="-456" type="line"/>
      <point x="580" y="1246" type="line"/>
      <point x="157" y="1246" type="line"/>
      <point x="157" y="1116" type="line"/>
      <point x="338" y="1116" type="line"/>
      <point x="338" y="-327" type="line"/>
      <point x="156" y="-327" type="line"/>
    </contour>
  </outline>
</glyph>
<glyph name="asciicircum" format="1">
  <advance width="2413"/>
  <unicode hex="005E"/>
  <outline>
    <contour>
      <point x="305" y="968" type="line"/>
      <point x="452" y="968" type="line"/>
      <point x="801" y="1674" type="line"/>
      <point x="1163" y="968" type="line"/>
      <point x="1307" y="968" type="line"/>
      <point x="851" y="1846" type="line"/>
      <point x="756" y="1846" type="line"/>
    </contour>
  </outline>
</glyph>
<glyph name="underscore" format="1">
  <advance width="1651"/>
  <unicode hex="005F"/>
  <outline>
    <contour>
      <point x="-9" y="-481" type="line"/>
      <point x="930" y="-481" type="line"/>
      <point x="930" y="-353" type="line"/>
      <point x="-9" y="-353" type="line"/>
    </contour>
  </outline>
</glyph>
<glyph name="grave" format="1">
  <advance width="981"/>
  <unicode hex="0060"/>
  <outline>
    <contour>
      <point x="213" y="2064" type="line"/>
      <point x="390" y="2064" type="line"/>
      <point x="159" y="2382" type="line"/>
      <point x="-98" y="2382" type="line"/>
    </contour>
    <contour>
      <point x="146" y="0" type="line" smooth="yes"/>
    </contour>
    <contour>
      <point x="146" y="0" type="move" name="_top"/>
    </contour>
  </outline>
</glyph>
<glyph name="a" format="1">
  <advance width="1194"/>
  <unicode hex="0061"/>
  <outline>
    <contour>
      <point x="84" y="164"/>
      <point x="252" y="-22"/>
      <point x="499" y="-22" type="curve" smooth="yes"/>
      <point x="630" y="-22"/>
      <point x="763" y="55"/>
      <point x="814" y="160" type="curve"/>
      <point x="839" y="64"/>
      <point x="953" y="-4"/>
      <point x="1091" y="-4" type="curve"/>
      <point x="1164" y="198" type="line"/>
      <point x="1076" y="198"/>
      <point x="1006" y="255"/>
      <point x="1006" y="333" type="curve" smooth="yes"/>
      <point x="1006" y="906" type="line"/>
      <point x="916" y="963"/>
      <point x="760" y="1016"/>
      <point x="631" y="1016" type="curve" smooth="yes"/>
      <point x="311" y="1016"/>
      <point x="84" y="771"/>
      <point x="84" y="425" type="curve" smooth="yes"/>
    </contour>
    <contour>
      <point x="779" y="276"/>
      <point x="670" y="174"/>
      <point x="516" y="174" type="curve" smooth="yes"/>
      <point x="400" y="174"/>
      <point x="318" y="282"/>
      <point x="318" y="434" type="curve" smooth="yes"/>
      <point x="318" y="659"/>
      <point x="443" y="820"/>
      <point x="619" y="820" type="curve" smooth="yes"/>
      <point x="674" y="820"/>
      <point x="741" y="806"/>
      <point x="779" y="784" type="curve"/>
      <point x="779" y="419" type="line" smooth="yes"/>
    </contour>
    <contour>
      <point x="618" y="0" type="line" smooth="yes"/>
    </contour>
    <contour>
      <point x="1086" y="10" type="line" smooth="yes"/>
    </contour>
    <contour>
      <point x="597" y="0" type="move" name="top"/>
    </contour>
    <contour>
      <point x="1075" y="10" type="move" name="ogonek"/>
    </contour>
  </outline>
</glyph>
<glyph name="b" format="1">
  <advance width="1183"/>
  <unicode hex="0062"/>
  <outline>
    <contour>
      <point x="106" y="69"/>
      <point x="307" y="-22"/>
      <point x="605" y="-22" type="curve" smooth="yes"/>
      <point x="902" y="-22"/>
      <point x="1102" y="198"/>
      <point x="1102" y="528" type="curve" smooth="yes"/>
      <point x="1102" y="821"/>
      <point x="932" y="1016"/>
      <point x="678" y="1016" type="curve" smooth="yes"/>
      <point x="537" y="1016"/>
      <point x="397" y="947"/>
      <point x="334" y="844" type="curve"/>
      <point x="334" y="1550" type="line"/>
      <point x="105" y="1521" type="line"/>
      <point x="105" y="69" type="line"/>
    </contour>
    <contour>
      <point x="867" y="314"/>
      <point x="757" y="174"/>
      <point x="589" y="174" type="curve" smooth="yes"/>
      <point x="439" y="174"/>
      <point x="334" y="206"/>
      <point x="334" y="206" type="curve"/>
      <point x="334" y="607" type="line"/>
      <point x="404" y="734"/>
      <point x="525" y="820"/>
      <point x="632" y="820" type="curve" smooth="yes"/>
      <point x="773" y="820"/>
      <point x="867" y="699"/>
      <point x="867" y="524" type="curve" smooth="yes"/>
    </contour>
  </outline>
</glyph>
<glyph name="c" format="1">
  <advance width="1025"/>
  <unicode hex="0063"/>
  <outline>
    <contour>
      <point x="84" y="182"/>
      <point x="298" y="-22"/>
      <point x="618" y="-22" type="curve" smooth="yes"/>
      <point x="747" y="-22"/>
      <point x="891" y="29"/>
      <point x="980" y="104" type="curve"/>
      <point x="906" y="290" type="line"/>
      <point x="836" y="226"/>
      <point x="726" y="174"/>
      <point x="631" y="174" type="curve" smooth="yes"/>
      <point x="441" y="174"/>
      <point x="318" y="307"/>
      <point x="318" y="493" type="curve" smooth="yes"/>
      <point x="318" y="688"/>
      <point x="433" y="820"/>
      <point x="617" y="820" type="curve" smooth="yes"/>
      <point x="703" y="820"/>
      <point x="812" y="779"/>
      <point x="882" y="721" type="curve"/>
      <point x="950" y="894" type="line"/>
      <point x="860" y="966"/>
      <point x="722" y="1016"/>
      <point x="608" y="1016" type="curve" smooth="yes"/>
      <point x="293" y="1016"/>
      <point x="84" y="804"/>
      <point x="84" y="488" type="curve" smooth="yes"/>
    </contour>
    <contour>
      <point x="529" y="0" type="line" smooth="yes"/>
    </contour>
    <contour>
      <point x="529" y="0" type="line" smooth="yes"/>
    </contour>
    <contour>
      <point x="513" y="0" type="move" name="top"/>
    </contour>
    <contour>
      <point x="513" y="0" type="move" name="bottom"/>
    </contour>
  </outline>
</glyph>
<glyph name="d" format="1">
  <advance width="1184"/>
  <unicode hex="0064"/>
  <outline>
    <contour>
      <point x="84" y="182"/>
      <point x="270" y="-22"/>
      <point x="544" y="-22" type="curve" smooth="yes"/>
      <point x="687" y="-22"/>
      <point x="807" y="45"/>
      <point x="857" y="145" type="curve"/>
      <point x="867" y="101"/>
      <point x="892" y="39"/>
      <point x="924" y="-14" type="curve"/>
      <point x="1142" y="29" type="line"/>
      <point x="1098" y="96"/>
      <point x="1070" y="241"/>
      <point x="1070" y="389" type="curve" smooth="yes"/>
      <point x="1070" y="1544" type="line"/>
      <point x="841" y="1531" type="line"/>
      <point x="841" y="929" type="line"/>
      <point x="774" y="982"/>
      <point x="676" y="1016"/>
      <point x="580" y="1016" type="curve" smooth="yes"/>
      <point x="283" y="1016"/>
      <point x="84" y="805"/>
      <point x="84" y="486" type="curve" smooth="yes"/>
    </contour>
    <contour>
      <point x="841" y="313"/>
      <point x="727" y="174"/>
      <point x="564" y="174" type="curve" smooth="yes"/>
      <point x="417" y="174"/>
      <point x="318" y="301"/>
      <point x="318" y="492" type="curve" smooth="yes"/>
      <point x="318" y="689"/>
      <point x="431" y="820"/>
      <point x="598" y="820" type="curve" smooth="yes"/>
      <point x="696" y="820"/>
      <point x="796" y="778"/>
      <point x="841" y="714" type="curve"/>
      <point x="841" y="518" type="line" smooth="yes"/>
    </contour>
    <contour>
      <point x="605" y="0" type="line" smooth="yes"/>
    </contour>
    <contour>
      <point x="592" y="0" type="move" name="center"/>
    </contour>
  </outline>
</glyph>
<glyph name="e" format="1">
  <advance width="1062"/>
  <unicode hex="0065"/>
  <outline>
    <contour>
      <point x="84" y="143"/>
      <point x="332" y="-22"/>
      <point x="593" y="-22" type="curve" smooth="yes"/>
      <point x="746" y="-22"/>
      <point x="902" y="35"/>
      <point x="1016" y="142" type="curve"/>
      <point x="933" y="312" type="line"/>
      <point x="838" y="221"/>
      <point x="715" y="174"/>
      <point x="604" y="174" type="curve" smooth="yes"/>
      <point x="486" y="174"/>
      <point x="383" y="226"/>
      <point x="339" y="343" type="curve"/>
      <point x="720" y="402"/>
      <point x="932" y="502"/>
      <point x="932" y="729" type="curve" smooth="yes"/>
      <point x="932" y="901"/>
      <point x="806" y="1016"/>
      <point x="589" y="1016" type="curve" smooth="yes"/>
      <point x="304" y="1016"/>
      <point x="84" y="791"/>
      <point x="84" y="499" type="curve" smooth="yes"/>
    </contour>
    <contour>
      <point x="731" y="608"/>
      <point x="591" y="555"/>
      <point x="315" y="503" type="curve"/>
      <point x="315" y="527" type="line"/>
      <point x="320" y="709"/>
      <point x="440" y="837"/>
      <point x="590" y="837" type="curve" smooth="yes"/>
      <point x="671" y="837"/>
      <point x="731" y="797"/>
      <point x="731" y="722" type="curve" smooth="yes"/>
    </contour>
    <contour>
      <point x="548" y="0" type="line" smooth="yes"/>
    </contour>
    <contour>
      <point x="548" y="0" type="line" smooth="yes"/>
    </contour>
    <contour>
      <point x="959" y="10" type="line" smooth="yes"/>
    </contour>
    <contour>
      <point x="531" y="0" type="move" name="top"/>
    </contour>
    <contour>
      <point x="531" y="0" type="move" name="bottom"/>
    </contour>
    <contour>
      <point x="956" y="10" type="move" name="ogonek"/>
    </contour>
  </outline>
</glyph>
<glyph name="f" format="1">
  <advance width="711"/>
  <unicode hex="0066"/>
  <outline>
    <contour>
      <point x="82" y="-453" type="line"/>
      <point x="346" y="-417"/>
      <point x="460" y="-273"/>
      <point x="460" y="-11" type="curve" smooth="yes"/>
      <point x="460" y="844" type="line"/>
      <point x="660" y="844" type="line"/>
      <point x="660" y="996" type="line"/>
      <point x="460" y="996" type="line"/>
      <point x="460" y="1100" type="line" smooth="yes"/>
      <point x="460" y="1250"/>
      <point x="525" y="1302"/>
      <point x="623" y="1302" type="curve" smooth="yes"/>
      <point x="648" y="1302"/>
      <point x="677" y="1300"/>
      <point x="707" y="1291" type="curve"/>
      <point x="729" y="1455" type="line"/>
      <point x="679" y="1476"/>
      <point x="625" y="1488"/>
      <point x="570" y="1488" type="curve" smooth="yes"/>
      <point x="397" y="1488"/>
      <point x="231" y="1374"/>
      <point x="231" y="1135" type="curve" smooth="yes"/>
      <point x="231" y="996" type="line"/>
      <point x="47" y="996" type="line"/>
      <point x="47" y="844" type="line"/>
      <point x="231" y="844" type="line"/>
      <point x="231" y="-4" type="line" smooth="yes"/>
      <point x="231" y="-140"/>
      <point x="182" y="-212"/>
      <point x="63" y="-241" type="curve"/>
    </contour>
  </outline>
</glyph>
<glyph name="g" format="1">
  <advance width="1127"/>
  <unicode hex="0067"/>
  <outline>
    <contour>
      <point x="219" y="-511"/>
      <point x="360" y="-543"/>
      <point x="474" y="-543" type="curve" smooth="yes"/>
      <point x="792" y="-543"/>
      <point x="1004" y="-329"/>
      <point x="1004" y="-7" type="curve" smooth="yes"/>
      <point x="1004" y="906" type="line"/>
      <point x="914" y="963"/>
      <point x="757" y="1016"/>
      <point x="628" y="1016" type="curve" smooth="yes"/>
      <point x="308" y="1016"/>
      <point x="81" y="770"/>
      <point x="81" y="424" type="curve" smooth="yes"/>
      <point x="81" y="163"/>
      <point x="249" y="-22"/>
      <point x="496" y="-22" type="curve" smooth="yes"/>
      <point x="596" y="-22"/>
      <point x="697" y="23"/>
      <point x="762" y="90" type="curve"/>
      <point x="762" y="-15" type="line" smooth="yes"/>
      <point x="762" y="-202"/>
      <point x="631" y="-328"/>
      <point x="433" y="-328" type="curve" smooth="yes"/>
      <point x="350" y="-328"/>
      <point x="244" y="-300"/>
      <point x="168" y="-260" type="curve"/>
      <point x="123" y="-460" type="line"/>
    </contour>
    <contour>
      <point x="776" y="276"/>
      <point x="668" y="174"/>
      <point x="514" y="174" type="curve" smooth="yes"/>
      <point x="398" y="174"/>
      <point x="316" y="282"/>
      <point x="316" y="434" type="curve" smooth="yes"/>
      <point x="316" y="659"/>
      <point x="440" y="820"/>
      <point x="616" y="820" type="curve" smooth="yes"/>
      <point x="671" y="820"/>
      <point x="738" y="809"/>
      <point x="776" y="787" type="curve"/>
      <point x="776" y="419" type="line" smooth="yes"/>
    </contour>
    <contour>
      <point x="547" y="0" type="line" smooth="yes"/>
    </contour>
    <contour>
      <point x="564" y="0" type="move" name="top"/>
    </contour>
  </outline>
</glyph>
<glyph name="h" format="1">
  <advance width="1160"/>
  <unicode hex="0068"/>
  <outline>
    <contour>
      <point x="788" y="26"/>
      <point x="868" y="-90"/>
      <point x="1117" y="-38" type="curve"/>
      <point x="1141" y="154" type="line"/>
      <point x="1025" y="136"/>
      <point x="1016" y="195"/>
      <point x="1016" y="319" type="curve" smooth="yes"/>
      <point x="1016" y="572" type="line" smooth="yes"/>
      <point x="1016" y="839"/>
      <point x="883" y="1016"/>
      <point x="656" y="1016" type="curve" smooth="yes"/>
      <point x="561" y="1016"/>
      <point x="408" y="984"/>
      <point x="338" y="871" type="curve"/>
      <point x="355" y="561" type="line"/>
      <point x="355" y="750"/>
      <point x="506" y="804"/>
      <point x="609" y="804" type="curve" smooth="yes"/>
      <point x="723" y="804"/>
      <point x="788" y="716"/>
      <point x="788" y="549" type="curve" smooth="yes"/>
      <point x="788" y="225" type="line" smooth="yes"/>
    </contour>
    <contour>
      <point x="121" y="3" type="line"/>
      <point x="355" y="3" type="line"/>
      <point x="355" y="1546" type="line"/>
      <point x="121" y="1514" type="line"/>
    </contour>
    <contour>
      <point x="608" y="0" type="line" smooth="yes"/>
    </contour>
    <contour>
      <point x="608" y="0" type="line" smooth="yes"/>
    </contour>
    <contour>
      <point x="580" y="0" type="move" name="top"/>
    </contour>
    <contour>
      <point x="580" y="0" type="move" name="center"/>
    </contour>
  </outline>
</glyph>
<glyph name="i" format="1">
  <advance width="644"/>
  <unicode hex="0069"/>
  <outline>
    <contour>
      <point x="129" y="-22"/>
      <point x="430" y="-65"/>
      <point x="647" y="38" type="curve"/>
      <point x="617" y="222" type="line"/>
      <point x="485" y="173"/>
      <point x="359" y="163"/>
      <point x="359" y="339" type="curve" smooth="yes"/>
      <point x="359" y="1003" type="line"/>
      <point x="129" y="1003" type="line"/>
      <point x="129" y="277" type="line" smooth="yes"/>
    </contour>
    <contour>
      <point x="90" y="1239"/>
      <point x="155" y="1176"/>
      <point x="247" y="1176" type="curve" smooth="yes"/>
      <point x="340" y="1176"/>
      <point x="407" y="1239"/>
      <point x="407" y="1330" type="curve" smooth="yes"/>
      <point x="407" y="1421"/>
      <point x="340" y="1486"/>
      <point x="249" y="1486" type="curve" smooth="yes"/>
      <point x="155" y="1486"/>
      <point x="90" y="1423"/>
      <point x="90" y="1331" type="curve" smooth="yes"/>
    </contour>
  </outline>
</glyph>
<glyph name="j" format="1">
  <advance width="526"/>
  <unicode hex="006A"/>
  <outline>
    <contour>
      <point x="-28" y="-490"/>
      <point x="27" y="-498"/>
      <point x="79" y="-498" type="curve" smooth="yes"/>
      <point x="304" y="-498"/>
      <point x="416" y="-351"/>
      <point x="416" y="-48" type="curve" smooth="yes"/>
      <point x="416" y="996" type="line"/>
      <point x="187" y="996" type="line"/>
      <point x="187" y="-55" type="line" smooth="yes"/>
      <point x="187" y="-216"/>
      <point x="135" y="-294"/>
      <point x="39" y="-294" type="curve" smooth="yes"/>
      <point x="34" y="-294"/>
      <point x="0" y="-290"/>
      <point x="-60" y="-281" type="curve"/>
      <point x="-91" y="-475" type="line"/>
    </contour>
    <contour>
      <point x="132" y="1234"/>
      <point x="199" y="1169"/>
      <point x="290" y="1169" type="curve" smooth="yes"/>
      <point x="384" y="1169"/>
      <point x="450" y="1233"/>
      <point x="450" y="1323" type="curve" smooth="yes"/>
      <point x="450" y="1416"/>
      <point x="384" y="1481"/>
      <point x="292" y="1481" type="curve" smooth="yes"/>
      <point x="199" y="1481"/>
      <point x="132" y="1416"/>
      <point x="132" y="1324" type="curve" smooth="yes"/>
    </contour>
  </outline>
</glyph>
<glyph name="k" format="1">
  <advance width="1103"/>
  <unicode hex="006B"/>
  <outline>
    <contour>
      <point x="808" y="27"/>
      <point x="911" y="-35"/>
      <point x="1006" y="-35" type="curve"/>
      <point x="1115" y="159" type="line"/>
      <point x="997" y="162"/>
      <point x="947" y="211"/>
      <point x="857" y="321" type="curve" smooth="yes"/>
      <point x="694" y="519" type="line"/>
      <point x="981" y="919" type="line"/>
      <point x="791" y="1017" type="line"/>
      <point x="346" y="389" type="line"/>
      <point x="346" y="1533" type="line"/>
      <point x="119" y="1513" type="line"/>
      <point x="119" y="106" type="line" smooth="yes"/>
      <point x="119" y="-23"/>
      <point x="256" y="-64"/>
      <point x="332" y="39" type="curve" smooth="yes"/>
      <point x="553" y="339" type="line"/>
      <point x="704" y="154" type="line" smooth="yes"/>
    </contour>
    <contour>
      <point x="596" y="0" type="line" smooth="yes"/>
    </contour>
    <contour>
      <point x="552" y="0" type="move" name="bottom"/>
    </contour>
  </outline>
</glyph>
<glyph name="l" format="1">
  <advance width="683"/>
  <unicode hex="006C"/>
  <outline>
    <contour>
      <point x="651" y="218" type="line"/>
      <point x="607" y="203"/>
      <point x="535" y="191"/>
      <point x="493" y="191" type="curve" smooth="yes"/>
      <point x="403" y="191"/>
      <point x="348" y="241"/>
      <point x="348" y="353" type="curve" smooth="yes"/>
      <point x="348" y="1555" type="line"/>
      <point x="119" y="1526" type="line"/>
      <point x="119" y="301" type="line" smooth="yes"/>
      <point x="119" y="83"/>
      <point x="254" y="-11"/>
      <point x="442" y="-11" type="curve" smooth="yes"/>
      <point x="515" y="-11"/>
      <point x="592" y="4"/>
      <point x="674" y="28" type="curve"/>
    </contour>
    <contour>
      <point x="388" y="0" type="line" smooth="yes"/>
    </contour>
    <contour>
      <point x="388" y="0" type="line" smooth="yes"/>
    </contour>
    <contour>
      <point x="695" y="0" type="line" smooth="yes"/>
    </contour>
    <contour>
      <point x="342" y="0" type="move" name="top"/>
    </contour>
    <contour>
      <point x="342" y="0" type="move" name="bottom"/>
    </contour>
    <contour>
      <point x="663" y="0" type="move" name="topright"/>
    </contour>
  </outline>
</glyph>
<glyph name="m" format="1">
  <advance width="1777"/>
  <unicode hex="006D"/>
  <outline>
    <contour>
      <point x="1405" y="64"/>
      <point x="1485" y="-52"/>
      <point x="1735" y="0" type="curve"/>
      <point x="1757" y="192" type="line"/>
      <point x="1641" y="174"/>
      <point x="1634" y="233"/>
      <point x="1634" y="357" type="curve" smooth="yes"/>
      <point x="1634" y="572" type="line" smooth="yes"/>
      <point x="1634" y="839"/>
      <point x="1501" y="1016"/>
      <point x="1274" y="1016" type="curve" smooth="yes"/>
      <point x="1136" y="1016"/>
      <point x="998" y="933"/>
      <point x="921" y="830" type="curve"/>
      <point x="1006" y="600" type="line"/>
      <point x="1006" y="731"/>
      <point x="1138" y="804"/>
      <point x="1239" y="804" type="curve" smooth="yes"/>
      <point x="1352" y="804"/>
      <point x="1405" y="727"/>
      <point x="1405" y="554" type="curve" smooth="yes"/>
      <point x="1405" y="263" type="line" smooth="yes"/>
    </contour>
    <contour>
      <point x="778" y="0" type="line"/>
      <point x="1005" y="0" type="line"/>
      <point x="1005" y="602" type="line" smooth="yes"/>
      <point x="1005" y="869"/>
      <point x="864" y="1016"/>
      <point x="637" y="1016" type="curve" smooth="yes"/>
      <point x="536" y="1016"/>
      <point x="396" y="964"/>
      <point x="332" y="863" type="curve"/>
      <point x="370" y="606" type="line"/>
      <point x="370" y="736"/>
      <point x="497" y="804"/>
      <point x="607" y="804" type="curve" smooth="yes"/>
      <point x="711" y="804"/>
      <point x="778" y="732"/>
      <point x="778" y="549" type="curve" smooth="yes"/>
    </contour>
    <contour>
      <point x="136" y="0" type="line"/>
      <point x="370" y="0" type="line"/>
      <point x="370" y="712" type="line"/>
      <point x="332" y="863" type="line"/>
      <point x="324" y="913"/>
      <point x="294" y="966"/>
      <point x="268" y="993" type="curve"/>
      <point x="41" y="924" type="line"/>
      <point x="99" y="848"/>
      <point x="136" y="711"/>
      <point x="136" y="610" type="curve" smooth="yes"/>
    </contour>
  </outline>
</glyph>
<glyph name="n" format="1">
  <advance width="1156"/>
  <unicode hex="006E"/>
  <outline>
    <contour>
      <point x="785" y="64"/>
      <point x="864" y="-52"/>
      <point x="1114" y="0" type="curve"/>
      <point x="1137" y="192" type="line"/>
      <point x="1021" y="174"/>
      <point x="1012" y="233"/>
      <point x="1012" y="357" type="curve" smooth="yes"/>
      <point x="1012" y="572" type="line" smooth="yes"/>
      <point x="1012" y="839"/>
      <point x="887" y="1016"/>
      <point x="660" y="1016" type="curve" smooth="yes"/>
      <point x="559" y="1016"/>
      <point x="401" y="973"/>
      <point x="340" y="873" type="curve"/>
      <point x="370" y="606" type="line"/>
      <point x="370" y="736"/>
      <point x="503" y="804"/>
      <point x="613" y="804" type="curve" smooth="yes"/>
      <point x="717" y="804"/>
      <point x="785" y="732"/>
      <point x="785" y="549" type="curve" smooth="yes"/>
      <point x="785" y="263" type="line" smooth="yes"/>
    </contour>
    <contour>
      <point x="136" y="0" type="line"/>
      <point x="370" y="0" type="line"/>
      <point x="370" y="712" type="line"/>
      <point x="340" y="873" type="line" smooth="yes"/>
      <point x="331" y="918"/>
      <point x="295" y="969"/>
      <point x="268" y="993" type="curve"/>
      <point x="41" y="924" type="line"/>
      <point x="99" y="848"/>
      <point x="136" y="711"/>
      <point x="136" y="610" type="curve" smooth="yes"/>
    </contour>
    <contour>
      <point x="589" y="0" type="line" smooth="yes"/>
    </contour>
    <contour>
      <point x="589" y="0" type="line" smooth="yes"/>
    </contour>
    <contour>
      <point x="578" y="0" type="move" name="top"/>
    </contour>
    <contour>
      <point x="578" y="0" type="move" name="bottom"/>
    </contour>
  </outline>
</glyph>
<glyph name="o" format="1">
  <advance width="1169"/>
  <unicode hex="006F"/>
  <outline>
    <contour>
      <point x="850" y="303"/>
      <point x="744" y="174"/>
      <point x="585" y="174" type="curve" smooth="yes"/>
      <point x="425" y="174"/>
      <point x="318" y="303"/>
      <point x="318" y="496" type="curve" smooth="yes"/>
      <point x="318" y="689"/>
      <point x="424" y="820"/>
      <point x="583" y="820" type="curve" smooth="yes"/>
      <point x="743" y="820"/>
      <point x="850" y="689"/>
      <point x="850" y="496" type="curve" smooth="yes"/>
    </contour>
    <contour>
      <point x="84" y="185"/>
      <point x="284" y="-22"/>
      <point x="583" y="-22" type="curve" smooth="yes"/>
      <point x="884" y="-22"/>
      <point x="1085" y="186"/>
      <point x="1085" y="497" type="curve" smooth="yes"/>
      <point x="1085" y="810"/>
      <point x="882" y="1016"/>
      <point x="582" y="1016" type="curve" smooth="yes"/>
      <point x="283" y="1016"/>
      <point x="84" y="808"/>
      <point x="84" y="496" type="curve" smooth="yes"/>
    </contour>
    <contour>
      <point x="585" y="0" type="line" smooth="yes"/>
    </contour>
    <contour>
      <point x="585" y="0" type="move" name="top"/>
    </contour>
  </outline>
</glyph>
<glyph name="p" format="1">
  <advance width="1201"/>
  <unicode hex="0070"/>
  <outline>
    <contour>
      <point x="129" y="-496" type="line"/>
      <point x="364" y="-496" type="line"/>
      <point x="365" y="67" type="line"/>
      <point x="438" y="15"/>
      <point x="554" y="-22"/>
      <point x="648" y="-22" type="curve" smooth="yes"/>
      <point x="929" y="-22"/>
      <point x="1121" y="198"/>
      <point x="1121" y="509" type="curve" smooth="yes"/>
      <point x="1121" y="822"/>
      <point x="928" y="1016"/>
      <point x="664" y="1016" type="curve" smooth="yes"/>
      <point x="546" y="1016"/>
      <point x="410" y="951"/>
      <point x="346" y="824" type="curve"/>
      <point x="334" y="894"/>
      <point x="303" y="951"/>
      <point x="260" y="994" type="curve"/>
      <point x="34" y="926" type="line"/>
      <point x="70" y="875"/>
      <point x="129" y="810"/>
      <point x="129" y="610" type="curve" smooth="yes"/>
    </contour>
    <contour>
      <point x="887" y="309"/>
      <point x="781" y="174"/>
      <point x="616" y="174" type="curve" smooth="yes"/>
      <point x="509" y="174"/>
      <point x="404" y="218"/>
      <point x="364" y="282" type="curve"/>
      <point x="364" y="417" type="line" smooth="yes"/>
      <point x="364" y="651"/>
      <point x="474" y="820"/>
      <point x="640" y="820" type="curve" smooth="yes"/>
      <point x="797" y="820"/>
      <point x="887" y="695"/>
      <point x="887" y="503" type="curve" smooth="yes"/>
    </contour>
  </outline>
</glyph>
<glyph name="q" format="1">
  <advance width="1240"/>
  <unicode hex="0071"/>
  <outline>
    <contour>
      <point x="851" y="-574"/>
      <point x="924" y="-717"/>
      <point x="1081" y="-629" type="curve" smooth="yes"/>
      <point x="1423" y="-439" type="line"/>
      <point x="1335" y="-250" type="line"/>
      <point x="1085" y="-384" type="line"/>
      <point x="1085" y="610" type="line"/>
      <point x="1085" y="952" type="line"/>
      <point x="900" y="970" type="line"/>
      <point x="887" y="903" type="line"/>
      <point x="887" y="903"/>
      <point x="786" y="1016"/>
      <point x="565" y="1016" type="curve" smooth="yes"/>
      <point x="284" y="1016"/>
      <point x="84" y="795"/>
      <point x="84" y="485" type="curve" smooth="yes"/>
      <point x="84" y="171"/>
      <point x="279" y="-22"/>
      <point x="542" y="-22" type="curve" smooth="yes"/>
      <point x="635" y="-22"/>
      <point x="777" y="8"/>
      <point x="851" y="104" type="curve"/>
      <point x="851" y="-496" type="line" smooth="yes"/>
    </contour>
    <contour>
      <point x="851" y="277"/>
      <point x="732" y="175"/>
      <point x="566" y="175" type="curve" smooth="yes"/>
      <point x="409" y="175"/>
      <point x="318" y="299"/>
      <point x="318" y="491" type="curve" smooth="yes"/>
      <point x="318" y="685"/>
      <point x="434" y="820"/>
      <point x="599" y="820" type="curve" smooth="yes"/>
      <point x="706" y="820"/>
      <point x="811" y="776"/>
      <point x="851" y="712" type="curve"/>
      <point x="851" y="531" type="line" smooth="yes"/>
    </contour>
  </outline>
</glyph>
<glyph name="r" format="1">
  <advance width="783"/>
  <unicode hex="0072"/>
  <outline>
    <contour>
      <point x="136" y="0" type="line"/>
      <point x="370" y="0" type="line"/>
      <point x="370" y="525" type="line"/>
      <point x="348" y="816" type="line" smooth="yes"/>
      <point x="341" y="892"/>
      <point x="304" y="958"/>
      <point x="268" y="996" type="curve"/>
      <point x="41" y="926" type="line"/>
      <point x="77" y="877"/>
      <point x="136" y="810"/>
      <point x="136" y="611" type="curve" smooth="yes"/>
    </contour>
    <contour>
      <point x="367" y="525" type="line"/>
      <point x="367" y="623"/>
      <point x="435" y="790"/>
      <point x="623" y="790" type="curve" smooth="yes"/>
      <point x="656" y="790"/>
      <point x="692" y="785"/>
      <point x="733" y="774" type="curve"/>
      <point x="750" y="993" type="line"/>
      <point x="717" y="1002"/>
      <point x="684" y="1012"/>
      <point x="609" y="1012" type="curve" smooth="yes"/>
      <point x="507" y="1012"/>
      <point x="382" y="932"/>
      <point x="344" y="816" type="curve"/>
    </contour>
    <contour>
      <point x="397" y="0" type="line" smooth="yes"/>
    </contour>
    <contour>
      <point x="397" y="0" type="line" smooth="yes"/>
    </contour>
    <contour>
      <point x="392" y="0" type="move" name="top"/>
    </contour>
    <contour>
      <point x="392" y="0" type="move" name="bottom"/>
    </contour>
  </outline>
</glyph>
<glyph name="s" format="1">
  <advance width="857"/>
  <unicode hex="0073"/>
  <outline>
    <contour>
      <point x="162" y="26"/>
      <point x="313" y="-22"/>
      <point x="445" y="-22" type="curve" smooth="yes"/>
      <point x="683" y="-22"/>
      <point x="796" y="107"/>
      <point x="796" y="304" type="curve" smooth="yes"/>
      <point x="796" y="469"/>
      <point x="714" y="534"/>
      <point x="491" y="605" type="curve"/>
      <point x="352" y="648"/>
      <point x="302" y="679"/>
      <point x="302" y="737" type="curve" smooth="yes"/>
      <point x="302" y="799"/>
      <point x="342" y="832"/>
      <point x="435" y="832" type="curve" smooth="yes"/>
      <point x="517" y="832"/>
      <point x="623" y="805"/>
      <point x="711" y="759" type="curve"/>
      <point x="752" y="939" type="line"/>
      <point x="683" y="979"/>
      <point x="541" y="1016"/>
      <point x="423" y="1016" type="curve" smooth="yes"/>
      <point x="152" y="1016"/>
      <point x="84" y="846"/>
      <point x="84" y="718" type="curve" smooth="yes"/>
      <point x="84" y="574"/>
      <point x="149" y="493"/>
      <point x="365" y="421" type="curve"/>
      <point x="536" y="363"/>
      <point x="583" y="352"/>
      <point x="583" y="275" type="curve" smooth="yes"/>
      <point x="583" y="218"/>
      <point x="551" y="168"/>
      <point x="445" y="168" type="curve" smooth="yes"/>
      <point x="360" y="168"/>
      <point x="246" y="201"/>
      <point x="144" y="254" type="curve"/>
      <point x="95" y="79" type="line"/>
    </contour>
    <contour>
      <point x="431" y="0" type="line" smooth="yes"/>
    </contour>
    <contour>
      <point x="431" y="0" type="line" smooth="yes"/>
    </contour>
    <contour>
      <point x="429" y="0" type="move" name="top"/>
    </contour>
    <contour>
      <point x="429" y="0" type="move" name="bottom"/>
    </contour>
  </outline>
</glyph>
<glyph name="t" format="1">
  <advance width="860"/>
  <unicode hex="0074"/>
  <outline>
    <contour>
      <point x="230" y="76"/>
      <point x="394" y="-14"/>
      <point x="594" y="-14" type="curve" smooth="yes"/>
      <point x="670" y="-14"/>
      <point x="752" y="-1"/>
      <point x="832" y="23" type="curve"/>
      <point x="808" y="210" type="line"/>
      <point x="742" y="195"/>
      <point x="685" y="186"/>
      <point x="637" y="186" type="curve" smooth="yes"/>
      <point x="524" y="186"/>
      <point x="462" y="232"/>
      <point x="462" y="348" type="curve" smooth="yes"/>
      <point x="462" y="820" type="line"/>
      <point x="767" y="820" type="line"/>
      <point x="767" y="996" type="line"/>
      <point x="462" y="996" type="line"/>
      <point x="462" y="1338" type="line"/>
      <point x="230" y="1309" type="line"/>
      <point x="230" y="996" type="line"/>
      <point x="37" y="996" type="line"/>
      <point x="37" y="820" type="line"/>
      <point x="230" y="820" type="line"/>
      <point x="230" y="296" type="line" smooth="yes"/>
    </contour>
    <contour>
      <point x="401" y="0" type="line" smooth="yes"/>
    </contour>
    <contour>
      <point x="401" y="0" type="line" smooth="yes"/>
    </contour>
    <contour>
      <point x="430" y="0" type="move" name="center"/>
    </contour>
    <contour>
      <point x="430" y="0" type="move" name="bottom"/>
    </contour>
  </outline>
</glyph>
<glyph name="u" format="1">
  <advance width="1141"/>
  <unicode hex="0075"/>
  <outline>
    <contour>
      <point x="84" y="129"/>
      <point x="228" y="-22"/>
      <point x="450" y="-22" type="curve" smooth="yes"/>
      <point x="585" y="-22"/>
      <point x="715" y="50"/>
      <point x="778" y="158" type="curve"/>
      <point x="800" y="62"/>
      <point x="918" y="-4"/>
      <point x="1071" y="-4" type="curve"/>
      <point x="1104" y="211" type="line"/>
      <point x="1030" y="211"/>
      <point x="981" y="270"/>
      <point x="981" y="355" type="curve" smooth="yes"/>
      <point x="981" y="996" type="line"/>
      <point x="748" y="996" type="line"/>
      <point x="748" y="473" type="line" smooth="yes"/>
      <point x="748" y="291"/>
      <point x="638" y="170"/>
      <point x="473" y="170" type="curve" smooth="yes"/>
      <point x="379" y="170"/>
      <point x="321" y="255"/>
      <point x="324" y="381" type="curve" smooth="yes"/>
      <point x="329" y="577" type="line"/>
      <point x="338" y="884"/>
      <point x="294" y="996"/>
      <point x="294" y="996" type="curve"/>
      <point x="60" y="969" type="line"/>
      <point x="60" y="969"/>
      <point x="104" y="844"/>
      <point x="95" y="564" type="curve"/>
      <point x="91" y="354" type="line"/>
    </contour>
    <contour>
      <point x="580" y="0" type="line" smooth="yes"/>
    </contour>
    <contour>
      <point x="1034" y="10" type="line" smooth="yes"/>
    </contour>
    <contour>
      <point x="571" y="0" type="move" name="top"/>
    </contour>
    <contour>
      <point x="1027" y="10" type="move" name="ogonek"/>
    </contour>
  </outline>
</glyph>
<glyph name="v" format="1">
  <advance width="1009"/>
  <unicode hex="0076"/>
  <outline>
    <contour>
      <point x="417" y="0" type="line"/>
      <point x="608" y="0" type="line"/>
      <point x="1002" y="996" type="line"/>
      <point x="767" y="996" type="line"/>
      <point x="562" y="484" type="line" smooth="yes"/>
      <point x="550" y="456"/>
      <point x="539" y="424"/>
      <point x="510" y="325" type="curve"/>
      <point x="496" y="377"/>
      <point x="478" y="438"/>
      <point x="458" y="484" type="curve" smooth="yes"/>
      <point x="247" y="996" type="line"/>
      <point x="8" y="996" type="line"/>
    </contour>
  </outline>
</glyph>
<glyph name="w" format="1">
  <advance width="1561"/>
  <unicode hex="0077"/>
  <outline>
    <contour>
      <point x="384" y="0" type="line"/>
      <point x="575" y="0" type="line"/>
      <point x="784" y="612" type="line"/>
      <point x="1002" y="0" type="line"/>
      <point x="1193" y="0" type="line"/>
      <point x="1550" y="996" type="line"/>
      <point x="1317" y="996" type="line"/>
      <point x="1147" y="484" type="line"/>
      <point x="1096" y="325" type="line"/>
      <point x="1043" y="484" type="line"/>
      <point x="890" y="935" type="line" smooth="yes"/>
      <point x="866" y="1005"/>
      <point x="690" y="990"/>
      <point x="670" y="930" type="curve" smooth="yes"/>
      <point x="529" y="484" type="line"/>
      <point x="477" y="325" type="line"/>
      <point x="424" y="484" type="line"/>
      <point x="250" y="996" type="line"/>
      <point x="12" y="996" type="line"/>
    </contour>
    <contour>
      <point x="781" y="0" type="line" smooth="yes"/>
    </contour>
    <contour>
      <point x="781" y="0" type="move" name="top"/>
    </contour>
  </outline>
</glyph>
<glyph name="x" format="1">
  <advance width="1047"/>
  <unicode hex="0078"/>
  <outline>
    <contour>
      <point x="4" y="0" type="line"/>
      <point x="254" y="0" type="line"/>
      <point x="512" y="345" type="line"/>
      <point x="760" y="0" type="line"/>
      <point x="1045" y="0" type="line"/>
      <point x="678" y="504" type="line"/>
      <point x="1028" y="996" type="line"/>
      <point x="765" y="996" type="line"/>
      <point x="550" y="681" type="line"/>
      <point x="320" y="996" type="line"/>
      <point x="46" y="996" type="line"/>
      <point x="388" y="519" type="line"/>
    </contour>
  </outline>
</glyph>
<glyph name="y" format="1">
  <advance width="1081"/>
  <unicode hex="0079"/>
  <outline>
    <contour>
      <point x="226" y="-513"/>
      <point x="348" y="-542"/>
      <point x="467" y="-542" type="curve" smooth="yes"/>
      <point x="742" y="-542"/>
      <point x="985" y="-401"/>
      <point x="986" y="-6" type="curve" smooth="yes"/>
      <point x="987" y="355" type="line"/>
      <point x="986" y="355" type="line"/>
      <point x="986" y="996" type="line"/>
      <point x="753" y="996" type="line"/>
      <point x="753" y="473" type="line"/>
      <point x="756" y="291"/>
      <point x="643" y="170"/>
      <point x="478" y="170" type="curve" smooth="yes"/>
      <point x="386" y="170"/>
      <point x="325" y="255"/>
      <point x="329" y="381" type="curve"/>
      <point x="333" y="577" type="line"/>
      <point x="343" y="884"/>
      <point x="299" y="996"/>
      <point x="299" y="996" type="curve"/>
      <point x="66" y="969" type="line"/>
      <point x="66" y="969"/>
      <point x="111" y="844"/>
      <point x="101" y="564" type="curve"/>
      <point x="96" y="355" type="line" smooth="yes"/>
      <point x="90" y="130"/>
      <point x="233" y="-22"/>
      <point x="455" y="-22" type="curve" smooth="yes"/>
      <point x="573" y="-22"/>
      <point x="688" y="33"/>
      <point x="759" y="119" type="curve"/>
      <point x="756" y="-44" type="line"/>
      <point x="756" y="-283"/>
      <point x="601" y="-325"/>
      <point x="426" y="-325" type="curve" smooth="yes"/>
      <point x="337" y="-325"/>
      <point x="242" y="-303"/>
      <point x="160" y="-259" type="curve"/>
      <point x="117" y="-459" type="line"/>
    </contour>
    <contour>
      <point x="533" y="0" type="line" smooth="yes"/>
    </contour>
    <contour>
      <point x="541" y="0" type="move" name="top"/>
    </contour>
  </outline>
</glyph>
<glyph name="z" format="1">
  <advance width="933"/>
  <unicode hex="007A"/>
  <outline>
    <contour>
      <point x="82" y="0" type="line"/>
      <point x="850" y="0" type="line"/>
      <point x="850" y="185" type="line"/>
      <point x="363" y="185" type="line"/>
      <point x="835" y="843" type="line"/>
      <point x="835" y="996" type="line"/>
      <point x="107" y="996" type="line"/>
      <point x="107" y="825" type="line"/>
      <point x="561" y="825" type="line"/>
      <point x="82" y="155" type="line"/>
    </contour>
    <contour>
      <point x="467" y="0" type="line" smooth="yes"/>
    </contour>
    <contour>
      <point x="467" y="0" type="move" name="top"/>
    </contour>
  </outline>
</glyph>
<glyph name="braceleft" format="1">
  <advance width="1037"/>
  <unicode hex="007B"/>
  <outline>
    <contour>
      <point x="317" y="-367"/>
      <point x="467" y="-447"/>
      <point x="672" y="-456" type="curve"/>
      <point x="672" y="-308" type="line"/>
      <point x="638" y="-308"/>
      <point x="610" y="-304"/>
      <point x="587" y="-295" type="curve" smooth="yes"/>
      <point x="503" y="-264"/>
      <point x="493" y="-154"/>
      <point x="493" y="-27" type="curve" smooth="yes"/>
      <point x="493" y="50"/>
      <point x="494" y="155"/>
      <point x="494" y="230" type="curve" smooth="yes"/>
      <point x="494" y="383"/>
      <point x="446" y="496"/>
      <point x="344" y="547" type="curve"/>
      <point x="435" y="599"/>
      <point x="499" y="713"/>
      <point x="499" y="868" type="curve" smooth="yes"/>
      <point x="500" y="1207" type="line" smooth="yes"/>
      <point x="500" y="1343"/>
      <point x="549" y="1400"/>
      <point x="672" y="1404" type="curve"/>
      <point x="672" y="1552" type="line"/>
      <point x="434" y="1552"/>
      <point x="317" y="1440"/>
      <point x="317" y="1190" type="curve"/>
      <point x="318" y="1141"/>
      <point x="318" y="1090"/>
      <point x="318" y="1041" type="curve" smooth="yes"/>
      <point x="318" y="991"/>
      <point x="319" y="943"/>
      <point x="320" y="894" type="curve"/>
      <point x="320" y="739"/>
      <point x="274" y="631"/>
      <point x="142" y="618" type="curve"/>
      <point x="142" y="476" type="line"/>
      <point x="293" y="459"/>
      <point x="318" y="343"/>
      <point x="318" y="169" type="curve" smooth="yes"/>
      <point x="317" y="-138" type="line" smooth="yes"/>
    </contour>
  </outline>
</glyph>
<glyph name="bar" format="1">
  <advance width="827"/>
  <unicode hex="007C"/>
  <outline>
    <contour>
      <point x="278" y="-865" type="line"/>
      <point x="453" y="-865" type="line"/>
      <point x="453" y="1526" type="line"/>
      <point x="278" y="1526" type="line"/>
    </contour>
  </outline>
</glyph>
<glyph name="braceright" format="1">
  <advance width="1037"/>
  <unicode hex="007D"/>
  <outline>
    <contour>
      <point x="109" y="-456" type="line"/>
      <point x="314" y="-447"/>
      <point x="466" y="-367"/>
      <point x="466" y="-138" type="curve" smooth="yes"/>
      <point x="465" y="169" type="line" smooth="yes"/>
      <point x="465" y="206"/>
      <point x="464" y="240"/>
      <point x="467" y="275" type="curve" smooth="yes"/>
      <point x="474" y="395"/>
      <point x="527" y="464"/>
      <point x="639" y="476" type="curve"/>
      <point x="641" y="618" type="line"/>
      <point x="509" y="631"/>
      <point x="461" y="739"/>
      <point x="461" y="894" type="curve"/>
      <point x="463" y="943"/>
      <point x="465" y="991"/>
      <point x="465" y="1041" type="curve" smooth="yes"/>
      <point x="465" y="1090"/>
      <point x="465" y="1141"/>
      <point x="466" y="1190" type="curve"/>
      <point x="466" y="1440"/>
      <point x="346" y="1552"/>
      <point x="109" y="1552" type="curve"/>
      <point x="109" y="1404" type="line"/>
      <point x="233" y="1400"/>
      <point x="283" y="1343"/>
      <point x="283" y="1207" type="curve" smooth="yes"/>
      <point x="284" y="868" type="line" smooth="yes"/>
      <point x="284" y="712"/>
      <point x="344" y="599"/>
      <point x="438" y="547" type="curve"/>
      <point x="336" y="496"/>
      <point x="287" y="383"/>
      <point x="287" y="230" type="curve" smooth="yes"/>
      <point x="287" y="153"/>
      <point x="290" y="50"/>
      <point x="290" y="-27" type="curve" smooth="yes"/>
      <point x="290" y="-82"/>
      <point x="286" y="-127"/>
      <point x="280" y="-163" type="curve" smooth="yes"/>
      <point x="263" y="-264"/>
      <point x="220" y="-308"/>
      <point x="109" y="-308" type="curve"/>
    </contour>
  </outline>
</glyph>
<glyph name="asciitilde" format="1">
  <advance width="2414"/>
  <unicode hex="007E"/>
  <outline>
    <contour>
      <point x="440" y="678" type="line"/>
      <point x="464" y="784"/>
      <point x="528" y="896"/>
      <point x="650" y="896" type="curve" smooth="yes"/>
      <point x="673" y="896"/>
      <point x="699" y="891"/>
      <point x="727" y="882" type="curve" smooth="yes"/>
      <point x="822" y="850"/>
      <point x="913" y="797"/>
      <point x="1000" y="757" type="curve" smooth="yes"/>
      <point x="1046" y="735"/>
      <point x="1102" y="708"/>
      <point x="1160" y="708" type="curve" smooth="yes"/>
      <point x="1204" y="708"/>
      <point x="1245" y="715"/>
      <point x="1281" y="731" type="curve" smooth="yes"/>
      <point x="1394" y="782"/>
      <point x="1462" y="890"/>
      <point x="1493" y="1029" type="curve"/>
      <point x="1353" y="1075" type="line"/>
      <point x="1332" y="979"/>
      <point x="1272" y="866"/>
      <point x="1162" y="866" type="curve" smooth="yes"/>
      <point x="1144" y="866"/>
      <point x="1123" y="871"/>
      <point x="1099" y="880" type="curve" smooth="yes"/>
      <point x="1010" y="915"/>
      <point x="921" y="967"/>
      <point x="832" y="1005" type="curve"/>
      <point x="777" y="1027"/>
      <point x="714" y="1054"/>
      <point x="647" y="1054" type="curve" smooth="yes"/>
      <point x="600" y="1054"/>
      <point x="558" y="1046"/>
      <point x="521" y="1028" type="curve" smooth="yes"/>
      <point x="414" y="979"/>
      <point x="340" y="875"/>
      <point x="314" y="742" type="curve"/>
    </contour>
  </outline>
</glyph>
<glyph name="exclamdown" format="1">
  <advance width="1220"/>
  <unicode hex="00A1"/>
  <outline>
    <contour>
      <point x="431" y="-676" type="line"/>
      <point x="614" y="-676" type="line"/>
      <point x="614" y="589" type="line"/>
      <point x="431" y="589" type="line"/>
    </contour>
    <contour>
      <point x="431" y="813" type="line"/>
      <point x="668" y="813" type="line"/>
      <point x="668" y="1054" type="line"/>
      <point x="431" y="1054" type="line"/>
    </contour>
  </outline>
</glyph>
<glyph name="cent" format="1">
  <advance width="1969"/>
  <unicode hex="00A2"/>
  <outline>
    <contour>
      <point x="663" y="-414" type="line"/>
      <point x="788" y="-414" type="line"/>
      <point x="788" y="-162" type="line"/>
      <point x="896" y="-151"/>
      <point x="1012" y="-110"/>
      <point x="1130" y="-36" type="curve"/>
      <point x="1091" y="126" type="line"/>
      <point x="985" y="49"/>
      <point x="881" y="13"/>
      <point x="788" y="3" type="curve"/>
      <point x="788" y="927" type="line"/>
      <point x="893" y="916"/>
      <point x="972" y="874"/>
      <point x="1027" y="802" type="curve"/>
      <point x="1112" y="933" type="line"/>
      <point x="1046" y="1026"/>
      <point x="933" y="1081"/>
      <point x="788" y="1093" type="curve"/>
      <point x="788" y="1366" type="line"/>
      <point x="663" y="1366" type="line"/>
      <point x="663" y="1093" type="line"/>
      <point x="345" y="1064"/>
      <point x="156" y="807"/>
      <point x="156" y="452" type="curve" smooth="yes"/>
      <point x="156" y="112"/>
      <point x="369" y="-132"/>
      <point x="663" y="-162" type="curve"/>
    </contour>
    <contour>
      <point x="663" y="6" type="line"/>
      <point x="475" y="37"/>
      <point x="347" y="196"/>
      <point x="347" y="458" type="curve" smooth="yes"/>
      <point x="347" y="700"/>
      <point x="456" y="888"/>
      <point x="663" y="924" type="curve"/>
    </contour>
  </outline>
</glyph>
<glyph name="sterling" format="1">
  <advance width="1969"/>
  <unicode hex="00A3"/>
  <outline>
    <contour>
      <point x="190" y="0" type="line"/>
      <point x="1257" y="0" type="line"/>
      <point x="1257" y="166" type="line"/>
      <point x="471" y="166" type="line"/>
      <point x="489" y="181"/>
      <point x="505" y="200"/>
      <point x="517" y="228" type="curve" smooth="yes"/>
      <point x="577" y="359"/>
      <point x="579" y="558"/>
      <point x="579" y="752" type="curve" smooth="yes"/>
      <point x="579" y="810" type="line"/>
      <point x="945" y="810" type="line"/>
      <point x="945" y="977" type="line"/>
      <point x="577" y="977" type="line"/>
      <point x="575" y="1112" type="line"/>
      <point x="575" y="1357"/>
      <point x="647" y="1535"/>
      <point x="876" y="1535" type="curve" smooth="yes"/>
      <point x="999" y="1535"/>
      <point x="1101" y="1503"/>
      <point x="1178" y="1453" type="curve"/>
      <point x="1236" y="1594" type="line"/>
      <point x="1151" y="1665"/>
      <point x="1031" y="1700"/>
      <point x="872" y="1700" type="curve" smooth="yes"/>
      <point x="482" y="1700"/>
      <point x="388" y="1421"/>
      <point x="388" y="1010" type="curve" smooth="yes"/>
      <point x="388" y="999"/>
      <point x="388" y="988"/>
      <point x="390" y="977" type="curve"/>
      <point x="188" y="977" type="line"/>
      <point x="188" y="810" type="line"/>
      <point x="390" y="810" type="line"/>
      <point x="390" y="517" type="line" smooth="yes"/>
      <point x="390" y="319"/>
      <point x="303" y="234"/>
      <point x="188" y="163" type="curve"/>
    </contour>
  </outline>
</glyph>
<glyph name="currency" format="1">
  <advance width="2050"/>
  <unicode hex="00A4"/>
  <outline>
    <contour>
      <point x="232" y="343" type="line"/>
      <point x="411" y="540" type="line"/>
      <point x="486" y="475"/>
      <point x="581" y="436"/>
      <point x="684" y="436" type="curve" smooth="yes"/>
      <point x="794" y="436"/>
      <point x="895" y="479"/>
      <point x="971" y="550" type="curve"/>
      <point x="1157" y="361" type="line"/>
      <point x="1198" y="403" type="line"/>
      <point x="1012" y="593" type="line"/>
      <point x="1075" y="670"/>
      <point x="1113" y="769"/>
      <point x="1116" y="879" type="curve" smooth="yes"/>
      <point x="1119" y="998"/>
      <point x="1076" y="1108"/>
      <point x="1005" y="1191" type="curve"/>
      <point x="1182" y="1384" type="line"/>
      <point x="1137" y="1429" type="line"/>
      <point x="962" y="1236" type="line"/>
      <point x="889" y="1301"/>
      <point x="797" y="1342"/>
      <point x="695" y="1345" type="curve" smooth="yes"/>
      <point x="584" y="1348"/>
      <point x="478" y="1302"/>
      <point x="398" y="1226" type="curve"/>
      <point x="219" y="1410" type="line"/>
      <point x="176" y="1365" type="line"/>
      <point x="356" y="1180" type="line"/>
      <point x="292" y="1101"/>
      <point x="251" y="1000"/>
      <point x="251" y="891" type="curve" smooth="yes"/>
      <point x="251" y="772"/>
      <point x="295" y="662"/>
      <point x="368" y="581" type="curve"/>
      <point x="193" y="387" type="line"/>
    </contour>
    <contour>
      <point x="1009" y="680"/>
      <point x="868" y="526"/>
      <point x="681" y="526" type="curve" smooth="yes"/>
      <point x="495" y="526"/>
      <point x="350" y="688"/>
      <point x="350" y="888" type="curve" smooth="yes"/>
      <point x="350" y="1086"/>
      <point x="504" y="1252"/>
      <point x="691" y="1247" type="curve" smooth="yes"/>
      <point x="877" y="1243"/>
      <point x="1018" y="1077"/>
      <point x="1014" y="879" type="curve" smooth="yes"/>
    </contour>
  </outline>
</glyph>
<glyph name="yen" format="1">
  <advance width="1969"/>
  <unicode hex="00A5"/>
  <outline>
    <contour>
      <point x="575" y="0" type="line"/>
      <point x="765" y="0" type="line"/>
      <point x="765" y="333" type="line"/>
      <point x="1198" y="333" type="line"/>
      <point x="1198" y="496" type="line"/>
      <point x="762" y="496" type="line"/>
      <point x="762" y="674" type="line"/>
      <point x="1194" y="674" type="line"/>
      <point x="1194" y="840" type="line"/>
      <point x="792" y="840" type="line"/>
      <point x="1295" y="1668" type="line"/>
      <point x="1090" y="1668" type="line"/>
      <point x="954" y="1424"/>
      <point x="817" y="1177"/>
      <point x="678" y="935" type="curve"/>
      <point x="546" y="1183"/>
      <point x="405" y="1424"/>
      <point x="270" y="1668" type="curve"/>
      <point x="43" y="1668" type="line"/>
      <point x="534" y="840" type="line"/>
      <point x="128" y="840" type="line"/>
      <point x="128" y="674" type="line"/>
      <point x="573" y="674" type="line"/>
      <point x="573" y="496" type="line"/>
      <point x="123" y="496" type="line"/>
      <point x="134" y="333" type="line"/>
      <point x="575" y="333" type="line"/>
    </contour>
  </outline>
</glyph>
<glyph name="brokenbar" format="1">
  <advance width="827"/>
  <unicode hex="00A6"/>
  <outline>
    <contour>
      <point x="278" y="-865" type="line"/>
      <point x="453" y="-865" type="line"/>
      <point x="453" y="173" type="line"/>
      <point x="278" y="173" type="line"/>
    </contour>
    <contour>
      <point x="278" y="507" type="line"/>
      <point x="453" y="507" type="line"/>
      <point x="453" y="1526" type="line"/>
      <point x="278" y="1526" type="line"/>
    </contour>
  </outline>
</glyph>
<glyph name="section" format="1">
  <advance width="1816"/>
  <unicode hex="00A7"/>
  <outline>
    <contour>
      <point x="420" y="-59"/>
      <point x="521" y="-84"/>
      <point x="634" y="-84" type="curve" smooth="yes"/>
      <point x="759" y="-84"/>
      <point x="871" y="-49"/>
      <point x="948" y="7" type="curve"/>
      <point x="1021" y="61"/>
      <point x="1084" y="143"/>
      <point x="1084" y="267" type="curve" smooth="yes"/>
      <point x="1084" y="415"/>
      <point x="998" y="485"/>
      <point x="904" y="536" type="curve"/>
      <point x="996" y="595"/>
      <point x="1108" y="684"/>
      <point x="1108" y="837" type="curve" smooth="yes"/>
      <point x="1108" y="878"/>
      <point x="1099" y="916"/>
      <point x="1081" y="949" type="curve" smooth="yes"/>
      <point x="999" y="1096"/>
      <point x="806" y="1148"/>
      <point x="662" y="1231" type="curve" smooth="yes"/>
      <point x="598" y="1269"/>
      <point x="536" y="1311"/>
      <point x="536" y="1406" type="curve" smooth="yes"/>
      <point x="536" y="1532"/>
      <point x="653" y="1564"/>
      <point x="773" y="1564" type="curve" smooth="yes"/>
      <point x="866" y="1564"/>
      <point x="956" y="1536"/>
      <point x="1023" y="1503" type="curve"/>
      <point x="1021" y="1677" type="line"/>
      <point x="939" y="1704"/>
      <point x="870" y="1725"/>
      <point x="768" y="1725" type="curve" smooth="yes"/>
      <point x="546" y="1725"/>
      <point x="346" y="1635"/>
      <point x="346" y="1401" type="curve" smooth="yes"/>
      <point x="346" y="1251"/>
      <point x="421" y="1177"/>
      <point x="515" y="1117" type="curve"/>
      <point x="418" y="1065"/>
      <point x="307" y="980"/>
      <point x="307" y="828" type="curve" smooth="yes"/>
      <point x="307" y="790"/>
      <point x="313" y="755"/>
      <point x="325" y="723" type="curve" smooth="yes"/>
      <point x="367" y="614"/>
      <point x="463" y="552"/>
      <point x="567" y="505" type="curve" smooth="yes"/>
      <point x="661" y="463" type="line" smooth="yes"/>
      <point x="697" y="447"/>
      <point x="731" y="431"/>
      <point x="760" y="417" type="curve" smooth="yes"/>
      <point x="823" y="385"/>
      <point x="892" y="350"/>
      <point x="892" y="257" type="curve" smooth="yes"/>
      <point x="892" y="231"/>
      <point x="887" y="208"/>
      <point x="875" y="186" type="curve" smooth="yes"/>
      <point x="836" y="112"/>
      <point x="741" y="77"/>
      <point x="629" y="77" type="curve" smooth="yes"/>
      <point x="514" y="77"/>
      <point x="425" y="108"/>
      <point x="334" y="151" type="curve"/>
      <point x="337" y="-23" type="line"/>
    </contour>
    <contour>
      <point x="868" y="694"/>
      <point x="810" y="651"/>
      <point x="755" y="614" type="curve"/>
      <point x="718" y="630"/>
      <point x="683" y="646"/>
      <point x="652" y="661" type="curve" smooth="yes"/>
      <point x="581" y="695"/>
      <point x="502" y="739"/>
      <point x="502" y="842" type="curve" smooth="yes"/>
      <point x="502" y="948"/>
      <point x="582" y="1005"/>
      <point x="649" y="1043" type="curve"/>
      <point x="738" y="991"/>
      <point x="911" y="965"/>
      <point x="911" y="821" type="curve" smooth="yes"/>
      <point x="911" y="797"/>
      <point x="909" y="777"/>
      <point x="899" y="756" type="curve"/>
    </contour>
  </outline>
</glyph>
<glyph name="dieresis" format="1">
  <advance width="1229"/>
  <unicode hex="00A8"/>
  <outline>
    <contour>
      <point x="134" y="2084" type="line"/>
      <point x="382" y="2084" type="line"/>
      <point x="382" y="2345" type="line"/>
      <point x="134" y="2345" type="line"/>
    </contour>
    <contour>
      <point x="534" y="2084" type="line"/>
      <point x="782" y="2084" type="line"/>
      <point x="782" y="2345" type="line"/>
      <point x="534" y="2345" type="line"/>
    </contour>
    <contour>
      <point x="459" y="0" type="line" smooth="yes"/>
    </contour>
    <contour>
      <point x="458" y="0" type="move" name="_top"/>
    </contour>
  </outline>
</glyph>
<glyph name="copyright" format="1">
  <advance width="3030"/>
  <unicode hex="00A9"/>
  <outline>
    <contour>
      <point x="679" y="424"/>
      <point x="844" y="273"/>
      <point x="1095" y="273" type="curve" smooth="yes"/>
      <point x="1227" y="273"/>
      <point x="1342" y="308"/>
      <point x="1437" y="379" type="curve"/>
      <point x="1394" y="521" type="line"/>
      <point x="1327" y="463"/>
      <point x="1243" y="427"/>
      <point x="1131" y="427" type="curve" smooth="yes"/>
      <point x="1065" y="427"/>
      <point x="1007" y="439"/>
      <point x="957" y="460" type="curve" smooth="yes"/>
      <point x="824" y="518"/>
      <point x="734" y="646"/>
      <point x="734" y="842" type="curve" smooth="yes"/>
      <point x="734" y="898"/>
      <point x="743" y="951"/>
      <point x="760" y="1000" type="curve" smooth="yes"/>
      <point x="809" y="1142"/>
      <point x="922" y="1250"/>
      <point x="1100" y="1250" type="curve" smooth="yes"/>
      <point x="1219" y="1250"/>
      <point x="1317" y="1212"/>
      <point x="1398" y="1138" type="curve"/>
      <point x="1432" y="1279" type="line"/>
      <point x="1343" y="1360"/>
      <point x="1234" y="1399"/>
      <point x="1107" y="1399" type="curve" smooth="yes"/>
      <point x="1025" y="1399"/>
      <point x="952" y="1385"/>
      <point x="885" y="1357" type="curve" smooth="yes"/>
      <point x="701" y="1280"/>
      <point x="564" y="1107"/>
      <point x="564" y="837" type="curve" smooth="yes"/>
      <point x="564" y="759"/>
      <point x="579" y="685"/>
      <point x="605" y="617" type="curve" smooth="yes"/>
    </contour>
    <contour>
      <point x="580" y="59"/>
      <point x="788" y="-57"/>
      <point x="1066" y="-57" type="curve" smooth="yes"/>
      <point x="1340" y="-57"/>
      <point x="1545" y="59"/>
      <point x="1691" y="206" type="curve" smooth="yes"/>
      <point x="1832" y="348"/>
      <point x="1953" y="550"/>
      <point x="1953" y="832" type="curve" smooth="yes"/>
      <point x="1953" y="913"/>
      <point x="1942" y="991"/>
      <point x="1921" y="1066" type="curve" smooth="yes"/>
      <point x="1876" y="1225"/>
      <point x="1794" y="1355"/>
      <point x="1691" y="1458" type="curve" smooth="yes"/>
      <point x="1544" y="1605"/>
      <point x="1338" y="1723"/>
      <point x="1060" y="1723" type="curve" smooth="yes"/>
      <point x="786" y="1723"/>
      <point x="582" y="1607"/>
      <point x="434" y="1460" type="curve"/>
      <point x="293" y="1318"/>
      <point x="171" y="1116"/>
      <point x="171" y="833" type="curve" smooth="yes"/>
      <point x="171" y="752"/>
      <point x="181" y="674"/>
      <point x="202" y="599" type="curve" smooth="yes"/>
      <point x="247" y="441"/>
      <point x="328" y="309"/>
      <point x="432" y="206" type="curve" smooth="yes"/>
    </contour>
    <contour>
      <point x="1475" y="174"/>
      <point x="1294" y="81"/>
      <point x="1066" y="81" type="curve" smooth="yes"/>
      <point x="837" y="81"/>
      <point x="652" y="173"/>
      <point x="528" y="298" type="curve" smooth="yes"/>
      <point x="407" y="418"/>
      <point x="311" y="599"/>
      <point x="311" y="835" type="curve" smooth="yes"/>
      <point x="311" y="1068"/>
      <point x="407" y="1249"/>
      <point x="528" y="1369" type="curve" smooth="yes"/>
      <point x="651" y="1491"/>
      <point x="833" y="1585"/>
      <point x="1061" y="1585" type="curve" smooth="yes"/>
      <point x="1289" y="1585"/>
      <point x="1474" y="1491"/>
      <point x="1597" y="1367" type="curve" smooth="yes"/>
      <point x="1717" y="1247"/>
      <point x="1813" y="1066"/>
      <point x="1813" y="832" type="curve" smooth="yes"/>
      <point x="1813" y="598"/>
      <point x="1716" y="418"/>
      <point x="1597" y="298" type="curve" smooth="yes"/>
    </contour>
  </outline>
</glyph>
<glyph name="ordfeminine" format="1">
  <advance width="1233"/>
  <unicode hex="00AA"/>
  <outline>
    <contour>
      <point x="170" y="1407"/>
      <point x="263" y="1353"/>
      <point x="387" y="1353" type="curve" smooth="yes"/>
      <point x="497" y="1353"/>
      <point x="580" y="1396"/>
      <point x="629" y="1460" type="curve"/>
      <point x="636" y="1374" type="line"/>
      <point x="781" y="1374" type="line"/>
      <point x="775" y="1445"/>
      <point x="773" y="1472"/>
      <point x="773" y="1524" type="curve" smooth="yes"/>
      <point x="775" y="1901" type="line"/>
      <point x="775" y="2095"/>
      <point x="652" y="2185"/>
      <point x="471" y="2185" type="curve" smooth="yes"/>
      <point x="325" y="2185"/>
      <point x="216" y="2137"/>
      <point x="159" y="2036" type="curve"/>
      <point x="233" y="1948" type="line"/>
      <point x="282" y="2025"/>
      <point x="356" y="2059"/>
      <point x="465" y="2059" type="curve" smooth="yes"/>
      <point x="587" y="2059"/>
      <point x="628" y="2012"/>
      <point x="628" y="1883" type="curve" smooth="yes"/>
      <point x="628" y="1873" type="line"/>
      <point x="546" y="1861"/>
      <point x="460" y="1863"/>
      <point x="378" y="1851" type="curve"/>
      <point x="246" y="1829"/>
      <point x="109" y="1756"/>
      <point x="109" y="1596" type="curve" smooth="yes"/>
      <point x="109" y="1559"/>
      <point x="115" y="1526"/>
      <point x="129" y="1496" type="curve" smooth="yes"/>
    </contour>
    <contour>
      <point x="620" y="1581"/>
      <point x="554" y="1474"/>
      <point x="410" y="1474" type="curve" smooth="yes"/>
      <point x="325" y="1474"/>
      <point x="260" y="1507"/>
      <point x="260" y="1598" type="curve" smooth="yes"/>
      <point x="260" y="1761"/>
      <point x="504" y="1728"/>
      <point x="628" y="1754" type="curve"/>
      <point x="628" y="1725" type="line"/>
    </contour>
  </outline>
</glyph>
<glyph name="guillemotleft" format="1">
  <advance width="1913"/>
  <unicode hex="00AB"/>
  <outline>
    <contour>
      <point x="705" y="301" type="line"/>
      <point x="878" y="301" type="line"/>
      <point x="596" y="735" type="line"/>
      <point x="888" y="1174" type="line"/>
      <point x="711" y="1174" type="line"/>
      <point x="408" y="735" type="line"/>
    </contour>
    <contour>
      <point x="1113" y="301" type="line"/>
      <point x="1287" y="301" type="line"/>
      <point x="1004" y="735" type="line"/>
      <point x="1295" y="1174" type="line"/>
      <point x="1118" y="1174" type="line"/>
      <point x="816" y="735" type="line"/>
    </contour>
  </outline>
</glyph>
<glyph name="logicalnot" format="1">
  <advance width="2414"/>
  <unicode hex="00AC"/>
  <outline>
    <contour>
      <point x="1324" y="419" type="line"/>
      <point x="1490" y="419" type="line"/>
      <point x="1490" y="1077" type="line"/>
      <point x="332" y="1077" type="line"/>
      <point x="332" y="913" type="line"/>
      <point x="1324" y="913" type="line"/>
    </contour>
  </outline>
</glyph>
<glyph name="registered" format="1">
  <advance width="3030"/>
  <unicode hex="00AE"/>
  <outline>
    <contour>
      <point x="717" y="302" type="line"/>
      <point x="881" y="302" type="line"/>
      <point x="881" y="761" type="line"/>
      <point x="1031" y="761" type="line"/>
      <point x="1099" y="715"/>
      <point x="1147" y="635"/>
      <point x="1193" y="550" type="curve" smooth="yes"/>
      <point x="1329" y="302" type="line"/>
      <point x="1515" y="302" type="line"/>
      <point x="1480" y="366"/>
      <point x="1447" y="421"/>
      <point x="1417" y="472" type="curve" smooth="yes"/>
      <point x="1350" y="586"/>
      <point x="1285" y="696"/>
      <point x="1201" y="781" type="curve"/>
      <point x="1362" y="803"/>
      <point x="1494" y="891"/>
      <point x="1494" y="1079" type="curve" smooth="yes"/>
      <point x="1494" y="1176"/>
      <point x="1455" y="1251"/>
      <point x="1377" y="1303" type="curve" smooth="yes"/>
      <point x="1299" y="1355"/>
      <point x="1180" y="1380"/>
      <point x="1018" y="1380" type="curve" smooth="yes"/>
      <point x="717" y="1380" type="line"/>
    </contour>
    <contour>
      <point x="580" y="59"/>
      <point x="788" y="-57"/>
      <point x="1066" y="-57" type="curve" smooth="yes"/>
      <point x="1340" y="-57"/>
      <point x="1545" y="59"/>
      <point x="1691" y="206" type="curve" smooth="yes"/>
      <point x="1832" y="348"/>
      <point x="1953" y="550"/>
      <point x="1953" y="832" type="curve" smooth="yes"/>
      <point x="1953" y="913"/>
      <point x="1942" y="991"/>
      <point x="1921" y="1066" type="curve" smooth="yes"/>
      <point x="1876" y="1225"/>
      <point x="1794" y="1355"/>
      <point x="1691" y="1458" type="curve" smooth="yes"/>
      <point x="1544" y="1605"/>
      <point x="1338" y="1723"/>
      <point x="1060" y="1723" type="curve" smooth="yes"/>
      <point x="786" y="1723"/>
      <point x="582" y="1607"/>
      <point x="434" y="1460" type="curve"/>
      <point x="293" y="1318"/>
      <point x="171" y="1116"/>
      <point x="171" y="833" type="curve" smooth="yes"/>
      <point x="171" y="752"/>
      <point x="181" y="674"/>
      <point x="202" y="599" type="curve" smooth="yes"/>
      <point x="247" y="441"/>
      <point x="328" y="309"/>
      <point x="432" y="206" type="curve" smooth="yes"/>
    </contour>
    <contour>
      <point x="1475" y="174"/>
      <point x="1301" y="81"/>
      <point x="1066" y="81" type="curve" smooth="yes"/>
      <point x="837" y="81"/>
      <point x="652" y="173"/>
      <point x="528" y="298" type="curve" smooth="yes"/>
      <point x="407" y="418"/>
      <point x="311" y="599"/>
      <point x="311" y="835" type="curve" smooth="yes"/>
      <point x="311" y="1068"/>
      <point x="407" y="1248"/>
      <point x="528" y="1369" type="curve" smooth="yes"/>
      <point x="651" y="1492"/>
      <point x="833" y="1585"/>
      <point x="1061" y="1585" type="curve" smooth="yes"/>
      <point x="1289" y="1585"/>
      <point x="1474" y="1491"/>
      <point x="1597" y="1367" type="curve" smooth="yes"/>
      <point x="1717" y="1247"/>
      <point x="1813" y="1066"/>
      <point x="1813" y="832" type="curve" smooth="yes"/>
      <point x="1813" y="591"/>
      <point x="1719" y="418"/>
      <point x="1598" y="298" type="curve" smooth="yes"/>
    </contour>
    <contour>
      <point x="878" y="900" type="line"/>
      <point x="877" y="1239" type="line"/>
      <point x="1014" y="1239" type="line" smooth="yes"/>
      <point x="1184" y="1239"/>
      <point x="1323" y="1238"/>
      <point x="1323" y="1061" type="curve" smooth="yes"/>
      <point x="1323" y="902"/>
      <point x="1169" y="900"/>
      <point x="1016" y="900" type="curve" smooth="yes"/>
    </contour>
  </outline>
</glyph>
<glyph name="macron" format="1">
  <advance width="1205"/>
  <unicode hex="00AF"/>
  <outline>
    <contour>
      <point x="130" y="2084" type="line"/>
      <point x="763" y="2084" type="line"/>
      <point x="763" y="2241" type="line"/>
      <point x="130" y="2241" type="line"/>
    </contour>
    <contour>
      <point x="447" y="0" type="line" smooth="yes"/>
    </contour>
    <contour>
      <point x="446.5" y="0" type="move" name="_top"/>
    </contour>
  </outline>
</glyph>
<glyph name="degree" format="1">
  <advance width="1397"/>
  <unicode hex="00B0"/>
  <outline>
    <contour>
      <point x="677" y="1699"/>
      <point x="607" y="1643"/>
      <point x="510" y="1643" type="curve" smooth="yes"/>
      <point x="481" y="1643"/>
      <point x="451" y="1648"/>
      <point x="425" y="1658" type="curve" smooth="yes"/>
      <point x="355" y="1687"/>
      <point x="296" y="1751"/>
      <point x="296" y="1853" type="curve" smooth="yes"/>
      <point x="296" y="1882"/>
      <point x="303" y="1911"/>
      <point x="314" y="1937" type="curve"/>
      <point x="346" y="2008"/>
      <point x="415" y="2061"/>
      <point x="510" y="2061" type="curve" smooth="yes"/>
      <point x="539" y="2061"/>
      <point x="566" y="2055"/>
      <point x="592" y="2045" type="curve" smooth="yes"/>
      <point x="662" y="2017"/>
      <point x="724" y="1954"/>
      <point x="724" y="1853" type="curve" smooth="yes"/>
      <point x="724" y="1824"/>
      <point x="720" y="1796"/>
      <point x="708" y="1770" type="curve" smooth="yes"/>
    </contour>
    <contour>
      <point x="237" y="1602"/>
      <point x="352" y="1506"/>
      <point x="510" y="1506" type="curve" smooth="yes"/>
      <point x="558" y="1506"/>
      <point x="602" y="1514"/>
      <point x="645" y="1533" type="curve" smooth="yes"/>
      <point x="758" y="1581"/>
      <point x="862" y="1687"/>
      <point x="862" y="1852" type="curve" smooth="yes"/>
      <point x="862" y="1900"/>
      <point x="854" y="1944"/>
      <point x="835" y="1987" type="curve" smooth="yes"/>
      <point x="783" y="2102"/>
      <point x="669" y="2197"/>
      <point x="510" y="2197" type="curve" smooth="yes"/>
      <point x="463" y="2197"/>
      <point x="416" y="2188"/>
      <point x="373" y="2171" type="curve"/>
      <point x="260" y="2123"/>
      <point x="158" y="2015"/>
      <point x="158" y="1852" type="curve" smooth="yes"/>
      <point x="158" y="1804"/>
      <point x="166" y="1760"/>
      <point x="185" y="1718" type="curve" smooth="yes"/>
    </contour>
  </outline>
</glyph>
<glyph name="plusminus" format="1">
  <advance width="2414"/>
  <unicode hex="00B1"/>
  <outline>
    <contour>
      <point x="818" y="262" type="line"/>
      <point x="985" y="262" type="line"/>
      <point x="985" y="699" type="line"/>
      <point x="1479" y="699" type="line"/>
      <point x="1479" y="861" type="line"/>
      <point x="980" y="861" type="line"/>
      <point x="980" y="1299" type="line"/>
      <point x="816" y="1299" type="line"/>
      <point x="816" y="861" type="line"/>
      <point x="312" y="861" type="line"/>
      <point x="325" y="699" type="line"/>
      <point x="818" y="699" type="line"/>
    </contour>
    <contour>
      <point x="325" y="0" type="line"/>
      <point x="1484" y="0" type="line"/>
      <point x="1484" y="163" type="line"/>
      <point x="325" y="163" type="line"/>
    </contour>
  </outline>
</glyph>
<glyph name="uni00B2" format="1">
  <advance width="1970"/>
  <unicode hex="00B2"/>
  <outline>
    <contour>
      <point x="469" y="1064" type="line"/>
      <point x="1072" y="1064" type="line"/>
      <point x="1072" y="1202" type="line"/>
      <point x="670" y="1202" type="line"/>
      <point x="772" y="1296"/>
      <point x="874" y="1386"/>
      <point x="956" y="1491" type="curve" smooth="yes"/>
      <point x="1015" y="1568"/>
      <point x="1073" y="1655"/>
      <point x="1073" y="1778" type="curve" smooth="yes"/>
      <point x="1073" y="1819"/>
      <point x="1065" y="1855"/>
      <point x="1051" y="1889" type="curve"/>
      <point x="1008" y="1984"/>
      <point x="913" y="2045"/>
      <point x="783" y="2045" type="curve" smooth="yes"/>
      <point x="630" y="2045"/>
      <point x="525" y="1964"/>
      <point x="478" y="1846" type="curve"/>
      <point x="572" y="1754" type="line"/>
      <point x="608" y="1837"/>
      <point x="670" y="1908"/>
      <point x="776" y="1908" type="curve" smooth="yes"/>
      <point x="863" y="1908"/>
      <point x="931" y="1865"/>
      <point x="931" y="1777" type="curve" smooth="yes"/>
      <point x="931" y="1744"/>
      <point x="921" y="1708"/>
      <point x="897" y="1668" type="curve" smooth="yes"/>
      <point x="873" y="1628"/>
      <point x="842" y="1584"/>
      <point x="802" y="1536" type="curve" smooth="yes"/>
      <point x="703" y="1421"/>
      <point x="587" y="1308"/>
      <point x="469" y="1194" type="curve"/>
    </contour>
  </outline>
</glyph>
<glyph name="uni00B3" format="1">
  <advance width="1970"/>
  <unicode hex="00B3"/>
  <outline>
    <contour>
      <point x="452" y="1079"/>
      <point x="543" y="1032"/>
      <point x="662" y="1032" type="curve" smooth="yes"/>
      <point x="706" y="1032"/>
      <point x="749" y="1039"/>
      <point x="788" y="1052" type="curve" smooth="yes"/>
      <point x="896" y="1088"/>
      <point x="992" y="1176"/>
      <point x="992" y="1324" type="curve" smooth="yes"/>
      <point x="992" y="1444"/>
      <point x="932" y="1517"/>
      <point x="850" y="1556" type="curve"/>
      <point x="919" y="1595"/>
      <point x="968" y="1664"/>
      <point x="968" y="1768" type="curve" smooth="yes"/>
      <point x="968" y="1812"/>
      <point x="960" y="1850"/>
      <point x="943" y="1883" type="curve" smooth="yes"/>
      <point x="897" y="1974"/>
      <point x="799" y="2036"/>
      <point x="668" y="2036" type="curve" smooth="yes"/>
      <point x="553" y="2036"/>
      <point x="449" y="1981"/>
      <point x="389" y="1917" type="curve"/>
      <point x="454" y="1805" type="line"/>
      <point x="509" y="1851"/>
      <point x="575" y="1896"/>
      <point x="665" y="1896" type="curve" smooth="yes"/>
      <point x="754" y="1896"/>
      <point x="821" y="1860"/>
      <point x="821" y="1765" type="curve" smooth="yes"/>
      <point x="821" y="1647"/>
      <point x="716" y="1623"/>
      <point x="604" y="1623" type="curve" smooth="yes"/>
      <point x="550" y="1623" type="line"/>
      <point x="550" y="1484" type="line"/>
      <point x="577" y="1484" type="line"/>
      <point x="612" y="1484" type="line" smooth="yes"/>
      <point x="736" y="1484"/>
      <point x="849" y="1458"/>
      <point x="849" y="1327" type="curve" smooth="yes"/>
      <point x="849" y="1219"/>
      <point x="760" y="1167"/>
      <point x="656" y="1167" type="curve" smooth="yes"/>
      <point x="584" y="1167"/>
      <point x="518" y="1198"/>
      <point x="456" y="1258" type="curve"/>
      <point x="389" y="1146" type="line"/>
    </contour>
  </outline>
</glyph>
<glyph name="acute" format="1">
  <advance width="1004"/>
  <unicode hex="00B4"/>
  <outline>
    <contour>
      <point x="290" y="2064" type="line"/>
      <point x="500" y="2064" type="line"/>
      <point x="840" y="2440" type="line"/>
      <point x="540" y="2440" type="line"/>
    </contour>
    <contour>
      <point x="564" y="0" type="line" smooth="yes"/>
    </contour>
    <contour>
      <point x="565" y="0" type="move" name="_top"/>
    </contour>
  </outline>
</glyph>
<glyph name="paragraph" format="1">
  <advance width="2009"/>
  <unicode hex="00B6"/>
  <outline>
    <contour>
      <point x="547" y="-261" type="line"/>
      <point x="706" y="-261" type="line"/>
      <point x="706" y="1471" type="line"/>
      <point x="935" y="1471" type="line"/>
      <point x="935" y="-261" type="line"/>
      <point x="1078" y="-261" type="line"/>
      <point x="1078" y="1471" type="line"/>
      <point x="1173" y="1471" type="line"/>
      <point x="1173" y="1617" type="line"/>
      <point x="748" y="1617" type="line" smooth="yes"/>
      <point x="456" y="1617"/>
      <point x="176" y="1550"/>
      <point x="176" y="1240" type="curve" smooth="yes"/>
      <point x="176" y="1180"/>
      <point x="187" y="1125"/>
      <point x="207" y="1076" type="curve" smooth="yes"/>
      <point x="261" y="943"/>
      <point x="375" y="839"/>
      <point x="547" y="836" type="curve"/>
    </contour>
  </outline>
</glyph>
<glyph name="periodcentered" format="1">
  <advance width="734"/>
  <unicode hex="00B7"/>
  <outline>
    <contour>
      <point x="126" y="904" type="line"/>
      <point x="366" y="904" type="line"/>
      <point x="366" y="1151" type="line"/>
      <point x="126" y="1151" type="line"/>
    </contour>
  </outline>
</glyph>
<glyph name="cedilla" format="1">
  <advance width="875"/>
  <unicode hex="00B8"/>
  <outline>
    <contour>
      <point x="145" y="-685"/>
      <point x="212" y="-697"/>
      <point x="279" y="-697" type="curve" smooth="yes"/>
      <point x="413" y="-697"/>
      <point x="546" y="-654"/>
      <point x="546" y="-513" type="curve" smooth="yes"/>
      <point x="546" y="-387"/>
      <point x="439" y="-344"/>
      <point x="324" y="-338" type="curve"/>
      <point x="316" y="-338" type="line"/>
      <point x="334" y="-212" type="line"/>
      <point x="227" y="-212" type="line"/>
      <point x="191" y="-435" type="line"/>
      <point x="226" y="-433" type="line"/>
      <point x="238" y="-431"/>
      <point x="258" y="-430"/>
      <point x="268" y="-430" type="curve" smooth="yes"/>
      <point x="335" y="-430"/>
      <point x="388" y="-446"/>
      <point x="388" y="-516" type="curve" smooth="yes"/>
      <point x="388" y="-581"/>
      <point x="335" y="-600"/>
      <point x="262" y="-600" type="curve" smooth="yes"/>
      <point x="203" y="-600"/>
      <point x="150" y="-586"/>
      <point x="95" y="-572" type="curve"/>
      <point x="85" y="-672" type="line"/>
    </contour>
    <contour>
      <point x="316" y="0" type="line" smooth="yes"/>
    </contour>
    <contour>
      <point x="315.5" y="0" type="move" name="_bottom"/>
    </contour>
  </outline>
</glyph>
<glyph name="uni00B9" format="1">
  <advance width="1970"/>
  <unicode hex="00B9"/>
  <outline>
    <contour>
      <point x="431" y="1064" type="line"/>
      <point x="834" y="1064" type="line"/>
      <point x="834" y="1201" type="line"/>
      <point x="699" y="1201" type="line"/>
      <point x="699" y="2030" type="line"/>
      <point x="582" y="2012" type="line"/>
      <point x="524" y="1976"/>
      <point x="471" y="1945"/>
      <point x="397" y="1920" type="curve"/>
      <point x="396" y="1767" type="line"/>
      <point x="452" y="1789"/>
      <point x="515" y="1819"/>
      <point x="564" y="1847" type="curve"/>
      <point x="564" y="1726" type="line" smooth="yes"/>
      <point x="564" y="1538" type="line" smooth="yes"/>
      <point x="564" y="1204" type="line"/>
      <point x="431" y="1204" type="line"/>
    </contour>
  </outline>
</glyph>
<glyph name="ordmasculine" format="1">
  <advance width="1364"/>
  <unicode hex="00BA"/>
  <outline>
    <contour>
      <point x="88" y="1509"/>
      <point x="240" y="1351"/>
      <point x="488" y="1351" type="curve" smooth="yes"/>
      <point x="553" y="1351"/>
      <point x="610" y="1362"/>
      <point x="659" y="1384" type="curve" smooth="yes"/>
      <point x="791" y="1443"/>
      <point x="884" y="1570"/>
      <point x="884" y="1766" type="curve" smooth="yes"/>
      <point x="884" y="1824"/>
      <point x="874" y="1879"/>
      <point x="858" y="1930" type="curve" smooth="yes"/>
      <point x="807" y="2083"/>
      <point x="682" y="2184"/>
      <point x="488" y="2184" type="curve" smooth="yes"/>
      <point x="424" y="2184"/>
      <point x="367" y="2172"/>
      <point x="318" y="2151" type="curve" smooth="yes"/>
      <point x="185" y="2092"/>
      <point x="88" y="1966"/>
      <point x="88" y="1770" type="curve" smooth="yes"/>
    </contour>
    <contour>
      <point x="732" y="1600"/>
      <point x="644" y="1477"/>
      <point x="488" y="1477" type="curve" smooth="yes"/>
      <point x="326" y="1477"/>
      <point x="243" y="1598"/>
      <point x="243" y="1769" type="curve" smooth="yes"/>
      <point x="243" y="1935"/>
      <point x="328" y="2058"/>
      <point x="485" y="2058" type="curve" smooth="yes"/>
      <point x="645" y="2058"/>
      <point x="732" y="1935"/>
      <point x="732" y="1765" type="curve" smooth="yes"/>
    </contour>
  </outline>
</glyph>
<glyph name="guillemotright" format="1">
  <advance width="1913"/>
  <unicode hex="00BB"/>
  <outline>
    <contour>
      <point x="273" y="301" type="line"/>
      <point x="451" y="301" type="line"/>
      <point x="755" y="737" type="line"/>
      <point x="456" y="1174" type="line"/>
      <point x="280" y="1174" type="line"/>
      <point x="566" y="737" type="line"/>
    </contour>
    <contour>
      <point x="713" y="301" type="line"/>
      <point x="887" y="301" type="line"/>
      <point x="1192" y="737" type="line"/>
      <point x="893" y="1174" type="line"/>
      <point x="720" y="1174" type="line"/>
      <point x="1002" y="737" type="line"/>
    </contour>
  </outline>
</glyph>
<glyph name="onequarter" format="1">
  <advance width="4067"/>
  <unicode hex="00BC"/>
  <outline>
    <contour>
      <point x="-558" y="0" type="line"/>
      <point x="-391" y="0" type="line"/>
      <point x="484" y="1482" type="line"/>
      <point x="484" y="1413" type="line"/>
      <point x="539" y="1435"/>
      <point x="603" y="1465"/>
      <point x="652" y="1492" type="curve"/>
      <point x="652" y="1372" type="line" smooth="yes"/>
      <point x="652" y="1311"/>
      <point x="653" y="1253"/>
      <point x="653" y="1183" type="curve" smooth="yes"/>
      <point x="653" y="849" type="line"/>
      <point x="518" y="849" type="line"/>
      <point x="518" y="710" type="line"/>
      <point x="922" y="710" type="line"/>
      <point x="922" y="845" type="line"/>
      <point x="788" y="845" type="line"/>
      <point x="788" y="1675" type="line"/>
      <point x="670" y="1658" type="line"/>
      <point x="632" y="1632"/>
      <point x="594" y="1610"/>
      <point x="550" y="1590" type="curve"/>
      <point x="606" y="1686" type="line"/>
      <point x="441" y="1686" type="line"/>
    </contour>
    <contour>
      <point x="1928" y="722" type="line"/>
      <point x="2060" y="722" type="line"/>
      <point x="2060" y="943" type="line"/>
      <point x="2194" y="943" type="line"/>
      <point x="2183" y="1069" type="line"/>
      <point x="2063" y="1069" type="line"/>
      <point x="2063" y="1658" type="line"/>
      <point x="1916" y="1658" type="line"/>
      <point x="1511" y="1050" type="line"/>
      <point x="1511" y="943" type="line"/>
      <point x="1928" y="943" type="line"/>
    </contour>
    <contour>
      <point x="1664" y="1069" type="line"/>
      <point x="1928" y="1461" type="line"/>
      <point x="1928" y="1069" type="line"/>
    </contour>
  </outline>
</glyph>
<glyph name="onehalf" format="1">
  <advance width="4553"/>
  <unicode hex="00BD"/>
  <outline>
    <contour>
      <point x="533" y="710" type="line"/>
      <point x="1136" y="710" type="line"/>
      <point x="1136" y="848" type="line"/>
      <point x="734" y="848" type="line"/>
      <point x="836" y="942"/>
      <point x="938" y="1032"/>
      <point x="1020" y="1136" type="curve" smooth="yes"/>
      <point x="1080" y="1213"/>
      <point x="1138" y="1301"/>
      <point x="1138" y="1424" type="curve" smooth="yes"/>
      <point x="1138" y="1465"/>
      <point x="1130" y="1501"/>
      <point x="1116" y="1535" type="curve"/>
      <point x="1073" y="1630"/>
      <point x="976" y="1691"/>
      <point x="847" y="1691" type="curve" smooth="yes"/>
      <point x="694" y="1691"/>
      <point x="590" y="1609"/>
      <point x="542" y="1491" type="curve"/>
      <point x="636" y="1399" type="line"/>
      <point x="672" y="1482"/>
      <point x="735" y="1554"/>
      <point x="841" y="1554" type="curve" smooth="yes"/>
      <point x="927" y="1554"/>
      <point x="995" y="1511"/>
      <point x="995" y="1422" type="curve" smooth="yes"/>
      <point x="995" y="1389"/>
      <point x="984" y="1353"/>
      <point x="960" y="1313" type="curve" smooth="yes"/>
      <point x="937" y="1273"/>
      <point x="905" y="1229"/>
      <point x="865" y="1181" type="curve" smooth="yes"/>
      <point x="766" y="1067"/>
      <point x="650" y="953"/>
      <point x="533" y="839" type="curve"/>
    </contour>
    <contour>
      <point x="1834" y="710" type="line"/>
      <point x="2236" y="710" type="line"/>
      <point x="2236" y="845" type="line"/>
      <point x="2101" y="845" type="line"/>
      <point x="2101" y="1675" type="line"/>
      <point x="1985" y="1658" type="line"/>
      <point x="1927" y="1621"/>
      <point x="1874" y="1590"/>
      <point x="1800" y="1565" type="curve"/>
      <point x="1799" y="1413" type="line"/>
      <point x="1855" y="1435"/>
      <point x="1918" y="1465"/>
      <point x="1967" y="1492" type="curve"/>
      <point x="1967" y="1372" type="line" smooth="yes"/>
      <point x="1967" y="1311"/>
      <point x="1968" y="1253"/>
      <point x="1968" y="1183" type="curve" smooth="yes"/>
      <point x="1968" y="849" type="line"/>
      <point x="1834" y="849" type="line"/>
    </contour>
    <contour>
      <point x="-558" y="0" type="line"/>
      <point x="-391" y="0" type="line"/>
      <point x="606" y="1686" type="line"/>
      <point x="441" y="1686" type="line"/>
    </contour>
  </outline>
</glyph>
<glyph name="threequarters" format="1">
  <advance width="4067"/>
  <unicode hex="00BE"/>
  <outline>
    <contour>
      <point x="-558" y="0" type="line"/>
      <point x="-391" y="0" type="line"/>
      <point x="509" y="1522" type="line"/>
      <point x="545" y="1461" type="line"/>
      <point x="599" y="1507"/>
      <point x="667" y="1552"/>
      <point x="757" y="1552" type="curve" smooth="yes"/>
      <point x="846" y="1552"/>
      <point x="911" y="1516"/>
      <point x="911" y="1421" type="curve" smooth="yes"/>
      <point x="911" y="1303"/>
      <point x="806" y="1279"/>
      <point x="694" y="1279" type="curve" smooth="yes"/>
      <point x="640" y="1279" type="line"/>
      <point x="640" y="1140" type="line"/>
      <point x="669" y="1140" type="line"/>
      <point x="702" y="1140" type="line" smooth="yes"/>
      <point x="826" y="1140"/>
      <point x="939" y="1114"/>
      <point x="939" y="983" type="curve" smooth="yes"/>
      <point x="939" y="875"/>
      <point x="851" y="823"/>
      <point x="747" y="823" type="curve" smooth="yes"/>
      <point x="674" y="823"/>
      <point x="608" y="854"/>
      <point x="546" y="914" type="curve"/>
      <point x="480" y="802" type="line"/>
      <point x="543" y="735"/>
      <point x="633" y="688"/>
      <point x="752" y="688" type="curve" smooth="yes"/>
      <point x="796" y="688"/>
      <point x="840" y="695"/>
      <point x="879" y="708" type="curve" smooth="yes"/>
      <point x="987" y="744"/>
      <point x="1082" y="832"/>
      <point x="1082" y="980" type="curve" smooth="yes"/>
      <point x="1082" y="1100"/>
      <point x="1023" y="1173"/>
      <point x="941" y="1212" type="curve"/>
      <point x="1009" y="1251"/>
      <point x="1059" y="1320"/>
      <point x="1059" y="1424" type="curve" smooth="yes"/>
      <point x="1059" y="1468"/>
      <point x="1050" y="1506"/>
      <point x="1033" y="1539" type="curve" smooth="yes"/>
      <point x="987" y="1630"/>
      <point x="890" y="1692"/>
      <point x="759" y="1692" type="curve" smooth="yes"/>
      <point x="696" y="1692"/>
      <point x="635" y="1675"/>
      <point x="584" y="1649" type="curve"/>
      <point x="606" y="1686" type="line"/>
      <point x="441" y="1686" type="line"/>
    </contour>
    <contour>
      <point x="1928" y="722" type="line"/>
      <point x="2060" y="722" type="line"/>
      <point x="2060" y="943" type="line"/>
      <point x="2194" y="943" type="line"/>
      <point x="2183" y="1069" type="line"/>
      <point x="2063" y="1069" type="line"/>
      <point x="2063" y="1658" type="line"/>
      <point x="1916" y="1658" type="line"/>
      <point x="1511" y="1050" type="line"/>
      <point x="1511" y="943" type="line"/>
      <point x="1928" y="943" type="line"/>
    </contour>
    <contour>
      <point x="1664" y="1069" type="line"/>
      <point x="1928" y="1461" type="line"/>
      <point x="1928" y="1069" type="line"/>
    </contour>
  </outline>
</glyph>
<glyph name="questiondown" format="1">
  <advance width="1710"/>
  <unicode hex="00BF"/>
  <outline>
    <contour>
      <point x="413" y="59"/>
      <point x="571" y="-20"/>
      <point x="784" y="-20" type="curve" smooth="yes"/>
      <point x="902" y="-20"/>
      <point x="1006" y="11"/>
      <point x="1094" y="57" type="curve"/>
      <point x="1094" y="229" type="line"/>
      <point x="1016" y="182"/>
      <point x="922" y="147"/>
      <point x="807" y="147" type="curve" smooth="yes"/>
      <point x="637" y="147"/>
      <point x="490" y="215"/>
      <point x="490" y="395" type="curve" smooth="yes"/>
      <point x="490" y="442"/>
      <point x="500" y="485"/>
      <point x="521" y="525" type="curve" smooth="yes"/>
      <point x="589" y="654"/>
      <point x="711" y="741"/>
      <point x="805" y="848" type="curve" smooth="yes"/>
      <point x="858" y="909"/>
      <point x="914" y="986"/>
      <point x="914" y="1094" type="curve" smooth="yes"/>
      <point x="914" y="1152"/>
      <point x="910" y="1227"/>
      <point x="904" y="1284" type="curve"/>
      <point x="721" y="1284" type="line"/>
      <point x="731" y="1225" type="line"/>
      <point x="738" y="1195"/>
      <point x="741" y="1150"/>
      <point x="741" y="1114" type="curve" smooth="yes"/>
      <point x="741" y="1077"/>
      <point x="731" y="1040"/>
      <point x="709" y="1003" type="curve" smooth="yes"/>
      <point x="633" y="874"/>
      <point x="507" y="774"/>
      <point x="417" y="657" type="curve" smooth="yes"/>
      <point x="362" y="586"/>
      <point x="303" y="502"/>
      <point x="303" y="385" type="curve" smooth="yes"/>
      <point x="303" y="317"/>
      <point x="316" y="259"/>
      <point x="340" y="208" type="curve" smooth="yes"/>
    </contour>
    <contour>
      <point x="694" y="1483" type="line"/>
      <point x="933" y="1483" type="line"/>
      <point x="933" y="1729" type="line"/>
      <point x="694" y="1729" type="line"/>
    </contour>
  </outline>
</glyph>
<glyph name="AE" format="1">
  <advance width="3359"/>
  <unicode hex="00C6"/>
  <outline>
    <contour>
      <point x="9" y="0" type="line"/>
      <point x="224" y="0" type="line"/>
      <point x="474" y="467" type="line"/>
      <point x="1188" y="467" type="line"/>
      <point x="1222" y="0" type="line"/>
      <point x="2103" y="0" type="line"/>
      <point x="2103" y="174" type="line"/>
      <point x="1391" y="174" type="line"/>
      <point x="1346" y="789" type="line"/>
      <point x="2032" y="789" type="line"/>
      <point x="2032" y="962" type="line"/>
      <point x="1325" y="962" type="line"/>
      <point x="1283" y="1536" type="line"/>
      <point x="2078" y="1536" type="line"/>
      <point x="2078" y="1710" type="line"/>
      <point x="927" y="1710" type="line"/>
    </contour>
    <contour>
      <point x="562" y="641" type="line"/>
      <point x="1046" y="1536" type="line"/>
      <point x="1101" y="1536" type="line"/>
      <point x="1167" y="641" type="line"/>
    </contour>
    <contour>
      <point x="1681" y="0" type="line" smooth="yes"/>
    </contour>
    <contour>
      <point x="1680" y="0" type="move" name="top"/>
    </contour>
  </outline>
</glyph>
<glyph name="multiply" format="1">
  <advance width="2414"/>
  <unicode hex="00D7"/>
  <outline>
    <contour>
      <point x="647" y="271" type="line"/>
      <point x="976" y="619" type="line"/>
      <point x="1303" y="271" type="line"/>
      <point x="1418" y="393" type="line"/>
      <point x="1090" y="741" type="line"/>
      <point x="1418" y="1089" type="line"/>
      <point x="1303" y="1211" type="line"/>
      <point x="976" y="862" type="line"/>
      <point x="647" y="1211" type="line"/>
      <point x="533" y="1090" type="line"/>
      <point x="860" y="741" type="line"/>
      <point x="533" y="392" type="line"/>
    </contour>
  </outline>
</glyph>
<glyph name="Oslash" format="1">
  <advance width="2754"/>
  <unicode hex="00D8"/>
  <outline>
    <contour>
      <point x="640" y="-291" type="line"/>
      <point x="721" y="-86" type="line"/>
      <point x="803" y="-111"/>
      <point x="892" y="-123"/>
      <point x="985" y="-123" type="curve" smooth="yes"/>
      <point x="1504" y="-123"/>
      <point x="1772" y="300"/>
      <point x="1772" y="760" type="curve" smooth="yes"/>
      <point x="1772" y="1166"/>
      <point x="1614" y="1426"/>
      <point x="1376" y="1553" type="curve"/>
      <point x="1459" y="1760" type="line"/>
      <point x="1321" y="1811" type="line"/>
      <point x="1240" y="1609" type="line"/>
      <point x="1160" y="1633"/>
      <point x="1074" y="1644"/>
      <point x="985" y="1644" type="curve" smooth="yes"/>
      <point x="462" y="1644"/>
      <point x="193" y="1220"/>
      <point x="193" y="760" type="curve" smooth="yes"/>
      <point x="193" y="356"/>
      <point x="351" y="96"/>
      <point x="589" y="-31" type="curve"/>
      <point x="506" y="-239" type="line"/>
    </contour>
    <contour>
      <point x="658" y="141" type="line"/>
      <point x="482" y="263"/>
      <point x="396" y="492"/>
      <point x="396" y="759" type="curve" smooth="yes"/>
      <point x="396" y="1227"/>
      <point x="678" y="1470"/>
      <point x="985" y="1470" type="curve" smooth="yes"/>
      <point x="1055" y="1470"/>
      <point x="1117" y="1460"/>
      <point x="1174" y="1442" type="curve"/>
    </contour>
    <contour>
      <point x="1564" y="290"/>
      <point x="1285" y="47"/>
      <point x="985" y="47" type="curve" smooth="yes"/>
      <point x="911" y="47"/>
      <point x="846" y="57"/>
      <point x="787" y="77" type="curve"/>
      <point x="1305" y="1377" type="line"/>
      <point x="1479" y="1255"/>
      <point x="1564" y="1026"/>
      <point x="1564" y="759" type="curve" smooth="yes"/>
    </contour>
    <contour>
      <point x="1378" y="0" type="line" smooth="yes"/>
    </contour>
    <contour>
      <point x="1377" y="0" type="move" name="top"/>
    </contour>
  </outline>
</glyph>
<glyph name="Thorn" format="1">
  <advance width="2109"/>
  <unicode hex="00DE"/>
  <outline>
    <contour>
      <point x="337" y="0" type="line"/>
      <point x="527" y="0" type="line"/>
      <point x="527" y="520" type="line"/>
      <point x="771" y="520" type="line" smooth="yes"/>
      <point x="955" y="520"/>
      <point x="1120" y="564"/>
      <point x="1237" y="641" type="curve"/>
      <point x="1350" y="718"/>
      <point x="1438" y="839"/>
      <point x="1438" y="1029" type="curve" smooth="yes"/>
      <point x="1438" y="1446"/>
      <point x="1105" y="1540"/>
      <point x="713" y="1540" type="curve" smooth="yes"/>
      <point x="527" y="1540" type="line"/>
      <point x="527" y="1710" type="line"/>
      <point x="337" y="1710" type="line"/>
    </contour>
    <contour>
      <point x="527" y="695" type="line"/>
      <point x="527" y="1367" type="line"/>
      <point x="761" y="1367" type="line" smooth="yes"/>
      <point x="1027" y="1367"/>
      <point x="1235" y="1308"/>
      <point x="1235" y="1026" type="curve" smooth="yes"/>
      <point x="1235" y="969"/>
      <point x="1224" y="918"/>
      <point x="1203" y="877" type="curve" smooth="yes"/>
      <point x="1140" y="751"/>
      <point x="996" y="695"/>
      <point x="814" y="695" type="curve" smooth="yes"/>
    </contour>
  </outline>
</glyph>
<glyph name="germandbls" format="1">
  <advance width="2081"/>
  <unicode hex="00DF"/>
  <outline>
    <contour>
      <point x="695" y="41"/>
      <point x="812" y="-40"/>
      <point x="971" y="-40" type="curve" smooth="yes"/>
      <point x="1026" y="-40"/>
      <point x="1077" y="-30"/>
      <point x="1128" y="-10" type="curve" smooth="yes"/>
      <point x="1271" y="48"/>
      <point x="1392" y="179"/>
      <point x="1392" y="387" type="curve" smooth="yes"/>
      <point x="1392" y="464"/>
      <point x="1379" y="532"/>
      <point x="1348" y="590" type="curve"/>
      <point x="1262" y="763"/>
      <point x="1086" y="864"/>
      <point x="894" y="924" type="curve" smooth="yes"/>
      <point x="873" y="931"/>
      <point x="861" y="937"/>
      <point x="861" y="944" type="curve" smooth="yes"/>
      <point x="861" y="958"/>
      <point x="880" y="966"/>
      <point x="891" y="970" type="curve" smooth="yes"/>
      <point x="967" y="1006"/>
      <point x="1038" y="1062"/>
      <point x="1094" y="1123" type="curve"/>
      <point x="1153" y="1184"/>
      <point x="1212" y="1269"/>
      <point x="1212" y="1386" type="curve" smooth="yes"/>
      <point x="1212" y="1438"/>
      <point x="1204" y="1486"/>
      <point x="1183" y="1532" type="curve" smooth="yes"/>
      <point x="1117" y="1677"/>
      <point x="967" y="1761"/>
      <point x="763" y="1761" type="curve" smooth="yes"/>
      <point x="687" y="1761"/>
      <point x="620" y="1749"/>
      <point x="560" y="1724" type="curve" smooth="yes"/>
      <point x="390" y="1653"/>
      <point x="288" y="1493"/>
      <point x="288" y="1244" type="curve" smooth="yes"/>
      <point x="291" y="-14" type="line"/>
      <point x="472" y="-14" type="line"/>
      <point x="472" y="105"/>
      <point x="471" y="241"/>
      <point x="471" y="370" type="curve" smooth="yes"/>
      <point x="471" y="515"/>
      <point x="469" y="676"/>
      <point x="469" y="821" type="curve" smooth="yes"/>
      <point x="469" y="949"/>
      <point x="468" y="1087"/>
      <point x="468" y="1206" type="curve" smooth="yes"/>
      <point x="468" y="1429"/>
      <point x="552" y="1609"/>
      <point x="762" y="1609" type="curve" smooth="yes"/>
      <point x="903" y="1609"/>
      <point x="1005" y="1535"/>
      <point x="1005" y="1385" type="curve" smooth="yes"/>
      <point x="1005" y="1345"/>
      <point x="999" y="1307"/>
      <point x="985" y="1273" type="curve" smooth="yes"/>
      <point x="940" y="1162"/>
      <point x="849" y="1084"/>
      <point x="745" y="1034" type="curve"/>
      <point x="727" y="874" type="line"/>
      <point x="838" y="808"/>
      <point x="955" y="739"/>
      <point x="1044" y="655" type="curve" smooth="yes"/>
      <point x="1117" y="588"/>
      <point x="1186" y="500"/>
      <point x="1186" y="365" type="curve" smooth="yes"/>
      <point x="1186" y="218"/>
      <point x="1102" y="114"/>
      <point x="967" y="114" type="curve" smooth="yes"/>
      <point x="846" y="114"/>
      <point x="756" y="189"/>
      <point x="689" y="272" type="curve"/>
      <point x="616" y="149" type="line"/>
    </contour>
  </outline>
</glyph>
<glyph name="ae" format="1">
  <advance width="2992"/>
  <unicode hex="00E6"/>
  <outline>
    <contour>
      <point x="223" y="30"/>
      <point x="350" y="-49"/>
      <point x="531" y="-49" type="curve" smooth="yes"/>
      <point x="753" y="-49"/>
      <point x="903" y="68"/>
      <point x="988" y="215" type="curve"/>
      <point x="1061" y="67"/>
      <point x="1198" y="-46"/>
      <point x="1405" y="-46" type="curve" smooth="yes"/>
      <point x="1641" y="-46"/>
      <point x="1793" y="60"/>
      <point x="1883" y="225" type="curve"/>
      <point x="1788" y="327" type="line"/>
      <point x="1715" y="210"/>
      <point x="1589" y="116"/>
      <point x="1417" y="116" type="curve" smooth="yes"/>
      <point x="1182" y="116"/>
      <point x="1084" y="280"/>
      <point x="1084" y="527" type="curve" smooth="yes"/>
      <point x="1084" y="533"/>
      <point x="1085" y="542"/>
      <point x="1085" y="546" type="curve"/>
      <point x="1919" y="546" type="line"/>
      <point x="1919" y="599" type="line" smooth="yes"/>
      <point x="1919" y="977"/>
      <point x="1760" y="1220"/>
      <point x="1404" y="1220" type="curve" smooth="yes"/>
      <point x="1220" y="1220"/>
      <point x="1087" y="1124"/>
      <point x="1014" y="989" type="curve"/>
      <point x="1004" y="1029"/>
      <point x="988" y="1063"/>
      <point x="962" y="1092" type="curve" smooth="yes"/>
      <point x="894" y="1166"/>
      <point x="783" y="1220"/>
      <point x="652" y="1220" type="curve" smooth="yes"/>
      <point x="434" y="1220"/>
      <point x="284" y="1140"/>
      <point x="208" y="989" type="curve"/>
      <point x="308" y="880" type="line"/>
      <point x="375" y="998"/>
      <point x="477" y="1060"/>
      <point x="642" y="1060" type="curve" smooth="yes"/>
      <point x="824" y="1060"/>
      <point x="897" y="915"/>
      <point x="897" y="721" type="curve" smooth="yes"/>
      <point x="897" y="706" type="line"/>
      <point x="534" y="706"/>
      <point x="134" y="701"/>
      <point x="134" y="315" type="curve" smooth="yes"/>
      <point x="134" y="258"/>
      <point x="144" y="207"/>
      <point x="165" y="162" type="curve"/>
    </contour>
    <contour>
      <point x="899" y="291"/>
      <point x="812" y="112"/>
      <point x="569" y="112" type="curve" smooth="yes"/>
      <point x="428" y="112"/>
      <point x="320" y="175"/>
      <point x="320" y="324" type="curve" smooth="yes"/>
      <point x="320" y="372"/>
      <point x="333" y="410"/>
      <point x="357" y="439" type="curve" smooth="yes"/>
      <point x="431" y="528"/>
      <point x="582" y="539"/>
      <point x="737" y="543" type="curve"/>
      <point x="899" y="546" type="line"/>
    </contour>
    <contour>
      <point x="1087" y="707" type="line"/>
      <point x="1090" y="753"/>
      <point x="1101" y="798"/>
      <point x="1117" y="841" type="curve"/>
      <point x="1166" y="961"/>
      <point x="1265" y="1060"/>
      <point x="1425" y="1060" type="curve" smooth="yes"/>
      <point x="1635" y="1060"/>
      <point x="1710" y="912"/>
      <point x="1729" y="707" type="curve"/>
    </contour>
    <contour>
      <point x="1496" y="0" type="line" smooth="yes"/>
    </contour>
    <contour>
      <point x="1496" y="0" type="move" name="top"/>
    </contour>
  </outline>
</glyph>
<glyph name="eth" format="1">
  <advance width="1970"/>
  <unicode hex="00F0"/>
  <outline>
    <contour>
      <point x="257" y="95"/>
      <point x="433" y="-40"/>
      <point x="691" y="-40" type="curve" smooth="yes"/>
      <point x="780" y="-40"/>
      <point x="858" y="-22"/>
      <point x="929" y="12" type="curve"/>
      <point x="1158" y="129"/>
      <point x="1256" y="410"/>
      <point x="1256" y="776" type="curve" smooth="yes"/>
      <point x="1256" y="933"/>
      <point x="1236" y="1068"/>
      <point x="1203" y="1191" type="curve"/>
      <point x="1363" y="1191" type="line"/>
      <point x="1363" y="1352" type="line"/>
      <point x="1146" y="1352" type="line"/>
      <point x="1065" y="1531"/>
      <point x="945" y="1663"/>
      <point x="769" y="1736" type="curve"/>
      <point x="683" y="1637" type="line"/>
      <point x="805" y="1565"/>
      <point x="894" y="1479"/>
      <point x="961" y="1352" type="curve"/>
      <point x="734" y="1352" type="line"/>
      <point x="734" y="1191" type="line"/>
      <point x="1023" y="1191" type="line"/>
      <point x="1049" y="1087"/>
      <point x="1061" y="981"/>
      <point x="1062" y="847" type="curve"/>
      <point x="1062" y="836" type="line"/>
      <point x="983" y="970"/>
      <point x="850" y="1040"/>
      <point x="650" y="1040" type="curve" smooth="yes"/>
      <point x="573" y="1040"/>
      <point x="504" y="1027"/>
      <point x="442" y="1001" type="curve" smooth="yes"/>
      <point x="269" y="928"/>
      <point x="146" y="764"/>
      <point x="146" y="510" type="curve" smooth="yes"/>
      <point x="146" y="433"/>
      <point x="157" y="359"/>
      <point x="183" y="293" type="curve"/>
    </contour>
    <contour>
      <point x="1047" y="327"/>
      <point x="929" y="126"/>
      <point x="682" y="126" type="curve" smooth="yes"/>
      <point x="629" y="126"/>
      <point x="583" y="134"/>
      <point x="541" y="153" type="curve" smooth="yes"/>
      <point x="422" y="207"/>
      <point x="341" y="329"/>
      <point x="341" y="504" type="curve" smooth="yes"/>
      <point x="341" y="736"/>
      <point x="460" y="875"/>
      <point x="680" y="875" type="curve" smooth="yes"/>
      <point x="868" y="875"/>
      <point x="998" y="766"/>
      <point x="1047" y="616" type="curve"/>
      <point x="1047" y="588" type="line" smooth="yes"/>
    </contour>
  </outline>
</glyph>
<glyph name="divide" format="1">
  <advance width="2414"/>
  <unicode hex="00F7"/>
  <outline>
    <contour>
      <point x="794" y="37" type="line"/>
      <point x="1033" y="37" type="line"/>
      <point x="1033" y="284" type="line"/>
      <point x="794" y="284" type="line"/>
    </contour>
    <contour>
      <point x="328" y="581" type="line"/>
      <point x="1487" y="581" type="line"/>
      <point x="1487" y="745" type="line"/>
      <point x="328" y="745" type="line"/>
    </contour>
    <contour>
      <point x="794" y="1037" type="line"/>
      <point x="1033" y="1037" type="line"/>
      <point x="1033" y="1284" type="line"/>
      <point x="794" y="1284" type="line"/>
    </contour>
  </outline>
</glyph>
<glyph name="oslash" format="1">
  <advance width="2050"/>
  <unicode hex="00F8"/>
  <outline>
    <contour>
      <point x="439" y="-460" type="line"/>
      <point x="1148" y="1309" type="line"/>
      <point x="1034" y="1346" type="line"/>
      <point x="330" y="-422" type="line"/>
    </contour>
    <contour>
      <point x="1025" y="0" type="line" smooth="yes"/>
    </contour>
    <component base="o"/>
    <contour>
      <point x="1025" y="0" type="move" name="top"/>
    </contour>
  </outline>
</glyph>
<glyph name="thorn" format="1">
  <advance width="2051"/>
  <unicode hex="00FE"/>
  <outline>
    <contour>
      <point x="263" y="-752" type="line"/>
      <point x="444" y="-752" type="line"/>
      <point x="444" y="-92" type="line"/>
      <point x="539" y="-216"/>
      <point x="666" y="-278"/>
      <point x="825" y="-278" type="curve" smooth="yes"/>
      <point x="912" y="-278"/>
      <point x="988" y="-259"/>
      <point x="1053" y="-224" type="curve" smooth="yes"/>
      <point x="1233" y="-126"/>
      <point x="1346" y="83"/>
      <point x="1346" y="368" type="curve" smooth="yes"/>
      <point x="1346" y="451"/>
      <point x="1334" y="529"/>
      <point x="1313" y="605" type="curve" smooth="yes"/>
      <point x="1252" y="825"/>
      <point x="1095" y="983"/>
      <point x="825" y="983" type="curve" smooth="yes"/>
      <point x="648" y="983"/>
      <point x="529" y="902"/>
      <point x="447" y="785" type="curve"/>
      <point x="447" y="1458" type="line"/>
      <point x="263" y="1458" type="line"/>
    </contour>
    <contour>
      <point x="1152" y="97"/>
      <point x="1049" y="-123"/>
      <point x="799" y="-123" type="curve" smooth="yes"/>
      <point x="741" y="-123"/>
      <point x="690" y="-111"/>
      <point x="647" y="-89" type="curve" smooth="yes"/>
      <point x="518" y="-22"/>
      <point x="444" y="126"/>
      <point x="444" y="329" type="curve" smooth="yes"/>
      <point x="444" y="609"/>
      <point x="542" y="826"/>
      <point x="806" y="826" type="curve" smooth="yes"/>
      <point x="1055" y="826"/>
      <point x="1152" y="624"/>
      <point x="1152" y="361" type="curve" smooth="yes"/>
    </contour>
  </outline>
</glyph>
<glyph name="hbar" format="1">
  <advance width="2027"/>
  <unicode hex="0127"/>
  <outline>
    <contour>
      <point x="1041" y="106"/>
      <point x="1126" y="-41"/>
      <point x="1345" y="-44" type="curve"/>
      <point x="1373" y="110" type="line"/>
      <point x="1258" y="134"/>
      <point x="1221" y="230"/>
      <point x="1222" y="404" type="curve"/>
      <point x="1225" y="648" type="line"/>
      <point x="1228" y="990"/>
      <point x="1121" y="1216"/>
      <point x="819" y="1216" type="curve" smooth="yes"/>
      <point x="654" y="1216"/>
      <point x="509" y="1141"/>
      <point x="433" y="1006" type="curve"/>
      <point x="433" y="1777" type="line"/>
      <point x="251" y="1754" type="line"/>
      <point x="251" y="-15" type="line"/>
      <point x="433" y="-15" type="line"/>
      <point x="433" y="651" type="line" smooth="yes"/>
      <point x="433" y="892"/>
      <point x="613" y="1052"/>
      <point x="777" y="1052" type="curve" smooth="yes"/>
      <point x="1010" y="1052"/>
      <point x="1044" y="886"/>
      <point x="1044" y="645" type="curve"/>
      <point x="1041" y="399" type="line"/>
      <point x="1041" y="392" type="line" smooth="yes"/>
    </contour>
    <contour>
      <point x="450" y="1892" type="line"/>
      <point x="1081" y="1892" type="line"/>
      <point x="1081" y="2049" type="line"/>
      <point x="450" y="2049" type="line"/>
    </contour>
  </outline>
</glyph>
<glyph name="dotlessi" format="1">
  <advance width="998"/>
  <unicode hex="0131"/>
  <outline>
    <contour>
      <point x="174" y="114"/>
      <point x="314" y="-9"/>
      <point x="549" y="-9" type="curve" smooth="yes"/>
      <point x="604" y="-9"/>
      <point x="671" y="6"/>
      <point x="731" y="32" type="curve"/>
      <point x="710" y="243" type="line"/>
      <point x="667" y="226"/>
      <point x="621" y="216"/>
      <point x="589" y="216" type="curve" smooth="yes"/>
      <point x="507" y="216"/>
      <point x="457" y="288"/>
      <point x="457" y="410" type="curve" smooth="yes"/>
      <point x="457" y="1201" type="line"/>
      <point x="174" y="1201" type="line"/>
      <point x="174" y="323" type="line" smooth="yes"/>
    </contour>
    <contour>
      <point x="500" y="0" type="line" smooth="yes"/>
    </contour>
    <contour>
      <point x="900" y="10" type="line" smooth="yes"/>
    </contour>
    <contour>
      <point x="499" y="0" type="move" name="top"/>
    </contour>
    <contour>
      <point x="898" y="10" type="move" name="ogonek"/>
    </contour>
  </outline>
</glyph>
<glyph name="kgreenlandic" format="1">
  <advance width="1791"/>
  <unicode hex="0138"/>
  <outline>
    <contour>
      <point x="295" y="0" type="line"/>
      <point x="477" y="0" type="line"/>
      <point x="477" y="553" type="line"/>
      <point x="1041" y="0" type="line"/>
      <point x="1282" y="0" type="line"/>
      <point x="1071" y="204"/>
      <point x="867" y="396"/>
      <point x="656" y="601" type="curve"/>
      <point x="1241" y="1205" type="line"/>
      <point x="992" y="1205" type="line"/>
      <point x="477" y="654" type="line"/>
      <point x="477" y="1205" type="line"/>
      <point x="295" y="1205" type="line"/>
    </contour>
  </outline>
</glyph>
<glyph name="Lslash" format="1">
  <advance width="1855"/>
  <unicode hex="0141"/>
  <outline>
    <contour>
      <point x="231" y="0" type="line"/>
      <point x="1194" y="0" type="line"/>
      <point x="1194" y="174" type="line"/>
      <point x="421" y="174" type="line"/>
      <point x="421" y="836" type="line"/>
      <point x="737" y="1045" type="line"/>
      <point x="737" y="1206" type="line"/>
      <point x="421" y="997" type="line"/>
      <point x="421" y="1710" type="line"/>
      <point x="231" y="1710" type="line"/>
      <point x="231" y="871" type="line"/>
      <point x="25" y="735" type="line"/>
      <point x="25" y="574" type="line"/>
      <point x="231" y="710" type="line"/>
    </contour>
  </outline>
</glyph>
<glyph name="lslash" format="1">
  <advance width="832"/>
  <unicode hex="0142"/>
  <outline>
    <contour>
      <point x="185" y="0" type="line"/>
      <point x="368" y="0" type="line"/>
      <point x="368" y="925" type="line"/>
      <point x="557" y="1045" type="line"/>
      <point x="557" y="1206" type="line"/>
      <point x="368" y="1086" type="line"/>
      <point x="368" y="1752" type="line"/>
      <point x="185" y="1752" type="line"/>
      <point x="185" y="970" type="line"/>
      <point x="0" y="852" type="line"/>
      <point x="0" y="691" type="line"/>
      <point x="185" y="809" type="line"/>
    </contour>
  </outline>
</glyph>
<glyph name="OE" format="1">
  <advance width="3478"/>
  <unicode hex="0152"/>
  <outline>
    <contour>
      <point x="346" y="167"/>
      <point x="589" y="-40"/>
      <point x="979" y="-40" type="curve" smooth="yes"/>
      <point x="1134" y="-40"/>
      <point x="1245" y="24"/>
      <point x="1334" y="110" type="curve"/>
      <point x="1334" y="-14" type="line"/>
      <point x="2254" y="-14" type="line"/>
      <point x="2254" y="160" type="line"/>
      <point x="1524" y="160" type="line"/>
      <point x="1524" y="776" type="line"/>
      <point x="2180" y="776" type="line"/>
      <point x="2180" y="949" type="line"/>
      <point x="1524" y="949" type="line"/>
      <point x="1524" y="1522" type="line"/>
      <point x="2223" y="1522" type="line"/>
      <point x="2223" y="1696" type="line"/>
      <point x="1334" y="1696" type="line"/>
      <point x="1334" y="1608" type="line"/>
      <point x="1244" y="1676"/>
      <point x="1132" y="1728"/>
      <point x="987" y="1728" type="curve" smooth="yes"/>
      <point x="862" y="1728"/>
      <point x="749" y="1706"/>
      <point x="650" y="1661" type="curve" smooth="yes"/>
      <point x="372" y="1536"/>
      <point x="188" y="1258"/>
      <point x="188" y="843" type="curve" smooth="yes"/>
      <point x="188" y="707"/>
      <point x="207" y="586"/>
      <point x="243" y="477" type="curve" smooth="yes"/>
    </contour>
    <contour>
      <point x="1251" y="205"/>
      <point x="1137" y="133"/>
      <point x="976" y="133" type="curve" smooth="yes"/>
      <point x="880" y="133"/>
      <point x="795" y="152"/>
      <point x="722" y="188" type="curve" smooth="yes"/>
      <point x="514" y="291"/>
      <point x="391" y="518"/>
      <point x="391" y="838" type="curve" smooth="yes"/>
      <point x="391" y="1044"/>
      <point x="452" y="1218"/>
      <point x="542" y="1338" type="curve" smooth="yes"/>
      <point x="635" y="1461"/>
      <point x="776" y="1554"/>
      <point x="979" y="1554" type="curve" smooth="yes"/>
      <point x="1136" y="1554"/>
      <point x="1247" y="1499"/>
      <point x="1334" y="1418" type="curve"/>
      <point x="1334" y="298" type="line"/>
    </contour>
    <contour>
      <point x="1740" y="0" type="line" smooth="yes"/>
    </contour>
    <contour>
      <point x="1739" y="0" type="move" name="top"/>
    </contour>
  </outline>
</glyph>
<glyph name="oe" format="1">
  <advance width="3264"/>
  <unicode hex="0153"/>
  <outline>
    <contour>
      <point x="266" y="112"/>
      <point x="442" y="-49"/>
      <point x="724" y="-49" type="curve" smooth="yes"/>
      <point x="957" y="-49"/>
      <point x="1113" y="51"/>
      <point x="1180" y="229" type="curve"/>
      <point x="1247" y="57"/>
      <point x="1391" y="-49"/>
      <point x="1609" y="-49" type="curve" smooth="yes"/>
      <point x="1836" y="-49"/>
      <point x="1992" y="57"/>
      <point x="2079" y="225" type="curve"/>
      <point x="1982" y="327" type="line"/>
      <point x="1912" y="209"/>
      <point x="1791" y="112"/>
      <point x="1621" y="112" type="curve" smooth="yes"/>
      <point x="1566" y="112"/>
      <point x="1518" y="122"/>
      <point x="1476" y="142" type="curve" smooth="yes"/>
      <point x="1355" y="201"/>
      <point x="1286" y="332"/>
      <point x="1281" y="513" type="curve"/>
      <point x="1281" y="536" type="line"/>
      <point x="2114" y="538" type="line"/>
      <point x="2114" y="600" type="line" smooth="yes"/>
      <point x="2114" y="964"/>
      <point x="1956" y="1220"/>
      <point x="1615" y="1220" type="curve" smooth="yes"/>
      <point x="1393" y="1220"/>
      <point x="1261" y="1115"/>
      <point x="1186" y="948" type="curve"/>
      <point x="1104" y="1116"/>
      <point x="968" y="1220"/>
      <point x="736" y="1220" type="curve" smooth="yes"/>
      <point x="644" y="1220"/>
      <point x="561" y="1204"/>
      <point x="488" y="1170" type="curve" smooth="yes"/>
      <point x="290" y="1079"/>
      <point x="153" y="877"/>
      <point x="153" y="581" type="curve" smooth="yes"/>
      <point x="153" y="494"/>
      <point x="166" y="412"/>
      <point x="191" y="335" type="curve" smooth="yes"/>
    </contour>
    <contour>
      <point x="1095" y="321"/>
      <point x="985" y="112"/>
      <point x="736" y="112" type="curve" smooth="yes"/>
      <point x="669" y="112"/>
      <point x="610" y="125"/>
      <point x="561" y="150" type="curve" smooth="yes"/>
      <point x="425" y="219"/>
      <point x="344" y="368"/>
      <point x="344" y="579" type="curve" smooth="yes"/>
      <point x="344" y="643"/>
      <point x="351" y="704"/>
      <point x="368" y="762" type="curve" smooth="yes"/>
      <point x="414" y="925"/>
      <point x="528" y="1060"/>
      <point x="726" y="1060" type="curve" smooth="yes"/>
      <point x="985" y="1060"/>
      <point x="1095" y="858"/>
      <point x="1095" y="584" type="curve" smooth="yes"/>
    </contour>
    <contour>
      <point x="1281" y="698" type="line"/>
      <point x="1285" y="745"/>
      <point x="1293" y="791"/>
      <point x="1309" y="835" type="curve"/>
      <point x="1357" y="958"/>
      <point x="1461" y="1060"/>
      <point x="1622" y="1060" type="curve" smooth="yes"/>
      <point x="1826" y="1060"/>
      <point x="1923" y="915"/>
      <point x="1923" y="698" type="curve"/>
    </contour>
    <contour>
      <point x="1633" y="0" type="line" smooth="yes"/>
    </contour>
    <contour>
      <point x="1632" y="0" type="move" name="top"/>
    </contour>
  </outline>
</glyph>
<glyph name="florin" format="1">
  <advance width="1970"/>
  <unicode hex="0192"/>
  <outline>
    <contour>
      <point x="163" y="-579"/>
      <point x="201" y="-585"/>
      <point x="235" y="-585" type="curve" smooth="yes"/>
      <point x="303" y="-585"/>
      <point x="362" y="-570"/>
      <point x="406" y="-541" type="curve" smooth="yes"/>
      <point x="546" y="-451"/>
      <point x="591" y="-255"/>
      <point x="628" y="-54" type="curve"/>
      <point x="768" y="748" type="line"/>
      <point x="1004" y="748" type="line"/>
      <point x="1014" y="912" type="line"/>
      <point x="794" y="912" type="line"/>
      <point x="834" y="1143" type="line"/>
      <point x="855" y="1257"/>
      <point x="897" y="1324"/>
      <point x="1025" y="1324" type="curve" smooth="yes"/>
      <point x="1068" y="1324"/>
      <point x="1109" y="1314"/>
      <point x="1145" y="1299" type="curve"/>
      <point x="1153" y="1469" type="line"/>
      <point x="1104" y="1482"/>
      <point x="1052" y="1491"/>
      <point x="997" y="1491" type="curve" smooth="yes"/>
      <point x="751" y="1491"/>
      <point x="659" y="1318"/>
      <point x="630" y="1090" type="curve"/>
      <point x="605" y="912" type="line"/>
      <point x="418" y="912" type="line"/>
      <point x="408" y="748" type="line"/>
      <point x="578" y="748" type="line"/>
      <point x="521" y="437"/>
      <point x="480" y="110"/>
      <point x="410" y="-187" type="curve" smooth="yes"/>
      <point x="386" y="-294"/>
      <point x="344" y="-422"/>
      <point x="221" y="-422" type="curve" smooth="yes"/>
      <point x="194" y="-422"/>
      <point x="164" y="-417"/>
      <point x="134" y="-404" type="curve"/>
      <point x="122" y="-566" type="line"/>
    </contour>
  </outline>
</glyph>
<glyph name="uni0216" format="1">
  <advance width="2538"/>
  <unicode hex="0216"/>
  <outline>
    <contour>
      <point x="317" y="172"/>
      <point x="538" y="-39"/>
      <point x="962" y="-39" type="curve" smooth="yes"/>
      <point x="1362" y="-39"/>
      <point x="1579" y="212"/>
      <point x="1581" y="634" type="curve"/>
      <point x="1581" y="1697" type="line"/>
      <point x="1393" y="1697" type="line"/>
      <point x="1393" y="620" type="line" smooth="yes"/>
      <point x="1393" y="315"/>
      <point x="1238" y="132"/>
      <point x="960" y="132" type="curve" smooth="yes"/>
      <point x="660" y="132"/>
      <point x="506" y="293"/>
      <point x="506" y="628" type="curve" smooth="yes"/>
      <point x="506" y="1697" type="line"/>
      <point x="317" y="1697" type="line"/>
      <point x="317" y="623" type="line" smooth="yes"/>
    </contour>
    <contour>
      <point x="762" y="2199"/>
      <point x="650" y="2110"/>
      <point x="636" y="1922" type="curve"/>
      <point x="731" y="1922" type="line"/>
      <point x="748" y="2025"/>
      <point x="829" y="2073"/>
      <point x="942" y="2073" type="curve" smooth="yes"/>
      <point x="1055" y="2073"/>
      <point x="1142" y="2021"/>
      <point x="1164" y="1922" type="curve"/>
      <point x="1258" y="1922" type="line"/>
      <point x="1244" y="2103"/>
      <point x="1133" y="2199"/>
      <point x="951" y="2199" type="curve" smooth="yes"/>
    </contour>
  </outline>
</glyph>
<glyph name="uni0217" format="1">
  <advance width="1989"/>
  <unicode hex="0217"/>
  <outline>
    <contour>
      <point x="221" y="81"/>
      <point x="433" y="-39"/>
      <point x="647" y="-39" type="curve" smooth="yes"/>
      <point x="822" y="-39"/>
      <point x="960" y="35"/>
      <point x="1044" y="180" type="curve"/>
      <point x="1074" y="50"/>
      <point x="1193" y="-17"/>
      <point x="1300" y="-17" type="curve"/>
      <point x="1338" y="150" type="line"/>
      <point x="1280" y="150"/>
      <point x="1190" y="186"/>
      <point x="1190" y="323" type="curve" smooth="yes"/>
      <point x="1190" y="1192" type="line"/>
      <point x="1008" y="1192" type="line"/>
      <point x="1008" y="488" type="line" smooth="yes"/>
      <point x="1008" y="258"/>
      <point x="855" y="124"/>
      <point x="673" y="124" type="curve" smooth="yes"/>
      <point x="541" y="124"/>
      <point x="407" y="186"/>
      <point x="413" y="416" type="curve" smooth="yes"/>
      <point x="418" y="686" type="line"/>
      <point x="429" y="1057"/>
      <point x="376" y="1192"/>
      <point x="376" y="1192" type="curve"/>
      <point x="194" y="1161" type="line"/>
      <point x="194" y="1161"/>
      <point x="247" y="1010"/>
      <point x="237" y="671" type="curve" smooth="yes"/>
      <point x="230" y="416" type="line" smooth="yes"/>
    </contour>
    <contour>
      <point x="543" y="1694"/>
      <point x="430" y="1604"/>
      <point x="416" y="1417" type="curve"/>
      <point x="513" y="1417" type="line"/>
      <point x="530" y="1520"/>
      <point x="610" y="1569"/>
      <point x="723" y="1569" type="curve" smooth="yes"/>
      <point x="836" y="1569"/>
      <point x="923" y="1515"/>
      <point x="945" y="1417" type="curve"/>
      <point x="1040" y="1417" type="line"/>
      <point x="1026" y="1598"/>
      <point x="914" y="1694"/>
      <point x="731" y="1694" type="curve" smooth="yes"/>
    </contour>
  </outline>
</glyph>
<glyph name="uni0237" format="1">
  <advance width="832"/>
  <unicode hex="0237"/>
  <outline>
    <contour>
      <point x="-127" y="-750"/>
      <point x="-82" y="-756"/>
      <point x="-33" y="-756" type="curve" smooth="yes"/>
      <point x="18" y="-756"/>
      <point x="62" y="-747"/>
      <point x="99" y="-730" type="curve" smooth="yes"/>
      <point x="271" y="-650"/>
      <point x="318" y="-428"/>
      <point x="318" y="-166" type="curve" smooth="yes"/>
      <point x="318" y="953" type="line"/>
      <point x="136" y="953" type="line"/>
      <point x="136" y="-216" type="line" smooth="yes"/>
      <point x="136" y="-423"/>
      <point x="96" y="-585"/>
      <point x="-76" y="-585" type="curve" smooth="yes"/>
      <point x="-109" y="-585"/>
      <point x="-137" y="-578"/>
      <point x="-170" y="-573" type="curve"/>
      <point x="-169" y="-740" type="line"/>
    </contour>
    <contour>
      <point x="416" y="0" type="line" smooth="yes"/>
    </contour>
    <contour>
      <point x="416" y="0" type="move" name="top"/>
    </contour>
  </outline>
</glyph>
<glyph name="circumflex" format="1">
  <advance width="1157"/>
  <unicode hex="02C6"/>
  <outline>
    <contour>
      <point x="25" y="2061" type="line"/>
      <point x="230" y="2061" type="line"/>
      <point x="386" y="2245" type="line"/>
      <point x="535" y="2061" type="line"/>
      <point x="748" y="2061" type="line"/>
      <point x="472" y="2442" type="line"/>
      <point x="299" y="2442" type="line"/>
    </contour>
    <contour>
      <point x="387" y="0" type="line" smooth="yes"/>
    </contour>
    <contour>
      <point x="386.5" y="0" type="move" name="_top"/>
    </contour>
  </outline>
</glyph>
<glyph name="caron" format="1">
  <advance width="1157"/>
  <unicode hex="02C7"/>
  <outline>
    <contour>
      <point x="313" y="2061" type="line"/>
      <point x="483" y="2061" type="line"/>
      <point x="748" y="2440" type="line"/>
      <point x="576" y="2440" type="line"/>
      <point x="391" y="2187" type="line"/>
      <point x="211" y="2440" type="line"/>
      <point x="48" y="2440" type="line"/>
    </contour>
    <contour>
      <point x="398" y="0" type="line" smooth="yes"/>
    </contour>
    <contour>
      <point x="398" y="0" type="move" name="_top"/>
    </contour>
  </outline>
</glyph>
<glyph name="breve" format="1">
  <advance width="1040"/>
  <unicode hex="02D8"/>
  <outline>
    <contour>
      <point x="68" y="2235"/>
      <point x="179" y="2145"/>
      <point x="367" y="2145" type="curve" smooth="yes"/>
      <point x="550" y="2145"/>
      <point x="662" y="2242"/>
      <point x="676" y="2423" type="curve"/>
      <point x="580" y="2423" type="line"/>
      <point x="558" y="2324"/>
      <point x="473" y="2271"/>
      <point x="360" y="2271" type="curve" smooth="yes"/>
      <point x="247" y="2271"/>
      <point x="166" y="2320"/>
      <point x="150" y="2423" type="curve"/>
      <point x="54" y="2423" type="line"/>
    </contour>
    <contour>
      <point x="365" y="0" type="line" smooth="yes"/>
    </contour>
    <contour>
      <point x="365" y="0" type="move" name="_top"/>
    </contour>
  </outline>
</glyph>
<glyph name="dotaccent" format="1">
  <advance width="867"/>
  <unicode hex="02D9"/>
  <outline>
    <contour>
      <point x="305" y="2195" type="line"/>
      <point x="482" y="2195" type="line"/>
      <point x="482" y="2386" type="line"/>
      <point x="305" y="2386" type="line"/>
    </contour>
    <contour>
      <point x="394" y="0" type="line" smooth="yes"/>
    </contour>
    <contour>
      <point x="393.5" y="0" type="move" name="_top"/>
    </contour>
  </outline>
</glyph>
<glyph name="ring" format="1">
  <advance width="1001"/>
  <unicode hex="02DA"/>
  <outline>
    <contour>
      <point x="503" y="2177"/>
      <point x="446" y="2124"/>
      <point x="379" y="2124" type="curve" smooth="yes"/>
      <point x="307" y="2124"/>
      <point x="258" y="2172"/>
      <point x="258" y="2248" type="curve" smooth="yes"/>
      <point x="258" y="2319"/>
      <point x="312" y="2371"/>
      <point x="379" y="2371" type="curve" smooth="yes"/>
      <point x="448" y="2371"/>
      <point x="503" y="2320"/>
      <point x="503" y="2248" type="curve" smooth="yes"/>
    </contour>
    <contour>
      <point x="149" y="2138"/>
      <point x="230" y="2024"/>
      <point x="382" y="2024" type="curve" smooth="yes"/>
      <point x="477" y="2024"/>
      <point x="612" y="2094"/>
      <point x="612" y="2248" type="curve" smooth="yes"/>
      <point x="612" y="2356"/>
      <point x="530" y="2471"/>
      <point x="381" y="2471" type="curve" smooth="yes"/>
      <point x="281" y="2471"/>
      <point x="149" y="2403"/>
      <point x="149" y="2246" type="curve" smooth="yes"/>
    </contour>
    <contour>
      <point x="380" y="0" type="line" smooth="yes"/>
    </contour>
    <contour>
      <point x="380.5" y="0" type="move" name="_top"/>
    </contour>
  </outline>
</glyph>
<glyph name="ogonek" format="1">
  <advance width="840"/>
  <unicode hex="02DB"/>
  <outline>
    <contour>
      <point x="135" y="-648"/>
      <point x="215" y="-687"/>
      <point x="320" y="-687" type="curve" smooth="yes"/>
      <point x="391" y="-687"/>
      <point x="465" y="-675"/>
      <point x="515" y="-653" type="curve"/>
      <point x="515" y="-523" type="line"/>
      <point x="465" y="-544"/>
      <point x="417" y="-559"/>
      <point x="345" y="-559" type="curve" smooth="yes"/>
      <point x="288" y="-559"/>
      <point x="235" y="-523"/>
      <point x="235" y="-463" type="curve" smooth="yes"/>
      <point x="235" y="-444"/>
      <point x="239" y="-425"/>
      <point x="251" y="-406" type="curve" smooth="yes"/>
      <point x="298" y="-330"/>
      <point x="383" y="-279"/>
      <point x="459" y="-229" type="curve"/>
      <point x="318" y="-215" type="line"/>
      <point x="258" y="-246"/>
      <point x="196" y="-287"/>
      <point x="153" y="-334" type="curve" smooth="yes"/>
      <point x="117" y="-373"/>
      <point x="79" y="-425"/>
      <point x="79" y="-494" type="curve" smooth="yes"/>
      <point x="79" y="-525"/>
      <point x="86" y="-553"/>
      <point x="98" y="-576" type="curve" smooth="yes"/>
    </contour>
    <contour>
      <point x="515" y="10" type="line" smooth="yes"/>
    </contour>
    <contour>
      <point x="515" y="10" type="move" name="_ogonek"/>
    </contour>
  </outline>
</glyph>
<glyph name="tilde" format="1">
  <advance width="1097"/>
  <unicode hex="02DC"/>
  <outline>
    <contour>
      <point x="107" y="2366"/>
      <point x="35" y="2255"/>
      <point x="24" y="2119" type="curve"/>
      <point x="139" y="2119" type="line"/>
      <point x="148" y="2185"/>
      <point x="180" y="2219"/>
      <point x="240" y="2219" type="curve" smooth="yes"/>
      <point x="346" y="2219"/>
      <point x="413" y="2139"/>
      <point x="519" y="2139" type="curve" smooth="yes"/>
      <point x="655" y="2139"/>
      <point x="721" y="2259"/>
      <point x="735" y="2392" type="curve"/>
      <point x="615" y="2392" type="line"/>
      <point x="607" y="2332"/>
      <point x="578" y="2286"/>
      <point x="519" y="2286" type="curve" smooth="yes"/>
      <point x="498" y="2286"/>
      <point x="476" y="2290"/>
      <point x="454" y="2299" type="curve" smooth="yes"/>
      <point x="390" y="2323"/>
      <point x="326" y="2366"/>
      <point x="243" y="2366" type="curve" smooth="yes"/>
    </contour>
    <contour>
      <point x="379" y="0" type="line" smooth="yes"/>
    </contour>
    <contour>
      <point x="379.5" y="0" type="move" name="_top"/>
    </contour>
  </outline>
</glyph>
<glyph name="hungarumlaut" format="1">
  <advance width="1602"/>
  <unicode hex="02DD"/>
  <outline>
    <contour>
      <point x="270" y="2067" type="line"/>
      <point x="399" y="2067" type="line"/>
      <point x="703" y="2435" type="line"/>
      <point x="508" y="2435" type="line"/>
    </contour>
    <contour>
      <point x="564" y="2067" type="line"/>
      <point x="696" y="2067" type="line"/>
      <point x="1001" y="2435" type="line"/>
      <point x="807" y="2435" type="line"/>
    </contour>
    <contour>
      <point x="635" y="0" type="line" smooth="yes"/>
    </contour>
    <contour>
      <point x="635.5" y="0" type="move" name="_top"/>
    </contour>
  </outline>
</glyph>
<glyph name="dblgravecmb" format="1">
  <advance width="1602"/>
  <unicode hex="030F"/>
  <outline>
    <contour>
      <point x="574" y="2067" type="line"/>
      <point x="707" y="2067" type="line"/>
      <point x="463" y="2435" type="line"/>
      <point x="270" y="2435" type="line"/>
    </contour>
    <contour>
      <point x="870" y="2067" type="line"/>
      <point x="1001" y="2067" type="line"/>
      <point x="761" y="2435" type="line"/>
      <point x="567" y="2435" type="line"/>
    </contour>
    <contour>
      <point x="635" y="0" type="line" smooth="yes"/>
    </contour>
    <contour>
      <point x="635.5" y="0" type="move" name="_top"/>
    </contour>
  </outline>
</glyph>
<glyph name="uni0311" format="1">
  <advance width="1040"/>
  <unicode hex="0311"/>
  <outline>
    <contour>
      <point x="179" y="2423"/>
      <point x="68" y="2333"/>
      <point x="54" y="2145" type="curve"/>
      <point x="150" y="2145" type="line"/>
      <point x="166" y="2249"/>
      <point x="247" y="2297"/>
      <point x="360" y="2297" type="curve" smooth="yes"/>
      <point x="473" y="2297"/>
      <point x="558" y="2244"/>
      <point x="580" y="2145" type="curve"/>
      <point x="676" y="2145" type="line"/>
      <point x="662" y="2326"/>
      <point x="550" y="2423"/>
      <point x="367" y="2423" type="curve" smooth="yes"/>
    </contour>
  </outline>
</glyph>
<glyph name="commaaccentcomb" format="1">
  <advance width="893"/>
  <unicode hex="0326"/>
  <outline>
    <contour>
      <point x="129" y="-1101" type="line"/>
      <point x="274" y="-1101" type="line"/>
      <point x="454" y="-557" type="line"/>
      <point x="247" y="-557" type="line"/>
    </contour>
    <contour>
      <point x="292" y="0" type="line" smooth="yes"/>
    </contour>
    <contour>
      <point x="291.5" y="0" type="move" name="_bottom"/>
    </contour>
  </outline>
</glyph>
